<svg width="55" height="32" viewBox="0 0 55 32" fill="none" xmlns="http://www.w3.org/2000/svg">
<g clip-path="url(#clip0_609_2384)">
<path fill-rule="evenodd" clip-rule="evenodd" d="M20.5718 12.4911C19.8483 11.9866 18.8341 12.1392 18.3097 12.8341C17.7834 13.5277 17.9444 14.4999 18.6675 15.0026L25.8422 20L36.7727 2.34548C37.2301 1.60888 36.975 0.655734 36.2066 0.217322C35.4364 -0.219758 34.4416 0.0229657 33.9862 0.761344L24.8715 15.4845L20.5718 12.4911Z" fill="#FE7777"/>
<path fill-rule="evenodd" clip-rule="evenodd" d="M41.005 29.6823C38.9373 29.6823 37.2568 28.0246 37.2568 25.9902C37.2568 23.9535 38.9373 22.2963 41.005 22.2963C43.0726 22.2963 44.755 23.9535 44.755 25.9902C44.755 28.0246 43.0726 29.6823 41.005 29.6823ZM13.2446 29.6823C11.1788 29.6823 9.49638 28.0246 9.49638 25.9902C9.49638 23.9535 11.1788 22.2963 13.2446 22.2963C15.3122 22.2963 16.9946 23.9535 16.9946 25.9902C16.9946 28.0246 15.3122 29.6823 13.2446 29.6823ZM54.4113 19.335C53.0233 16.4592 51.5981 14.9067 50.0579 14.5885L41.4984 12.8212C40.9373 12.7058 40.423 12.4086 40.0482 11.9821L36.7811 8.27433C36.5966 8.06444 36.3958 7.87201 36.1882 7.68852L34.9533 9.74088C34.9692 9.75834 34.9888 9.77579 35.0047 9.79324L38.2717 13.501C38.9819 14.307 39.9559 14.87 41.0154 15.0902L49.575 16.8575C50.1306 16.9711 51.1352 17.945 52.2869 20.3294C52.7694 21.3278 52.7662 22.4641 52.2778 23.4482L51.9779 24.0533C51.7458 24.5267 51.2487 24.8311 50.7163 24.8311H46.9912C46.441 22.0707 43.9668 19.9799 41.005 19.9799C38.0428 19.9799 35.5708 22.0707 35.0206 24.8311H19.2308C18.6806 22.0707 16.2068 19.9799 13.2446 19.9799C10.2846 19.9799 7.81037 22.0707 7.26017 24.8311H3.41474C2.82911 24.8311 2.35342 24.3625 2.35342 23.7856V17.9955C2.35342 17.5095 2.6869 17.0938 3.1644 16.9801L8.92665 15.6129C10.0184 15.3524 10.9784 14.7143 11.6299 13.8143L14.3114 10.1132C15.126 8.98904 16.4499 8.31595 17.8538 8.31595H27.8862L29.281 6H17.8538C15.6902 6 13.6512 7.03468 12.3964 8.76885L9.71491 12.4699C9.39188 12.9156 8.91802 13.232 8.37691 13.3596L2.61421 14.7268C1.0754 15.092 0 16.4363 0 17.9955V23.7856C0 25.6384 1.53154 27.1475 3.41474 27.1475H7.26017C7.81037 29.9092 10.2846 32 13.2446 32C16.2068 32 18.6806 29.9092 19.2308 27.1475H35.0206C35.5708 29.9092 38.0428 32 41.005 32C43.9668 32 46.441 29.9092 46.9912 27.1475H50.7163C52.1415 27.1475 53.4672 26.3325 54.0933 25.0705L54.3936 24.4654C55.1955 22.8431 55.2028 20.9729 54.4113 19.335Z" fill="#FE7777"/>
</g>
<defs>
<clipPath id="clip0_609_2384">
<rect width="55" height="32" fill="white"/>
</clipPath>
</defs>
</svg>
