<svg width="402" height="734" viewBox="0 0 402 734" fill="none" xmlns="http://www.w3.org/2000/svg">
<g clip-path="url(#clip0_603_2365)">
<path d="M162.779 263.419L261.07 366.952L446.69 171.572C471.825 145.061 471.825 102.132 446.69 75.6695L394.036 20.2332C368.901 -6.22945 328.08 -6.22945 302.946 20.2332L75.1746 260.039C100.493 237.005 138.745 238.164 162.779 263.419ZM75.2205 473.961L302.946 713.67C328.08 740.133 368.901 740.133 394.036 713.67L446.69 658.234C471.825 631.771 471.825 588.794 446.69 562.331L261.116 366.952L162.779 470.484C138.745 495.74 100.493 496.899 75.2205 473.961Z" fill="#434343"/>
<path d="M18.9886 415.048L71.6887 470.484C72.8354 471.692 74.0279 472.851 75.2204 473.961C100.493 496.899 138.745 495.74 162.733 470.484L261.07 366.952L162.733 263.419C138.699 238.115 100.447 237.005 75.1287 259.991C73.9362 261.101 72.7436 262.212 71.597 263.419L18.9427 318.855C6.69641 331.7 0.412766 348.457 0.0916904 365.358C-0.275222 383.274 6.00844 401.334 18.9886 415.048Z" fill="black" fill-opacity="0.01"/>
</g>
<defs>
<clipPath id="clip0_603_2365">
<rect width="466" height="734" fill="white" transform="translate(466 734) rotate(180)"/>
</clipPath>
</defs>
</svg>
