<svg width="402" height="734" viewBox="0 0 402 734" fill="none" xmlns="http://www.w3.org/2000/svg">
<g clip-path="url(#clip0_603_2362)">
<path d="M239.221 470.581L140.93 367.048L-44.6904 562.428C-69.825 588.938 -69.825 631.868 -44.6904 658.331L7.96392 713.767C33.0986 740.229 73.9194 740.229 99.0541 713.767L326.825 473.961C301.507 496.995 263.255 495.836 239.221 470.581ZM326.779 260.039L99.0541 20.3299C73.9194 -6.13275 33.0986 -6.13275 7.96392 20.3299L-44.6904 75.7662C-69.825 102.229 -69.825 145.206 -44.6904 171.669L140.884 367.048L239.221 263.516C263.255 238.26 301.507 237.101 326.779 260.039Z" fill="#434343"/>
<path d="M383.011 318.952L330.311 263.516C329.165 262.308 327.972 261.149 326.78 260.039C301.507 237.101 263.255 238.26 239.267 263.516L140.93 367.048L239.267 470.581C263.301 495.885 301.553 496.995 326.871 474.009C328.064 472.899 329.256 471.788 330.403 470.581L383.057 415.145C395.304 402.3 401.587 385.543 401.908 368.642C402.275 350.726 395.992 332.666 383.011 318.952Z" fill="black" fill-opacity="0.01"/>
</g>
<defs>
<clipPath id="clip0_603_2362">
<rect width="466" height="734" fill="white" transform="translate(-64)"/>
</clipPath>
</defs>
</svg>
