<svg width="32" height="32" viewBox="0 0 32 32" fill="none" xmlns="http://www.w3.org/2000/svg">
<path d="M31.337 18.0839L28.1404 14.781C27.2564 13.8676 25.8232 13.8676 24.9392 14.781C24.0552 15.6944 24.0552 17.1753 24.9392 18.0887C24.0552 17.1753 22.6219 17.1753 21.7379 18.0887C20.8539 19.0021 20.8539 20.483 21.7379 21.3964C20.8538 20.4831 19.4207 20.4831 18.5367 21.3965C17.6527 22.3099 17.6527 23.7907 18.5366 24.7041C17.6526 23.7908 16.2194 23.7908 15.3354 24.7042C14.4514 25.6176 14.4514 27.0985 15.3354 28.0119L18.532 31.3148C19.416 32.2282 20.8492 32.2282 21.7332 31.3148C22.6172 30.4014 22.6172 28.9205 21.7332 28.0071C22.6172 28.9205 24.0505 28.9205 24.9345 28.0071C25.8185 27.0937 25.8185 25.6127 24.9345 24.6993C25.8185 25.6127 27.2517 25.6127 28.1357 24.6993C29.0197 23.7859 29.0197 22.3051 28.1358 21.3917C29.0198 22.305 30.453 22.305 31.337 21.3916C32.221 20.4782 32.221 18.9973 31.337 18.0839Z" fill="#FE7777"/>
<path d="M14.0097 23.3344C14.6002 22.7243 15.3264 22.3384 16.0887 22.1748C16.247 21.3872 16.6205 20.6368 17.211 20.0267C17.8015 19.4166 18.5276 19.0307 19.29 18.8671C19.4483 18.0794 19.8217 17.3291 20.4122 16.719C21.0028 16.1088 21.7289 15.723 22.4913 15.5594C22.6496 14.7717 23.023 14.0214 23.6135 13.4112C25.2271 11.7439 27.8528 11.7439 29.4664 13.4112L29.8573 13.8151C31.695 10.2877 31.2302 5.79855 28.3853 2.80138C25.4825 -0.256813 21.0421 -0.810706 17.5817 1.13886C17.6589 1.21403 17.735 1.28966 17.8086 1.36573L21.2404 4.91169C22.8541 6.57899 22.8541 9.29194 21.2404 10.9592C19.6268 12.6265 17.0012 12.6265 15.3875 10.9592L11.473 6.91454L0.663002 18.084C-0.221001 18.9974 -0.221001 20.4784 0.663002 21.3918C1.547 22.3052 2.9802 22.3052 3.8642 21.3918C2.98026 22.3052 2.98026 23.7861 3.86426 24.6995C4.74826 25.6129 6.18152 25.6129 7.06552 24.6995C6.18152 25.6129 6.18152 27.0938 7.06552 28.0072C7.94952 28.9206 9.38272 28.9206 10.2667 28.0073C9.38278 28.9207 9.38278 30.4015 10.2668 31.3149C11.1508 32.2283 12.584 32.2283 13.468 31.3149L14.6743 30.0686L14.0098 29.382C12.3961 27.7147 12.3961 25.0017 14.0097 23.3344Z" fill="#FE7777"/>
<path d="M10.1472 5.54456C10.8794 4.78795 12.0666 4.78795 12.7988 5.54456L16.7133 9.58926C16.7386 9.61535 16.7644 9.64054 16.7906 9.66514C17.6516 10.4756 18.9762 10.4756 19.8373 9.66514C19.8634 9.64054 19.8893 9.61535 19.9145 9.58926C19.9413 9.56156 19.9673 9.53327 19.9924 9.50453C20.7806 8.60534 20.7703 7.22103 19.9626 6.33384C19.9466 6.31634 19.931 6.29865 19.9144 6.28153L16.4826 2.73557C16.326 2.57374 16.1648 2.41959 15.9999 2.27216L16.0001 2.27209C12.4247 -0.924433 6.98403 -0.748262 3.61477 2.80131C0.769887 5.79848 0.305136 10.2877 2.14283 13.8151L10.1472 5.54456Z" fill="#FE7777"/>
</svg>
