<svg width="55" height="32" viewBox="0 0 55 32" fill="none" xmlns="http://www.w3.org/2000/svg">
<g clip-path="url(#clip0_609_2395)">
<path fill-rule="evenodd" clip-rule="evenodd" d="M1.35449 10.4649L3.13515 10.8917C3.24994 10.9472 3.34398 11.029 3.4062 11.1266L3.90152 12.6664C4.03175 12.872 4.26518 12.973 4.50102 12.973C4.73446 12.973 4.96982 12.872 5.10004 12.6664L5.59344 11.1266C5.65565 11.029 5.7497 10.9472 5.86497 10.8917L7.64515 10.4649C8.11828 10.2401 8.11828 9.65186 7.64515 9.42867L5.86497 8.99982C5.7497 8.946 5.65565 8.86465 5.59344 8.76537L5.09811 7.22682C4.96982 7.02157 4.73446 6.91895 4.4991 6.91895C4.26518 6.91895 4.02982 7.02157 3.8996 7.22682L3.4062 8.76537C3.34398 8.86465 3.24994 8.946 3.13515 8.99982L1.35449 9.42867C0.881836 9.65186 0.881836 10.2401 1.35449 10.4649Z" fill="#FE7777"/>
<path fill-rule="evenodd" clip-rule="evenodd" d="M36.5075 5.06479L39.0496 5.6754C39.2153 5.75315 39.3475 5.86916 39.4374 6.01082L40.1451 8.20982C40.3291 8.50251 40.6656 8.64865 41.0002 8.64865C41.3366 8.64865 41.6712 8.50251 41.8566 8.20982L42.5625 6.01082C42.6529 5.86916 42.787 5.75315 42.9503 5.67662L45.4928 5.06479C46.1691 4.74483 46.1691 3.90545 45.4928 3.58427L42.9503 2.97366C42.787 2.8955 42.651 2.77949 42.5625 2.63823L41.8548 0.438823C41.6712 0.146546 41.3348 0 41.0002 0C40.6637 0 40.3291 0.146546 40.1432 0.438823L39.4374 2.63823C39.3475 2.77949 39.2134 2.8955 39.0496 2.97366L36.5075 3.58427C35.8308 3.90382 35.8308 4.74483 36.5075 5.06479Z" fill="#FE7777"/>
<path fill-rule="evenodd" clip-rule="evenodd" d="M52.2787 24.3205L51.9788 24.8639C51.7444 25.2876 51.2496 25.5626 50.7153 25.5626H46.9902C46.44 23.0832 43.9675 21.2053 41.0057 21.2053C38.0434 21.2053 35.5695 23.0832 35.0211 25.5626H19.2293C18.6791 23.0832 16.2071 21.2053 13.2448 21.2053C10.283 21.2053 7.8105 23.0832 7.26029 25.5626H3.41297C2.8287 25.5626 2.35164 25.1417 2.35164 24.6236V19.4229C2.35164 18.9864 2.68513 18.6114 3.16445 18.5109L8.9268 17.2813C10.0186 17.0506 10.9768 16.4757 11.6301 15.6686L14.3098 12.3447C15.1244 11.3334 16.4483 10.7289 17.8522 10.7289H31.7181C32.9803 10.7289 34.1779 11.2128 35.0052 12.0557L38.2706 15.386C38.9807 16.11 39.9548 16.6156 41.0161 16.8118L49.5758 18.4008C50.1315 18.5029 51.136 19.3759 52.2877 21.5192C52.7684 22.416 52.7666 23.4382 52.2787 24.3205ZM41.0057 29.9199C38.938 29.9199 37.2556 28.4326 37.2556 26.6037C37.2556 24.7743 38.938 23.2858 41.0057 23.2858C43.0734 23.2858 44.7558 24.7743 44.7558 26.6037C44.7558 28.4326 43.0734 29.9199 41.0057 29.9199ZM13.2448 29.9199C11.1771 29.9199 9.49472 28.4326 9.49472 26.6037C9.49472 24.7743 11.1771 23.2858 13.2448 23.2858C15.3125 23.2858 16.9949 24.7743 16.9949 26.6037C16.9949 28.4326 15.3125 29.9199 13.2448 29.9199ZM54.4122 20.626C53.0224 18.043 51.599 16.6502 50.0588 16.3644L41.4991 14.7754C40.938 14.6717 40.4237 14.4048 40.047 14.0217L36.7817 10.6915C35.5073 9.39272 33.6618 8.64868 31.7181 8.64868H17.8522C15.6905 8.64868 13.6514 9.57802 12.3947 11.1356L9.71507 14.4599C9.39204 14.8602 8.91635 15.1444 8.3766 15.259L2.61425 16.487C1.07541 16.815 0 18.0225 0 19.4229V24.6236C0 26.2893 1.53157 27.6431 3.41297 27.6431H7.26029C7.8105 30.1237 10.283 32 13.2448 32C16.2071 32 18.6791 30.1237 19.2293 27.6431H35.0211C35.5695 30.1237 38.0434 32 41.0057 32C43.9675 32 46.44 30.1237 46.9902 27.6431H50.7153C52.1424 27.6431 53.4677 26.9112 54.0924 25.7776L54.3927 25.2342C55.1964 23.777 55.2019 22.0972 54.4122 20.626Z" fill="#FE7777"/>
</g>
<defs>
<clipPath id="clip0_609_2395">
<rect width="55" height="32" fill="white"/>
</clipPath>
</defs>
</svg>
