<svg width="45" height="32" viewBox="0 0 45 32" fill="none" xmlns="http://www.w3.org/2000/svg">
<g clip-path="url(#clip0_606_2374)">
<path fill-rule="evenodd" clip-rule="evenodd" d="M44.6799 16.342L42.1616 8.64868L0 19.1265L2.51961 26.8183C3.54433 29.9497 6.81447 32 10.3535 32C11.0816 32 11.8212 31.9131 12.5559 31.7309L39.127 25.1275C41.2124 24.6099 42.9393 23.409 43.9878 21.745C45.0314 20.0878 45.2788 18.1695 44.6799 16.342ZM40.9721 20.3033C40.3679 21.2588 39.3792 21.9482 38.1831 22.2457L11.612 28.8476C9.34287 29.413 6.97222 28.3783 6.04549 26.5136L13.1895 24.7385C13.4932 24.6623 13.6698 24.3871 13.5824 24.1211L12.954 22.1994C12.8666 21.9348 12.5493 21.7806 12.2435 21.8556L5.0568 23.6425L4.25179 21.1857L39.7962 12.3539L40.6012 14.8108L33.4128 16.5962C33.1091 16.6727 32.9321 16.9491 33.0182 17.214L33.6479 19.1354C33.734 19.4003 34.0513 19.5541 34.3571 19.478L41.5007 17.7029C41.6536 18.5971 41.477 19.5032 40.9721 20.3033Z" fill="#FE7777"/>
<path fill-rule="evenodd" clip-rule="evenodd" d="M1.27397 10.143L3.16185 11.1729C3.40494 11.3059 3.71986 11.2461 3.87774 11.029C5.72303 8.49276 9.22772 7.5579 12.2233 8.79981C12.4793 8.90699 12.7779 8.79981 12.9099 8.56903L13.9349 6.75994C14.0798 6.50648 13.9754 6.18417 13.6947 6.0633C9.17217 4.10284 3.82261 5.53172 1.08476 9.43231C0.916859 9.67247 1.00791 9.99791 1.27397 10.143Z" fill="#FE7777"/>
<path fill-rule="evenodd" clip-rule="evenodd" d="M23.2739 4.95279L25.1616 5.9844C25.4047 6.11584 25.7196 6.05755 25.8779 5.84082C27.7231 3.30385 31.2271 2.36887 34.2225 3.61134C34.4789 3.71814 34.7788 3.61134 34.9095 3.38053L35.9357 1.5712C36.0794 1.3173 35.9749 0.99495 35.696 0.874068C31.172 -1.08627 25.824 0.342418 23.0847 4.24235C22.9168 4.48373 23.0082 4.80765 23.2739 4.95279Z" fill="#FE7777"/>
</g>
<defs>
<clipPath id="clip0_606_2374">
<rect width="45" height="32" fill="white"/>
</clipPath>
</defs>
</svg>
