<svg width="40" height="40" viewBox="0 0 40 40" fill="none" xmlns="http://www.w3.org/2000/svg">
<path d="M16.7248 0.375385C9.7498 1.77539 3.7748 7.42539 1.6998 14.6254C0.874805 17.4754 0.874805 22.5004 1.6998 25.3254C3.6998 32.3004 8.9248 37.5254 15.7748 39.4004C17.9998 40.0254 22.9998 40.0254 25.2248 39.4004C34.3498 36.9004 40.4248 28.4504 39.9248 19.0004C39.4248 9.72539 33.0748 2.20039 24.1998 0.400387C21.9248 -0.0746117 18.9998 -0.0746117 16.7248 0.375385ZM23.8748 5.02539C27.2748 5.77539 31.3248 8.72539 33.1998 11.8254C34.0748 13.3004 35.2248 16.2754 35.2498 17.1504C35.2498 17.6254 35.1748 17.6504 33.3248 17.4504C30.8998 17.2004 29.2498 16.7254 26.5248 15.5004C23.3748 14.1254 22.5998 13.9004 20.3748 13.9254C18.6248 13.9254 18.0748 14.0504 16.1248 14.8754C12.1998 16.5254 9.9248 17.2254 7.8248 17.4254C5.3998 17.7004 5.4498 17.7504 6.2498 15.2254C7.5748 10.9004 11.3498 6.97539 15.5998 5.47539C18.3498 4.52539 20.8498 4.37539 23.8748 5.02539ZM22.3998 16.8754C23.9998 17.9254 24.4998 20.4254 23.4248 22.0254C21.3998 25.0504 16.9998 23.6504 16.9998 19.9754C16.9998 17.1254 20.0748 15.3504 22.3998 16.8754ZM14.0498 23.2504C15.2998 23.6004 16.4748 24.6254 17.0248 25.8754C17.4248 26.7004 17.4998 27.5504 17.4998 30.9504V35.0504L16.6998 34.8754C13.8998 34.3004 9.77481 31.2754 8.0248 28.5254C7.2248 27.3004 6.1998 24.9504 5.8998 23.6754L5.7498 23.0004H9.4248C11.4748 23.0004 13.5498 23.1254 14.0498 23.2504ZM35.0998 23.6754C34.1998 27.4254 31.2498 31.4004 27.9748 33.3254C26.9498 33.9504 24.2248 35.0004 23.6998 35.0004C23.3498 35.0004 23.4498 27.0754 23.8498 26.1504C24.2998 25.0754 25.8748 23.5504 26.8498 23.2754C27.2748 23.1504 29.3498 23.0254 31.4498 23.0254L35.2498 23.0004L35.0998 23.6754Z" fill="white"/>
</svg>
