<svg width="31" height="40" viewBox="0 0 31 40" fill="none" xmlns="http://www.w3.org/2000/svg">
<g clip-path="url(#clip0_2740_10033)">
<path d="M13.725 0.474995C13.4 0.724995 12.4 2.4 11.525 4.2C10.025 7.25 9.42502 8 8.52502 8C8.42502 8 8.00002 7.2 7.62502 6.225C6.52502 3.5 5.97502 3.325 2.97502 4.675C0.95002 5.575 0.80002 6.025 1.77502 8.5L2.57502 10.5L1.67502 11.5C-0.0249796 13.375 2.04082e-05 13.125 2.04082e-05 25.225V36.15L0.75002 37.325C1.17502 38 2.00002 38.825 2.67502 39.25L3.85002 40H15.5H27.15L28.325 39.25C29 38.825 29.825 38 30.25 37.325L31 36.15V19.775L30.975 3.375L30.4 2.25C30.1 1.625 29.475 0.874996 29 0.549995C28.2 0.0249977 28.025 -3.8147e-06 21.25 -3.8147e-06C14.825 -3.8147e-06 14.275 0.0249977 13.725 0.474995ZM26.975 2.6C26.925 2.65 24.75 3.775 22.175 5.1L17.45 7.525L15.375 7.45L13.275 7.375L14.425 4.925L15.575 2.5H21.325C24.5 2.5 27.025 2.55 26.975 2.6ZM27.35 6.9C27.425 7.125 27.5 13.8 27.5 21.775V36.25H15.45H3.42502L3.57502 29.55C3.67502 25.875 3.75002 21.075 3.75002 18.85C3.75002 16.025 3.85002 14.725 4.07502 14.425C4.25002 14.175 5.87502 13.375 7.72502 12.625L11.075 11.25H13.975C15.575 11.25 17.3 11.175 17.8 11.1C18.325 11 20.575 9.95 22.8 8.725C25.05 7.5 26.95 6.5 27.025 6.5C27.125 6.5 27.275 6.675 27.35 6.9Z" fill="white"/>
<path d="M15.175 16.8249C14.9 18.8499 14 20.6499 12.2 22.7749C10.15 25.1999 10 25.5249 10 27.5999C10 29.3999 10.55 30.4749 11.975 31.4249C14.85 33.3499 19.2 32.4999 20.65 29.6999C21.05 28.9499 21.125 26.3499 20.775 25.4499C20.65 25.1249 19.775 23.9499 18.8 22.7999C17 20.6749 16.1 18.8499 15.825 16.8249C15.75 16.2249 15.6 15.7499 15.5 15.7499C15.4 15.7499 15.25 16.2249 15.175 16.8249Z" fill="white"/>
</g>
<defs>
<clipPath id="clip0_2740_10033">
<rect width="31" height="40" fill="white"/>
</clipPath>
</defs>
</svg>
