<svg width="40" height="40" viewBox="0 0 40 40" fill="none" xmlns="http://www.w3.org/2000/svg">
<path d="M15.3748 6.47508C12.9998 7.07508 10.6498 8.12508 10.5498 8.60008C10.4998 8.82508 11.0998 10.2001 11.8748 11.6501C12.9748 13.6751 13.3998 14.2751 13.7248 14.1751C13.9498 14.1001 14.7998 13.8001 15.6248 13.5251C16.4498 13.2501 17.4248 12.9751 17.8248 12.8751C18.3998 12.7751 18.4998 12.6251 18.4998 11.9251C18.4748 10.7501 17.8748 6.65008 17.6498 6.30008C17.4248 5.95008 17.5498 5.92508 15.3748 6.47508Z" fill="white"/>
<path d="M21.475 6.05C21.35 6.75 20.85 12.425 20.9 12.55C20.95 12.625 21.475 12.775 22.05 12.875C22.625 12.975 23.7 13.275 24.475 13.525C25.225 13.8 25.925 14 26.05 14C26.4 14 29.075 8.225 28.825 7.975C28.25 7.4 21.575 5.625 21.475 6.05Z" fill="white"/>
<path d="M30.15 12.625C29.1 13.925 28.25 15.125 28.25 15.3C28.25 15.475 28.775 16.125 29.4 16.75C30.025 17.375 30.725 18.175 30.95 18.55C31.175 18.95 31.525 19.25 31.725 19.25C32.275 19.25 37.25 16.25 37.25 15.9C37.25 15.125 32.95 10.25 32.275 10.25C32.15 10.25 31.2 11.325 30.15 12.625Z" fill="white"/>
<path d="M5.7 11.925C4.275 13.4 2.5 15.925 2.5 16.5C2.5 16.775 3.4 17.4 5.075 18.325C6.5 19.125 7.775 19.75 7.925 19.75C8.075 19.75 8.725 19.025 9.375 18.125C10.05 17.225 10.675 16.5 10.775 16.5C10.9 16.5 11.1 16.275 11.25 16.025C11.475 15.6 11.2 15.2 9.45 13.2C8.35 11.925 7.3 10.85 7.15 10.8C7 10.775 6.35 11.275 5.7 11.925Z" fill="white"/>
<path d="M36.2497 20.2756C32.7247 21.3756 32.4747 21.5006 32.6247 21.9756C32.8997 22.8506 33.2497 25.1256 33.2497 26.0006V26.9506L35.5747 27.1256C36.8247 27.2256 38.3247 27.2506 38.8747 27.2006L39.8747 27.1256L39.9497 25.8756C40.0497 24.3756 39.3247 20.1256 38.9247 19.7756C38.7247 19.6256 37.8247 19.8006 36.2497 20.2756Z" fill="white"/>
<path d="M0.774791 20.7256C0.399791 21.4256 -0.0502089 24.5256 0.0497911 25.9006C0.124791 27.0506 0.174791 27.1256 0.874791 27.2006C1.29979 27.2506 2.74979 27.2256 4.14979 27.1256L6.67479 26.9506L6.87479 25.0506C7.19979 21.6006 7.44979 22.0256 4.62479 21.2256C3.24979 20.8506 1.87479 20.4756 1.57479 20.3756C1.19979 20.3006 0.949791 20.4006 0.774791 20.7256Z" fill="white"/>
<path d="M11.1497 20.4505C11.0747 20.5755 12.0247 22.5255 13.2247 24.8005C14.7747 27.7005 15.4747 29.2755 15.5497 30.1005C15.7247 31.5755 16.7247 32.9005 18.1997 33.5505C22.5747 35.5005 26.5747 29.9005 23.2997 26.4255C22.4497 25.5255 21.4747 25.0005 20.5997 25.0005C20.1997 25.0005 18.2997 24.0505 15.8747 22.6255C11.8997 20.2755 11.3997 20.0505 11.1497 20.4505Z" fill="white"/>
</svg>
