<svg width="40" height="40" viewBox="0 0 40 40" fill="none" xmlns="http://www.w3.org/2000/svg">
<path d="M11.1252 7.35C10.7002 7.525 9.45019 8.525 8.35019 9.575C7.22519 10.65 6.22519 11.5 6.15019 11.5C6.07519 11.5 6.00019 11.275 6.00019 11C6.00019 10.025 4.22519 9.675 2.65019 10.35C1.12519 10.975 1.30019 12.4 3.00019 13.4C3.40019 13.65 3.75019 13.925 3.75019 14C3.75019 14.075 3.22519 14.625 2.60019 15.25C1.97519 15.875 1.15019 16.925 0.800186 17.625C0.175186 18.8 0.125186 19.125 0.0501859 22.7C-0.0498141 26.4 -0.0248141 26.575 0.600186 27.85C0.975186 28.625 1.25019 29.6 1.25019 30.225C1.25019 31.4 1.77519 32.6 2.37519 32.85C2.60019 32.925 3.75019 33 4.90019 33C6.82519 33 7.07519 32.95 7.62519 32.375C7.97519 32.05 8.25019 31.475 8.25019 31.125V30.5H20.0002H31.7502V31.125C31.7502 31.475 32.0252 32.05 32.3752 32.375C32.9252 32.95 33.1752 33 35.1002 33C36.2502 33 37.4002 32.925 37.6252 32.85C38.2252 32.6 38.7502 31.4 38.7502 30.225C38.7502 29.6 39.0252 28.625 39.4002 27.85C40.0252 26.575 40.0502 26.4 39.9502 22.7C39.8752 19.075 39.8252 18.8 39.1752 17.525C38.7752 16.8 37.9502 15.7 37.3002 15.1C36.6752 14.5 36.2002 13.975 36.2752 13.925C36.3252 13.875 36.7502 13.575 37.2002 13.275C38.7752 12.175 38.8502 10.975 37.3502 10.35C35.7752 9.675 34.0002 10.025 34.0002 11C34.0002 11.275 33.9252 11.5 33.8502 11.5C33.7752 11.5 32.7752 10.65 31.6752 9.6C30.5502 8.55 29.2752 7.525 28.8252 7.35C27.6752 6.85 12.2252 6.85 11.1252 7.35ZM28.1502 9.325C28.4502 9.5 29.7752 10.675 31.1252 11.925L33.5502 14.25H20.0252H6.50019L8.90019 11.925C10.2252 10.675 11.5502 9.5 11.8252 9.325C12.6002 8.9 27.4002 8.9 28.1502 9.325ZM5.65019 18.25C7.32519 19.075 9.00019 20.5 9.00019 21.075C9.00019 21.8 7.95019 22.1 5.45019 22.125C3.15019 22.125 2.97519 22.1 2.35019 21.475C1.20019 20.325 1.60019 18.35 3.12519 17.725C3.90019 17.425 4.07519 17.45 5.65019 18.25ZM37.7252 18.35C38.5502 19.175 38.5252 20.6 37.6502 21.475C37.0252 22.1 36.8502 22.125 34.5502 22.125C32.0502 22.1 31.0002 21.8 31.0002 21.075C31.0002 20.025 35.2502 17.35 36.5002 17.65C36.8502 17.725 37.4002 18.05 37.7252 18.35ZM29.0752 21.3C28.8752 22.35 28.3002 23.525 27.7752 23.925C27.4752 24.15 25.4002 24.225 19.9752 24.25C12.6252 24.25 12.5752 24.25 12.0752 23.675C11.4252 22.975 11.1002 22.325 10.9252 21.3L10.7752 20.5H20.0002H29.2502L29.0752 21.3ZM8.52519 26.3C10.3002 28.375 10.3752 28.25 7.30019 28.25C4.87519 28.25 4.47519 28.175 3.72519 27.675C3.15019 27.3 2.85019 26.875 2.80019 26.4C2.65019 25.1 2.80019 25 5.20019 25H7.40019L8.52519 26.3ZM37.1252 26.125C37.1252 26.95 37.0002 27.2 36.2752 27.675C35.5252 28.175 35.1252 28.25 32.7002 28.25C29.6252 28.25 29.7002 28.375 31.4752 26.3L32.6002 24.975L34.8752 25.05L37.1252 25.125V26.125ZM28.5002 26.125C28.5002 26.6 27.7752 27.6 27.2252 27.9C26.3002 28.375 13.8752 28.425 12.8752 27.95C12.3252 27.7 11.5002 26.625 11.5002 26.125C11.5002 26.05 15.3252 26 20.0002 26C24.6752 26 28.5002 26.05 28.5002 26.125Z" fill="white"/>
</svg>
