<svg width="170" height="134" viewBox="0 0 170 134" fill="none" xmlns="http://www.w3.org/2000/svg">
<rect width="170" height="134" rx="4" fill="white"/>
<path d="M77.7911 97.4013C77.4059 97.3964 77.0253 97.4864 76.6831 97.6633C76.3409 97.8402 76.0476 98.0985 75.8291 98.4155C75.6107 98.7325 75.474 99.0982 75.4309 99.4804C75.3879 99.8626 75.4399 100.249 75.5824 100.607C76.1987 102.184 77.2716 103.543 78.6646 104.51C80.0576 105.476 81.7077 106.007 83.4046 106.034C85.1015 106.061 86.7685 105.583 88.1933 104.662C89.6181 103.74 90.7362 102.417 91.4052 100.859C91.5589 100.508 91.6236 100.124 91.5937 99.7414C91.5637 99.3591 91.4401 98.99 91.2335 98.6668C91.027 98.3436 90.7439 98.0761 90.4093 97.8879C90.0747 97.6997 89.6987 97.5965 89.3146 97.5876L77.7911 97.4013Z" fill="#FE7777"/>
<path d="M114.14 88.6946L110.315 80.4754C109.33 78.3105 108.843 75.9529 108.888 73.575L109.18 60.6841C109.255 55.1971 107.494 49.8435 104.174 45.4717C100.855 41.1 96.1678 37.9603 90.8558 36.5503C90.8994 36.3052 90.93 36.058 90.9473 35.8097C90.9604 35.0287 90.8193 34.2528 90.532 33.5264C90.2446 32.8 89.8167 32.1374 89.2726 31.5763C88.7286 31.0152 88.079 30.5666 87.3611 30.2562C86.6431 29.9458 85.8709 29.7796 85.0884 29.7672C84.3058 29.7547 83.5284 29.8962 82.8004 30.1836C82.0724 30.471 81.4082 30.8987 80.8456 31.4422C80.283 31.9857 79.8331 32.6344 79.5215 33.3512C79.2099 34.0681 79.0428 34.839 79.0297 35.6201C79.0283 35.8685 79.0475 36.1165 79.0873 36.3617C73.731 37.6003 68.9403 40.5866 65.4738 44.8478C62.0072 49.109 60.063 54.4015 59.9489 59.8873L59.7307 72.7736C59.6917 75.146 59.1203 77.4798 58.0586 79.6035L54.0028 87.7115C53.6065 88.5065 53.4181 89.3885 53.4553 90.2754C53.4925 91.1623 53.754 92.0252 54.2155 92.7836C54.6769 93.5421 55.3233 94.1715 56.0944 94.6132C56.8655 95.0549 57.7362 95.2945 58.6254 95.3096L109.307 96.1251C110.191 96.1326 111.063 95.9174 111.843 95.4991C112.622 95.0809 113.284 94.4733 113.766 93.7325C114.248 92.9917 114.535 92.1416 114.6 91.261C114.666 90.3804 114.508 89.4977 114.14 88.6946Z" fill="#FE7777"/>
<path d="M37.3641 91.0282C37.1118 91.0824 36.8499 91.0725 36.6026 90.9994C36.3552 90.9263 36.1302 90.7923 35.9483 90.6098C29.6428 84.4037 26.0674 75.9497 26.0086 67.1074C25.9497 58.2652 29.4122 49.7588 35.6344 43.4595C35.9262 43.1656 36.3229 42.9993 36.7373 42.9972C37.1517 42.9951 37.5498 43.1575 37.844 43.4485C38.1383 43.7395 38.3046 44.1353 38.3063 44.5489C38.308 44.9625 38.1451 45.36 37.8533 45.654C32.2234 51.3707 29.0954 59.0824 29.1566 67.0949C29.2177 75.1075 32.4629 82.7657 38.1793 88.387C38.4744 88.6765 38.6422 89.0712 38.6458 89.4843C38.6495 89.8974 38.4887 90.2952 38.1987 90.5904C37.9715 90.8175 37.6803 90.9702 37.3641 91.0282Z" fill="#FE7777"/>
<path d="M42.9449 85.3542C42.694 85.4045 42.4345 85.3924 42.1895 85.3191C41.9444 85.2457 41.7211 85.1134 41.5394 84.9337C36.7391 80.2054 34.0169 73.7671 33.9708 67.033C33.9247 60.2989 36.5584 53.8197 41.2934 49.0186C41.4378 48.8724 41.6095 48.756 41.7989 48.676C41.9883 48.596 42.1915 48.554 42.3971 48.5524C42.6027 48.5509 42.8065 48.5897 42.997 48.6667C43.1874 48.7438 43.3608 48.8575 43.5071 49.0015C43.6535 49.1454 43.77 49.3168 43.85 49.5057C43.93 49.6947 43.9719 49.8975 43.9733 50.1027C43.9748 50.3078 43.9357 50.5113 43.8583 50.7015C43.781 50.8917 43.6669 51.0648 43.5225 51.211C39.3651 55.4185 37.0511 61.1007 37.0895 67.0077C37.1279 72.9147 39.5157 78.5626 43.7275 82.7091C44.0225 82.9986 44.1903 83.3933 44.194 83.8064C44.1976 84.2196 44.0368 84.6174 43.7469 84.9125C43.5282 85.1344 43.2495 85.2879 42.9449 85.3542Z" fill="#FE7777"/>
<path d="M48.5373 79.6867C48.2875 79.7397 48.0285 79.73 47.7835 79.6583C47.5385 79.5867 47.3153 79.4555 47.1338 79.2764C45.4983 77.6675 44.197 75.7522 43.3043 73.6402C42.4116 71.5282 41.9451 69.2608 41.9314 66.9679C41.9177 64.675 42.3571 62.4016 43.2245 60.2777C44.092 58.1537 45.3703 56.2211 46.9865 54.5902C47.2801 54.3118 47.6704 54.158 48.0752 54.1612C48.48 54.1644 48.8676 54.3243 49.1564 54.6072C49.4452 54.8902 49.6125 55.274 49.6231 55.6779C49.6338 56.0818 49.4869 56.4742 49.2135 56.7724C47.8886 58.1135 46.8412 59.7019 46.1312 61.4466C45.4212 63.1914 45.0623 65.0584 45.0753 66.9411C45.0882 68.8237 45.4725 70.685 46.2064 72.4188C46.9403 74.1525 48.0094 75.7247 49.3525 77.0454C49.645 77.3363 49.8111 77.7305 49.8148 78.1428C49.8184 78.5551 49.6593 78.9524 49.3719 79.2488C49.1446 79.476 48.8535 79.6287 48.5373 79.6867Z" fill="#FE7777"/>
<path d="M129.996 91.5944C129.653 91.6642 129.298 91.6176 128.985 91.462C128.673 91.3064 128.422 91.0507 128.272 90.7358C128.123 90.4209 128.083 90.065 128.16 89.7249C128.237 89.3848 128.426 89.0801 128.697 88.8596C134.939 83.8124 138.92 76.4993 139.765 68.5277C140.61 60.5561 138.249 52.5785 133.202 46.3483C133.055 46.1919 132.943 46.007 132.871 45.8051C132.799 45.6032 132.77 45.3887 132.785 45.1749C132.8 44.9611 132.859 44.7527 132.958 44.5626C133.057 44.3726 133.195 44.205 133.362 44.0703C133.529 43.9355 133.722 43.8366 133.929 43.7797C134.136 43.7227 134.353 43.709 134.565 43.7393C134.778 43.7696 134.981 43.8433 135.164 43.9558C135.347 44.0683 135.504 44.2172 135.626 44.3932C138.384 47.7978 140.442 51.7118 141.683 55.9116C142.924 60.1114 143.323 64.5147 142.859 68.8701C142.395 73.2255 141.075 77.4476 138.976 81.2953C136.877 85.1429 134.039 88.5407 130.625 91.2945C130.439 91.4381 130.224 91.5404 129.996 91.5944Z" fill="#FE7777"/>
<path d="M124.99 85.4252C124.647 85.4951 124.292 85.4485 123.979 85.2929C123.667 85.1373 123.416 84.8816 123.266 84.5667C123.117 84.2518 123.077 83.8958 123.154 83.5557C123.231 83.2156 123.42 82.911 123.691 82.6904C125.971 80.8499 127.866 78.5789 129.268 76.0074C130.669 73.436 131.548 70.6144 131.857 67.7042C132.165 64.7939 131.895 61.8521 131.063 59.0468C130.231 56.2416 128.853 53.6281 127.008 51.3557C126.746 51.034 126.624 50.6217 126.668 50.2097C126.711 49.7977 126.917 49.4197 127.239 49.1588C127.562 48.8979 127.975 48.7755 128.388 48.8186C128.801 48.8616 129.179 49.0666 129.44 49.3884C131.543 51.9789 133.113 54.9582 134.061 58.1558C135.01 61.3535 135.317 64.7068 134.965 68.0241C134.614 71.3414 133.611 74.5575 132.014 77.4887C130.417 80.4199 128.257 83.0085 125.658 85.1068C125.465 85.2669 125.235 85.3764 124.99 85.4252Z" fill="#FE7777"/>
<path d="M119.98 79.2529C119.638 79.3178 119.285 79.2677 118.975 79.1103C118.664 78.9529 118.415 78.6972 118.267 78.3833C118.118 78.0693 118.077 77.7149 118.152 77.3755C118.227 77.0361 118.412 76.731 118.679 76.5079C120.147 75.3253 121.367 73.8655 122.269 72.2121C123.171 70.5588 123.738 68.7444 123.937 66.8727C124.135 65.0011 123.962 63.109 123.428 61.3047C122.893 59.5004 122.007 57.8194 120.82 56.3579C120.559 56.0361 120.437 55.6239 120.48 55.2119C120.524 54.7999 120.729 54.4218 121.052 54.1609C121.375 53.9 121.788 53.7777 122.2 53.8207C122.613 53.8638 122.992 54.0687 123.253 54.3905C126.162 57.9923 127.519 62.6 127.027 67.2023C126.535 71.8047 124.233 76.0256 120.628 78.9386C120.439 79.0913 120.217 79.1988 119.98 79.2529Z" fill="#FE7777"/>
</svg>
