<svg width="410" height="410" viewBox="0 0 410 410" fill="none" xmlns="http://www.w3.org/2000/svg">
<path d="M205 401.218C294.239 401.218 366.581 360.122 366.581 309.427C366.581 258.732 294.239 217.636 205 217.636C115.761 217.636 43.419 258.732 43.419 309.427C43.419 360.122 115.761 401.218 205 401.218Z" fill="#F5F5F5"/>
<path d="M272.24 367.303L151.626 297.66C150.565 297.049 149.684 296.169 149.071 295.108C148.458 294.048 148.136 292.845 148.136 291.621C148.136 290.396 148.458 289.193 149.071 288.133C149.684 287.073 150.565 286.193 151.626 285.581L163.524 278.078C165.578 276.895 167.907 276.273 170.277 276.273C172.647 276.273 174.976 276.895 177.03 278.078L297.66 347.729C298.721 348.341 299.602 349.221 300.215 350.281C300.828 351.341 301.15 352.544 301.15 353.769C301.15 354.993 300.828 356.196 300.215 357.256C299.602 358.316 298.721 359.197 297.66 359.808L285.762 367.303C283.707 368.492 281.375 369.118 279.001 369.118C276.627 369.118 274.295 368.492 272.24 367.303Z" fill="#E0E0E0"/>
<path d="M88.847 303.81C103.303 303.81 115.021 297.081 115.021 288.779C115.021 280.478 103.303 273.749 88.847 273.749C74.3913 273.749 62.6726 280.478 62.6726 288.779C62.6726 297.081 74.3913 303.81 88.847 303.81Z" fill="#E6E6E6"/>
<path d="M315.011 307.254L326.491 313.855C326.491 313.855 320.628 295.43 323.752 276.857C324.933 269.837 327.467 266.352 328.353 264.475C329.238 262.597 336.102 250.994 329.993 245.68C323.884 240.367 309.673 251.051 310.444 279.645C310.794 289.004 312.329 298.281 315.011 307.254Z" fill="#FE7777"/>
<path opacity="0.5" d="M315.011 307.254L326.491 313.855C326.491 313.855 320.628 295.43 323.752 276.857C324.933 269.837 327.467 266.352 328.353 264.475C329.238 262.597 336.102 250.994 329.993 245.68C323.884 240.367 309.673 251.051 310.444 279.645C310.794 289.004 312.329 298.281 315.011 307.254Z" fill="black"/>
<path d="M320.349 310.731C320.266 310.733 320.184 310.708 320.115 310.661C320.046 310.614 319.993 310.547 319.964 310.468C319.923 310.345 315.536 298.357 315.675 279.087C315.815 259.817 325.942 249.354 326.04 249.255C326.078 249.217 326.124 249.187 326.174 249.166C326.224 249.145 326.277 249.134 326.331 249.134C326.385 249.134 326.439 249.145 326.489 249.166C326.539 249.187 326.584 249.217 326.622 249.255C326.661 249.294 326.691 249.339 326.712 249.389C326.733 249.439 326.744 249.492 326.744 249.547C326.744 249.601 326.733 249.654 326.712 249.704C326.691 249.754 326.661 249.8 326.622 249.838C326.524 249.936 316.635 260.088 316.495 279.095C316.356 298.103 320.686 310.075 320.735 310.19C320.772 310.292 320.767 310.405 320.72 310.503C320.674 310.601 320.591 310.677 320.489 310.714C320.444 310.728 320.396 310.734 320.349 310.731Z" fill="white"/>
<path d="M319.8 310.075L335.495 319.095C337.13 320.062 339.07 320.376 340.927 319.977C342.784 319.577 344.422 318.492 345.515 316.938C346.554 315.322 346.992 313.392 346.753 311.485C345.999 303.334 342.457 301.457 346.794 297.824C351.132 294.192 352.264 293.937 352.018 290.444C351.772 286.951 349.386 285.426 348.254 284.048C347.122 282.67 343.99 279.784 346.122 275.52C348.254 271.256 351.165 267.132 346.753 265.246C344.121 264.114 339.734 265.623 336.848 268.755C333.961 271.888 331.583 274.142 328.82 274.897C326.057 275.651 320.3 275.774 320.546 280.538C320.792 285.303 322.055 286.935 320.923 289.058C318.791 293.027 309.517 295.282 319.8 310.075Z" fill="#FE7777"/>
<path d="M327.557 314.929C327.455 314.926 327.357 314.886 327.282 314.817C327.207 314.748 327.159 314.654 327.147 314.552C327.147 314.273 324.736 286.131 344.088 267.402C344.168 267.336 344.27 267.303 344.373 267.309C344.477 267.315 344.574 267.36 344.645 267.435C344.717 267.509 344.758 267.608 344.759 267.712C344.761 267.815 344.723 267.916 344.654 267.993C325.581 286.451 327.943 314.2 327.967 314.478C327.976 314.586 327.943 314.693 327.874 314.776C327.805 314.858 327.706 314.911 327.598 314.921L327.557 314.929Z" fill="white"/>
<path d="M330.665 290.706C330.562 290.707 330.462 290.668 330.386 290.598C330.31 290.528 330.263 290.432 330.255 290.329C330.083 288.148 329.469 286.025 328.45 284.09C327.43 282.154 326.027 280.446 324.326 279.071C324.282 279.04 324.244 279 324.215 278.954C324.186 278.909 324.167 278.857 324.158 278.804C324.148 278.751 324.15 278.696 324.162 278.643C324.174 278.591 324.197 278.541 324.228 278.497C324.258 278.453 324.297 278.415 324.342 278.386C324.387 278.357 324.437 278.338 324.49 278.328C324.543 278.319 324.597 278.321 324.649 278.333C324.701 278.345 324.75 278.367 324.794 278.398C326.607 279.836 328.101 281.634 329.182 283.68C330.263 285.725 330.908 287.972 331.075 290.28C331.084 290.39 331.05 290.499 330.979 290.583C330.908 290.667 330.807 290.721 330.698 290.731L330.665 290.706Z" fill="white"/>
<path d="M329.328 295.536C329.229 295.537 329.133 295.502 329.058 295.438C328.976 295.365 328.927 295.264 328.919 295.155C328.911 295.046 328.946 294.939 329.017 294.856C329.214 294.626 334.06 289.28 345.417 290.698C345.524 290.713 345.622 290.769 345.688 290.855C345.754 290.941 345.783 291.05 345.769 291.157C345.755 291.266 345.699 291.364 345.613 291.431C345.527 291.499 345.419 291.53 345.31 291.518C334.404 290.149 329.673 295.348 329.624 295.397C329.586 295.439 329.541 295.473 329.49 295.497C329.439 295.52 329.384 295.534 329.328 295.536Z" fill="white"/>
<path d="M268.566 358.98L162.491 297.734C155.005 293.412 148.937 281.818 148.937 271.838V44.6982C148.937 34.7188 155.005 30.135 162.491 34.4564L268.566 95.7022C276.053 100.024 282.121 111.618 282.121 121.598V348.738C282.121 358.709 276.053 363.301 268.566 358.98Z" fill="#455A64"/>
<path d="M280.784 88.56L174.701 27.3142C171.503 25.4692 168.567 25.256 166.247 26.3876C165.963 26.5299 165.689 26.6915 165.427 26.8714L153.537 33.784C155.931 32.349 159.064 32.4556 162.499 34.44L268.575 95.6858C276.061 100.007 282.129 111.602 282.129 121.581V348.721C282.129 354.002 280.432 357.741 277.726 359.513L289.46 352.682C292.453 351.091 294.38 347.196 294.38 341.612V114.472C294.38 104.476 288.271 92.8814 280.784 88.56Z" fill="#37474F"/>
<path d="M282.121 121.581V348.721C282.121 354.002 280.424 357.741 277.718 359.513L289.46 352.682C292.453 351.091 294.38 347.196 294.38 341.612V114.472L282.162 121.565L282.121 121.581Z" fill="#263238"/>
<path d="M294.339 132.094L282.121 139.146V144.656L294.339 137.596V132.094Z" fill="#37474F"/>
<path d="M288.984 168.74C287.894 169.371 287.008 168.699 287.008 167.247V155.398C287.019 154.657 287.204 153.93 287.547 153.273C287.89 152.617 288.383 152.05 288.984 151.618C290.075 150.987 290.961 151.618 290.961 153.11V164.959C290.95 165.7 290.765 166.428 290.422 167.084C290.079 167.741 289.586 168.308 288.984 168.74Z" fill="#37474F"/>
<path d="M287 167.28V155.398C287.011 154.657 287.196 153.93 287.539 153.273C287.882 152.617 288.374 152.05 288.976 151.618C289.156 151.492 289.366 151.415 289.584 151.395C289.803 151.375 290.023 151.412 290.223 151.503L288.738 150.741C288.535 150.643 288.31 150.601 288.086 150.618C287.861 150.635 287.645 150.711 287.459 150.839C286.857 151.271 286.364 151.838 286.019 152.494C285.674 153.15 285.488 153.878 285.475 154.619V166.46C285.444 166.759 285.49 167.061 285.607 167.338C285.725 167.615 285.911 167.857 286.147 168.043L287.697 168.863C287.45 168.685 287.256 168.444 287.133 168.166C287.011 167.888 286.965 167.582 287 167.28Z" fill="#455A64"/>
<path d="M288.984 197.415C287.894 198.046 287.008 197.415 287.008 195.923V184.074C287.02 183.333 287.205 182.605 287.548 181.949C287.891 181.293 288.383 180.726 288.984 180.293C290.075 179.662 290.961 180.293 290.961 181.794V193.635C290.951 194.376 290.767 195.104 290.424 195.761C290.08 196.417 289.587 196.984 288.984 197.415Z" fill="#37474F"/>
<path d="M287 195.923V184.074C287.012 183.333 287.197 182.605 287.54 181.949C287.883 181.293 288.375 180.726 288.976 180.293C289.157 180.17 289.366 180.094 289.585 180.074C289.803 180.054 290.022 180.09 290.223 180.179L288.738 179.408C288.537 179.306 288.311 179.261 288.085 179.278C287.86 179.296 287.643 179.374 287.459 179.506C286.855 179.937 286.361 180.503 286.016 181.16C285.672 181.816 285.486 182.545 285.475 183.286V195.16C285.443 195.459 285.488 195.761 285.606 196.038C285.724 196.315 285.91 196.558 286.147 196.743L287.697 197.563C287.44 197.381 287.239 197.131 287.116 196.841C286.993 196.552 286.953 196.234 287 195.923Z" fill="#455A64"/>
<path d="M264.86 102.074L160.622 41.8692C160.187 41.6189 159.694 41.4868 159.192 41.4858C158.69 41.4849 158.196 41.6152 157.76 41.8639C157.324 42.1125 156.961 42.4709 156.706 42.9033C156.452 43.3358 156.314 43.8273 156.308 44.3292V271.838C156.308 279.431 161.696 288.755 168.272 292.551L269.952 351.288C270.434 351.565 270.981 351.711 271.537 351.711C272.094 351.71 272.64 351.564 273.122 351.285C273.604 351.007 274.004 350.607 274.282 350.125C274.561 349.644 274.708 349.097 274.708 348.541V119.154C274.749 112.889 270.305 105.206 264.86 102.074Z" fill="#FE7777"/>
<path opacity="0.9" d="M264.86 102.074L160.622 41.8692C160.187 41.6189 159.694 41.4868 159.192 41.4858C158.69 41.4849 158.196 41.6152 157.76 41.8639C157.324 42.1125 156.961 42.4709 156.706 42.9033C156.452 43.3358 156.314 43.8273 156.308 44.3292V271.838C156.308 279.431 161.696 288.755 168.272 292.551L269.952 351.288C270.434 351.565 270.981 351.711 271.537 351.711C272.094 351.71 272.64 351.564 273.122 351.285C273.604 351.007 274.004 350.607 274.282 350.125C274.561 349.644 274.708 349.097 274.708 348.541V119.154C274.749 112.889 270.305 105.206 264.86 102.074Z" fill="white"/>
<path d="M191.798 57.5886L193.413 64.3864L227.968 84.3124L233.938 81.1308L191.798 57.5886Z" fill="#455A64"/>
<path d="M201.958 64.1567C201.958 65.2883 201.138 65.7393 200.187 65.1817C199.676 64.8427 199.252 64.3887 198.949 63.8561C198.645 63.3234 198.471 62.7271 198.44 62.115C198.44 60.9916 199.26 60.5324 200.211 61.0982C200.722 61.4354 201.146 61.8879 201.449 62.4192C201.753 62.9505 201.927 63.5457 201.958 64.1567Z" fill="#263238"/>
<path d="M225.238 78.5478C225.049 78.5463 224.863 78.4984 224.696 78.4084L207.05 68.5684C206.801 68.4221 206.619 68.1841 206.543 67.9054C206.467 67.6266 206.502 67.3292 206.643 67.0766C206.783 66.8239 207.016 66.6362 207.293 66.5533C207.57 66.4705 207.868 66.4991 208.124 66.6332L225.779 76.4732C225.993 76.5925 226.162 76.7797 226.259 77.0055C226.355 77.2312 226.374 77.4826 226.312 77.7202C226.25 77.9578 226.111 78.168 225.916 78.3179C225.722 78.4677 225.483 78.5485 225.238 78.5478Z" fill="#263238"/>
<path d="M178.17 89.216C177.095 88.5928 176.316 89.134 176.316 90.5034C176.316 91.1882 176.486 91.8624 176.809 92.4661C177.132 93.0697 177.6 93.5842 178.17 93.9638C178.475 94.1491 178.825 94.2471 179.182 94.2471C179.539 94.2471 179.89 94.1491 180.195 93.9638L181.909 97.0634C181.306 97.3961 180.622 97.5546 179.935 97.5213C179.247 97.488 178.582 97.2641 178.014 96.8748C176.622 96.0229 175.461 94.841 174.634 93.4337C173.807 92.0263 173.34 90.4368 173.274 88.806C173.274 85.7638 175.316 84.706 178.129 86.346C179.717 87.3688 181.018 88.78 181.909 90.446L180.195 91.8072C179.772 90.7728 179.071 89.8759 178.17 89.216Z" fill="#FE7777"/>
<path d="M191.773 99.4905C191.773 102.557 189.699 103.591 186.853 101.951C185.421 101.095 184.223 99.8984 183.365 98.4678C182.506 97.0373 182.015 95.4168 181.933 93.7505C181.933 90.6837 184.008 89.6505 186.853 91.2905C188.289 92.1424 189.49 93.3378 190.349 94.7692C191.208 96.2006 191.697 97.823 191.773 99.4905ZM184.976 95.5791C184.99 96.2832 185.171 96.9737 185.505 97.5939C185.839 98.2141 186.315 98.7461 186.894 99.1461C187.911 99.7365 188.731 99.1461 188.731 97.7521C188.728 97.0639 188.56 96.3865 188.24 95.7771C187.921 95.1677 187.459 94.6441 186.894 94.2507C185.861 93.6521 184.976 94.1605 184.976 95.5791Z" fill="#FE7777"/>
<path d="M195.078 96.2351L198.62 103.615V98.3015L201.302 99.8513V110.192L198.842 108.765L195.316 101.45V106.731L192.618 105.173V94.8083L195.078 96.2351Z" fill="#FE7777"/>
<path d="M210.068 104.886V107.592L207.509 106.116V113.759L204.549 112.045V104.402L202.007 102.935V100.237L210.068 104.886Z" fill="#FE7777"/>
<path d="M215.84 117.104L212.478 115.161L212.019 116.358L208.985 114.603L212.765 106.444L215.808 108.199L219.448 120.647L216.291 118.826L215.84 117.104ZM215.111 114.234L214.192 110.7L213.249 113.16L215.111 114.234Z" fill="#FE7777"/>
<path d="M224.147 115.759C223.073 115.144 222.294 115.677 222.294 117.055C222.295 117.74 222.465 118.413 222.788 119.017C223.111 119.62 223.578 120.135 224.147 120.515C224.454 120.699 224.806 120.796 225.164 120.796C225.522 120.796 225.873 120.699 226.181 120.515L227.894 123.615C227.289 123.944 226.605 124.1 225.916 124.067C225.228 124.034 224.562 123.812 223.991 123.426C222.598 122.574 221.436 121.391 220.609 119.982C219.783 118.573 219.316 116.982 219.252 115.349C219.252 112.307 221.302 111.249 224.106 112.889C225.692 113.917 226.995 115.327 227.894 116.989L226.181 118.342C225.749 117.313 225.046 116.421 224.147 115.759Z" fill="#FE7777"/>
<path d="M235.98 119.851V122.549L233.421 121.073V128.74L230.461 127.026V119.384L227.919 117.916V115.218L235.98 119.851Z" fill="#FE7777"/>
<path d="M244.729 132.545C245.459 132.963 246.016 132.635 246.016 131.61V125.649L248.985 127.354V133.316C248.985 136.063 247.345 136.883 244.721 135.382C243.457 134.68 242.394 133.665 241.634 132.435C240.875 131.204 240.444 129.799 240.383 128.355V122.393L243.351 124.107V130.068C243.363 130.562 243.494 131.045 243.734 131.477C243.974 131.908 244.316 132.275 244.729 132.545Z" fill="#FE7777"/>
<path d="M253.765 132.578C253.429 132.389 253.216 132.381 253.216 132.692C253.216 133.988 257.849 135.858 257.849 139.605C257.849 141.901 256.102 141.909 254.085 140.745C252.312 139.658 250.785 138.214 249.6 136.505L250.699 134.57C251.6 135.966 252.758 137.179 254.11 138.145C254.544 138.4 254.823 138.4 254.823 138.031C254.823 136.686 250.182 134.898 250.182 131.266C250.182 129.199 251.691 128.806 254.02 130.118C255.52 131.025 256.84 132.201 257.915 133.586L256.84 135.571C255.953 134.441 254.919 133.434 253.765 132.578Z" fill="#FE7777"/>
<path d="M163.254 140.171C166.581 136.084 168.256 130.9 167.948 125.639C167.64 120.378 165.371 115.424 161.59 111.754C157.809 108.084 152.79 105.964 147.522 105.813C142.255 105.662 137.122 107.49 133.137 110.938C129.151 114.385 126.602 119.201 125.993 124.435C125.384 129.669 126.759 134.942 129.846 139.212C132.934 143.483 137.509 146.441 142.671 147.503C147.832 148.566 153.204 147.655 157.727 144.951L167.993 149.412L163.254 140.171Z" fill="#FE7777"/>
<path opacity="0.4" d="M163.254 140.171C166.581 136.084 168.256 130.9 167.948 125.639C167.64 120.378 165.371 115.424 161.59 111.754C157.809 108.084 152.79 105.964 147.522 105.813C142.255 105.662 137.122 107.49 133.137 110.938C129.151 114.385 126.602 119.201 125.993 124.435C125.384 129.669 126.759 134.942 129.846 139.212C132.934 143.483 137.509 146.441 142.671 147.503C147.832 148.566 153.204 147.655 157.727 144.951L167.993 149.412L163.254 140.171Z" fill="black"/>
<path d="M139.113 125.739C139.113 125.419 138.883 125.239 138.465 125.239C137.495 125.366 136.589 125.793 135.874 126.46L134.71 124.197C135.935 123.275 137.416 122.754 138.949 122.705C140.917 122.705 142.409 123.738 142.409 125.28C142.409 126.378 141.589 127.436 140.54 128.494L139.072 129.945H142.541V132.356H135.087V130.38L138.408 126.944C138.765 126.628 139.012 126.206 139.113 125.739Z" fill="white"/>
<path d="M148.609 122.844L146.345 128.273H147.272V126.444H150.126V128.273H151.208V130.511H150.126V132.356H147.272V130.511H143.213V128.478L145.673 122.844H148.609Z" fill="white"/>
<path d="M160.015 127.625V132.356H156.964V128.502C156.982 128.377 156.972 128.249 156.936 128.127C156.9 128.006 156.839 127.894 156.756 127.798C156.672 127.702 156.57 127.626 156.454 127.573C156.339 127.521 156.214 127.494 156.087 127.494C155.488 127.494 155.111 127.961 155.111 128.683V132.356H152.061V122.303H155.111V126.001C155.35 125.624 155.682 125.315 156.076 125.105C156.47 124.896 156.912 124.792 157.358 124.804C157.724 124.795 158.087 124.862 158.425 125.003C158.762 125.144 159.066 125.354 159.317 125.62C159.568 125.887 159.76 126.203 159.88 126.548C160 126.894 160.046 127.26 160.015 127.625Z" fill="white"/>
<path d="M259.481 203.819V305.704C259.483 306.857 259.181 307.989 258.606 308.988C258.03 309.986 257.203 310.816 256.205 311.393C255.207 311.97 254.076 312.273 252.923 312.274C251.771 312.274 250.639 311.971 249.641 311.395L194.766 279.71L185.041 274.101C181.692 272.165 178.91 269.384 176.974 266.035C175.037 262.687 174.013 258.888 174.004 255.02V153.127C174.002 151.974 174.304 150.842 174.879 149.843C175.454 148.845 176.282 148.015 177.28 147.438C178.277 146.862 179.409 146.558 180.562 146.557C181.714 146.557 182.846 146.86 183.844 147.436L248.46 184.738C251.81 186.671 254.593 189.452 256.527 192.802C258.462 196.151 259.48 199.951 259.481 203.819Z" fill="#FE7777"/>
<path opacity="0.5" d="M259.481 203.819V305.704C259.483 306.857 259.181 307.989 258.606 308.988C258.03 309.986 257.203 310.816 256.205 311.393C255.207 311.97 254.076 312.273 252.923 312.274C251.771 312.274 250.639 311.971 249.641 311.395L194.766 279.71L185.041 274.101C181.692 272.165 178.91 269.384 176.974 266.035C175.037 262.687 174.013 258.888 174.004 255.02V153.127C174.002 151.974 174.304 150.842 174.879 149.843C175.454 148.845 176.282 148.015 177.28 147.438C178.277 146.862 179.409 146.558 180.562 146.557C181.714 146.557 182.846 146.86 183.844 147.436L248.46 184.738C251.81 186.671 254.593 189.452 256.527 192.802C258.462 196.151 259.48 199.951 259.481 203.819Z" fill="white"/>
<path d="M227.87 264.106C227.87 264.106 238.144 281.145 230.723 300.358L194.742 279.71L227.87 264.106Z" fill="#263238"/>
<path d="M244.255 187.548C245.033 181.233 240.544 175.483 234.229 174.706C227.914 173.928 222.164 178.417 221.386 184.732C220.609 191.047 225.098 196.797 231.413 197.575C237.728 198.352 243.478 193.863 244.255 187.548Z" fill="#263238"/>
<path d="M232.88 153.824C232.88 153.824 236.414 148.084 237.497 148.502C238.579 148.92 236.791 154.39 236.791 154.39C236.791 154.39 242.138 155.505 241.146 156.85C240.153 158.194 233.618 157.875 233.618 157.875L232.88 153.824Z" fill="#263238"/>
<path d="M235.34 168.617C232.88 187.099 217.3 187.099 217.3 187.099L184.664 172.733C184.664 172.733 182.204 170.576 181.45 165.624C181.16 163.595 181.16 161.535 181.45 159.506C181.45 159.506 181.45 159.465 181.45 159.449C182.491 151.675 188.305 143.32 200.966 140.753C203.74 140.193 206.565 139.918 209.395 139.933C210.765 139.928 212.133 139.997 213.495 140.138C223.335 141.106 230.231 145.698 233.52 152.84C234.259 154.452 234.81 156.144 235.16 157.883C235.827 161.425 235.888 165.054 235.34 168.617Z" fill="#263238"/>
<path d="M156.989 204.369C156.989 204.369 145.402 203.967 140.942 215.258C140.942 215.258 145.862 218.579 152.315 215.258C158.768 211.937 156.989 204.369 156.989 204.369Z" fill="#FE7777"/>
<path opacity="0.5" d="M156.989 204.369C156.989 204.369 145.402 203.967 140.942 215.258C140.942 215.258 145.862 218.579 152.315 215.258C158.768 211.937 156.989 204.369 156.989 204.369Z" fill="black"/>
<path d="M156.661 209.805C156.661 209.805 153.381 195.554 151.651 195.381C149.921 195.209 149.584 199.727 149.724 202.278L145.624 193.454C145.494 193.18 145.309 192.936 145.081 192.736C144.852 192.536 144.586 192.384 144.297 192.292C144.008 192.199 143.703 192.166 143.401 192.195C143.099 192.224 142.806 192.315 142.541 192.462C138.441 194.717 131.249 201.572 146.411 218.522L156.661 209.805Z" fill="#945959"/>
<path d="M198.645 199.949L196.185 199.629C193.706 199.3 191.184 199.637 188.878 200.606C186.572 201.574 184.566 203.139 183.065 205.139L168.428 224.623L156.948 204.369C156.948 204.369 155.57 218.145 140.901 215.258L156.653 241.769C157.65 243.447 159.037 244.86 160.697 245.887C162.358 246.913 164.241 247.524 166.188 247.667C168.135 247.809 170.087 247.479 171.879 246.705C173.671 245.931 175.25 244.735 176.48 243.22L189.961 226.648L198.645 199.949Z" fill="#FE7777"/>
<path d="M229.887 245.418C226.607 253.733 226.246 255.356 228.247 259.514C229.64 262.584 230.739 265.78 231.527 269.058C231.527 269.058 216.324 286.098 194.684 279.718L184.959 274.11C182.937 272.943 181.115 271.459 179.564 269.714L182.524 247.64C182.673 246.478 182.555 245.297 182.179 244.188L179.072 235.078C177.555 230.628 177.329 225.84 178.421 221.267C179.512 216.695 181.875 212.525 185.238 209.239L195.685 199.03L223.122 202.54L227.222 203.713C229.906 204.489 232.22 206.208 233.738 208.553C235.257 210.899 235.878 213.713 235.488 216.48C234.143 226.156 231.945 240.194 229.887 245.418Z" fill="#FE7777"/>
<path opacity="0.5" d="M229.887 245.418C226.607 253.733 226.246 255.356 228.247 259.514C229.64 262.584 230.739 265.78 231.527 269.058C231.527 269.058 216.324 286.098 194.684 279.718L184.959 274.11C182.937 272.943 181.115 271.459 179.564 269.714L182.524 247.64C182.673 246.478 182.555 245.297 182.179 244.188L179.072 235.078C177.555 230.628 177.329 225.84 178.421 221.267C179.512 216.695 181.875 212.525 185.238 209.239L195.685 199.03L223.122 202.54L227.222 203.713C229.906 204.489 232.22 206.208 233.738 208.553C235.257 210.899 235.878 213.713 235.488 216.48C234.143 226.156 231.945 240.194 229.887 245.418Z" fill="black"/>
<path d="M213.339 220.58L207.845 215.898C207.264 215.4 206.562 215.063 205.81 214.919C205.058 214.775 204.281 214.83 203.557 215.078L196.915 217.366L196.021 213.643C195.882 213.064 195.626 212.519 195.27 212.041C194.915 211.563 194.466 211.162 193.951 210.863C193.436 210.563 192.865 210.371 192.274 210.298C191.683 210.224 191.083 210.272 190.511 210.437L187.632 211.257L192.503 201.925C194.094 198.886 196.543 196.382 199.547 194.725L201.458 193.676L217.243 194.496C217.243 194.496 223.122 196.956 223.122 202.491L213.339 220.531" fill="#FE7777"/>
<path d="M217.308 201.49L201.482 213.823V174.553H217.308V201.49Z" fill="#945959"/>
<path d="M201.728 198.251L196.915 217.398L217.243 201.49L201.728 198.251Z" fill="#945959"/>
<path d="M201.482 195.406C205.001 194.099 208.218 192.091 210.937 189.503C213.656 186.915 215.821 183.801 217.3 180.351V174.553H201.474L201.482 195.406Z" fill="#703838"/>
<path d="M204.893 145.452C198.891 145.452 186.132 148.797 184.656 164.508C183.18 180.22 184.607 192.388 192.708 193.569C200.81 194.75 219.637 188.871 222.163 168.535C224.688 148.199 210.74 145.452 204.893 145.452Z" fill="#945959"/>
<path d="M195.447 171.159V180.416L190.019 178.752L195.447 171.159Z" fill="#703838"/>
<path d="M201.482 174.644C202.524 174.644 203.368 173.799 203.368 172.758C203.368 171.716 202.524 170.872 201.482 170.872C200.441 170.872 199.596 171.716 199.596 172.758C199.596 173.799 200.441 174.644 201.482 174.644Z" fill="#263238"/>
<path d="M190.953 171.446C190.952 171.818 190.84 172.182 190.632 172.491C190.423 172.8 190.128 173.041 189.783 173.182C189.439 173.324 189.06 173.36 188.694 173.286C188.329 173.212 187.994 173.032 187.731 172.768C187.468 172.504 187.289 172.168 187.217 171.802C187.145 171.437 187.183 171.058 187.326 170.714C187.469 170.37 187.71 170.076 188.02 169.869C188.33 169.662 188.695 169.551 189.067 169.551C189.316 169.551 189.562 169.6 189.791 169.696C190.02 169.791 190.229 169.931 190.404 170.107C190.579 170.283 190.718 170.492 190.812 170.721C190.907 170.951 190.954 171.197 190.953 171.446Z" fill="#263238"/>
<path d="M186.763 167.51L190.453 165.32C190.453 165.32 189.043 163.852 187.632 164.73C186.222 165.607 186.763 167.51 186.763 167.51Z" fill="#263238"/>
<path d="M192.897 184.172C194.694 184.303 196.482 183.824 197.973 182.811C197.973 182.811 198.325 185.492 196.078 186.001C193.832 186.509 192.897 184.172 192.897 184.172Z" fill="#703838"/>
<path d="M189.674 150.798C189.674 150.798 191.929 172.487 221.425 173.168C221.425 173.168 230.338 151.61 212.724 144.607C195.111 137.604 189.674 150.798 189.674 150.798Z" fill="#263238"/>
<path d="M230.108 169.92L226.484 167.821C225.106 167.001 223.204 167.116 221.097 168.33C216.915 170.74 213.52 176.62 213.52 181.45C213.52 183.869 214.34 185.55 215.75 186.37L219.309 188.42L219.514 188.534L219.637 188.608C220.982 189.264 222.778 189.108 224.754 187.969C228.936 185.509 232.331 179.678 232.331 174.849C232.306 172.405 231.461 170.716 230.108 169.92Z" fill="#FE7777"/>
<path d="M230.08 182.271C233.037 177.149 233.037 171.613 230.08 169.905C227.123 168.198 222.328 170.966 219.371 176.088C216.414 181.211 216.414 186.747 219.371 188.454C222.328 190.162 227.122 187.393 230.08 182.271Z" fill="#FE7777"/>
<path opacity="0.5" d="M230.08 182.271C233.037 177.149 233.037 171.613 230.08 169.905C227.123 168.198 222.328 170.966 219.371 176.088C216.414 181.211 216.414 186.747 219.371 188.454C222.328 190.162 227.122 187.393 230.08 182.271Z" fill="black"/>
<path d="M231.56 174.471L229.1 173.036C228.165 172.479 226.861 172.553 225.418 173.381C223.91 174.366 222.656 175.692 221.756 177.252C220.855 178.812 220.335 180.562 220.236 182.36C220.236 184 220.818 185.172 221.761 185.714L224.221 187.116C224.264 187.148 224.311 187.175 224.36 187.198L224.442 187.247C225.019 187.466 225.64 187.54 226.252 187.462C226.864 187.385 227.448 187.159 227.952 186.804C229.458 185.82 230.712 184.495 231.612 182.937C232.513 181.378 233.034 179.63 233.134 177.833C233.069 176.169 232.495 175.013 231.56 174.471Z" fill="#FE7777"/>
<path d="M233.069 177.817C232.968 179.614 232.447 181.362 231.547 182.92C230.647 184.479 229.393 185.803 227.886 186.788C225.016 188.428 222.696 187.099 222.696 183.795C222.793 181.996 223.314 180.246 224.216 178.687C225.118 177.128 226.375 175.805 227.886 174.824C230.748 173.168 233.069 174.504 233.069 177.817Z" fill="#FE7777"/>
<path opacity="0.3" d="M233.069 177.817C232.968 179.614 232.447 181.362 231.547 182.92C230.647 184.479 229.393 185.803 227.886 186.788C225.016 188.428 222.696 187.099 222.696 183.795C222.793 181.996 223.314 180.246 224.216 178.687C225.118 177.128 226.375 175.805 227.886 174.824C230.748 173.168 233.069 174.504 233.069 177.817Z" fill="black"/>
<path d="M218.85 141.22C216.499 139.405 213.62 138.406 210.65 138.375H209.92C206.912 138.343 203.909 138.617 200.957 139.195C201.499 139.195 202.04 139.195 202.597 139.195H200.957V140.72H202.483C207.739 140.899 212.72 143.115 216.373 146.899C220.025 150.683 222.063 155.739 222.056 160.999V167.452C222.056 167.707 222.109 167.96 222.213 168.193C222.316 168.426 222.468 168.635 222.657 168.806C222.847 168.976 223.07 169.106 223.312 169.185C223.555 169.264 223.811 169.291 224.065 169.264H224.254L225.894 168.756C225.784 168.79 225.672 168.812 225.557 168.822C226.046 168.755 226.494 168.511 226.814 168.136C227.135 167.761 227.306 167.281 227.296 166.788V160.802C227.279 149.97 222.597 144.148 218.85 141.22Z" fill="#FE7777"/>
<path d="M208.526 193.118C207.85 193.118 207.181 192.973 206.566 192.692L201.441 190.322C201.361 190.293 201.288 190.248 201.226 190.19C201.164 190.131 201.115 190.061 201.082 189.982C201.049 189.904 201.032 189.819 201.033 189.734C201.034 189.649 201.053 189.565 201.089 189.488C201.124 189.41 201.175 189.341 201.238 189.284C201.302 189.228 201.376 189.185 201.457 189.158C201.538 189.132 201.624 189.122 201.709 189.131C201.793 189.139 201.875 189.165 201.95 189.207L207.075 191.577C207.728 191.881 208.46 191.973 209.169 191.841C209.878 191.708 210.527 191.358 211.027 190.839L215.947 185.755C216.062 185.639 216.219 185.575 216.382 185.575C216.545 185.575 216.701 185.639 216.816 185.755C216.929 185.871 216.993 186.027 216.993 186.189C216.993 186.351 216.929 186.507 216.816 186.624L211.896 191.708C211.458 192.157 210.934 192.514 210.355 192.757C209.776 192.999 209.154 193.122 208.526 193.118Z" fill="#FE7777"/>
<path opacity="0.5" d="M208.526 193.118C207.85 193.118 207.181 192.973 206.566 192.692L201.441 190.322C201.361 190.293 201.288 190.248 201.226 190.19C201.164 190.131 201.115 190.061 201.082 189.982C201.049 189.904 201.032 189.819 201.033 189.734C201.034 189.649 201.053 189.565 201.089 189.488C201.124 189.41 201.175 189.341 201.238 189.284C201.302 189.228 201.376 189.185 201.457 189.158C201.538 189.132 201.624 189.122 201.709 189.131C201.793 189.139 201.875 189.165 201.95 189.207L207.075 191.577C207.728 191.881 208.46 191.973 209.169 191.841C209.878 191.708 210.527 191.358 211.027 190.839L215.947 185.755C216.062 185.639 216.219 185.575 216.382 185.575C216.545 185.575 216.701 185.639 216.816 185.755C216.929 185.871 216.993 186.027 216.993 186.189C216.993 186.351 216.929 186.507 216.816 186.624L211.896 191.708C211.458 192.157 210.934 192.514 210.355 192.757C209.776 192.999 209.154 193.122 208.526 193.118Z" fill="black"/>
<path d="M202.786 188.6C202.786 189.074 202.646 189.536 202.382 189.93C202.119 190.324 201.745 190.631 201.308 190.812C200.87 190.993 200.389 191.041 199.924 190.948C199.46 190.856 199.033 190.628 198.698 190.293C198.364 189.958 198.136 189.532 198.043 189.067C197.951 188.603 197.998 188.121 198.179 187.684C198.361 187.246 198.668 186.872 199.061 186.609C199.455 186.346 199.918 186.206 200.392 186.206C201.027 186.206 201.636 186.458 202.085 186.907C202.534 187.356 202.786 187.965 202.786 188.6Z" fill="#FE7777"/>
<path opacity="0.5" d="M202.786 188.6C202.786 189.074 202.646 189.536 202.382 189.93C202.119 190.324 201.745 190.631 201.308 190.812C200.87 190.993 200.389 191.041 199.924 190.948C199.46 190.856 199.033 190.628 198.698 190.293C198.364 189.958 198.136 189.532 198.043 189.067C197.951 188.603 197.998 188.121 198.179 187.684C198.361 187.246 198.668 186.872 199.061 186.609C199.455 186.346 199.918 186.206 200.392 186.206C201.027 186.206 201.636 186.458 202.085 186.907C202.534 187.356 202.786 187.965 202.786 188.6Z" fill="black"/>
<path d="M227.279 160.802V166.788C227.29 167.281 227.119 167.761 226.798 168.136C226.477 168.511 226.03 168.755 225.541 168.822C225.271 168.85 224.998 168.822 224.739 168.738C224.481 168.654 224.243 168.517 224.041 168.335C223.839 168.154 223.678 167.931 223.568 167.683C223.457 167.435 223.4 167.166 223.401 166.895V160.802C223.405 157.894 222.822 155.016 221.685 152.339C220.548 149.663 218.882 147.244 216.786 145.229C214.69 143.213 212.208 141.643 209.489 140.611C206.77 139.58 203.871 139.109 200.966 139.228C203.917 138.65 206.921 138.375 209.928 138.408H210.642C213.612 138.438 216.491 139.438 218.842 141.253C222.597 144.148 227.279 149.97 227.279 160.802Z" fill="#FE7777"/>
<path opacity="0.5" d="M227.279 160.802V166.788C227.29 167.281 227.119 167.761 226.798 168.136C226.477 168.511 226.03 168.755 225.541 168.822C225.271 168.85 224.998 168.822 224.739 168.738C224.481 168.654 224.243 168.517 224.041 168.335C223.839 168.154 223.678 167.931 223.568 167.683C223.457 167.435 223.4 167.166 223.401 166.895V160.802C223.405 157.894 222.822 155.016 221.685 152.339C220.548 149.663 218.882 147.244 216.786 145.229C214.69 143.213 212.208 141.643 209.489 140.611C206.77 139.58 203.871 139.109 200.966 139.228C203.917 138.65 206.921 138.375 209.928 138.408H210.642C213.612 138.438 216.491 139.438 218.842 141.253C222.597 144.148 227.279 149.97 227.279 160.802Z" fill="black"/>
<path d="M218.063 273.609C218.063 273.609 214.094 284.54 228.28 289.46C228.28 289.46 232.913 282.654 228.28 277.086C223.647 271.518 218.063 273.609 218.063 273.609Z" fill="#FE7777"/>
<path opacity="0.7" d="M218.063 273.609C218.063 273.609 214.094 284.54 228.28 289.46C228.28 289.46 232.913 282.654 228.28 277.086C223.647 271.518 218.063 273.609 218.063 273.609Z" fill="black"/>
<path d="M223.04 274.11C223.04 274.11 209.182 279.185 209.256 281.153C209.33 283.121 215.143 281.777 215.143 281.777L213.02 283.171C210.783 284.63 209.051 286.743 208.059 289.222C207.842 289.769 207.835 290.376 208.037 290.928C208.24 291.48 208.639 291.938 209.157 292.215L214.422 295.003C214.719 295.161 215.045 295.257 215.38 295.287C215.715 295.317 216.053 295.279 216.374 295.175C216.694 295.072 216.99 294.906 217.245 294.686C217.5 294.466 217.708 294.198 217.858 293.896C218.151 293.316 218.557 292.8 219.051 292.378C219.545 291.956 220.117 291.636 220.736 291.436C223.598 290.485 228.936 287.746 231.076 280.251L223.04 274.11Z" fill="#945959"/>
<path d="M227.197 203.696C227.197 203.696 219.817 207.796 223.737 220.244C227.657 232.691 235.012 252.002 235.012 252.002L218.063 273.609C219.873 273.828 221.618 274.426 223.182 275.364C224.746 276.302 226.095 277.559 227.14 279.054C228.141 280.574 228.767 282.31 228.965 284.12C229.163 285.929 228.928 287.759 228.28 289.46L249.321 262.4C251.267 259.899 252.559 256.953 253.08 253.828C253.601 250.702 253.335 247.496 252.306 244.499L243.286 218.161C242.183 214.944 240.351 212.025 237.933 209.634C235.514 207.242 232.575 205.443 229.346 204.377L227.197 203.696Z" fill="#FE7777"/>
<path d="M102.623 130.167L70.0116 111.307C69.6363 111.047 69.2021 110.884 68.7483 110.834C68.2944 110.784 67.8352 110.848 67.4122 111.02C67.3231 111.061 67.2379 111.11 67.158 111.168L60.065 115.325H60.1142C59.2204 115.833 58.6546 117.014 58.6546 118.703V154.98C58.6546 158.047 60.516 161.614 62.8202 162.942L95.4316 181.802C95.8454 182.102 96.3379 182.273 96.8481 182.295C97.3583 182.317 97.8637 182.188 98.3016 181.925C98.2794 181.934 98.2597 181.948 98.2442 181.966L105.288 177.866C106.206 177.374 106.789 176.177 106.789 174.463V138.129C106.789 135.062 104.96 131.495 102.623 130.167Z" fill="#FE7777"/>
<path d="M105.624 133.603C104.964 132.2 103.925 131.009 102.623 130.167L70.0116 111.307C69.6363 111.047 69.2021 110.884 68.7482 110.834C68.2944 110.784 67.8352 110.848 67.4122 111.02C67.3231 111.061 67.2379 111.11 67.158 111.168L60.065 115.325C60.4989 115.103 60.9854 115.005 61.4713 115.041C61.9573 115.077 62.4239 115.246 62.8202 115.53L95.4316 134.39C96.7776 135.27 97.8444 136.516 98.5066 137.982L105.624 133.603Z" fill="#FE7777"/>
<path d="M99.5972 178.612C99.5972 180.252 99.0724 181.392 98.2442 181.892L105.288 177.792C106.206 177.3 106.789 176.103 106.789 174.389V138.129C106.754 136.551 106.355 135.002 105.624 133.603L98.5066 137.981C99.19 139.339 99.5625 140.832 99.5972 142.352V178.612Z" fill="#FE7777"/>
<path opacity="0.3" d="M105.624 133.603C104.964 132.2 103.925 131.009 102.623 130.167L70.0116 111.307C69.6363 111.047 69.2021 110.884 68.7482 110.834C68.2944 110.784 67.8352 110.848 67.4122 111.02C67.3231 111.061 67.2379 111.11 67.158 111.168L60.065 115.325C60.4989 115.103 60.9854 115.005 61.4713 115.041C61.9573 115.077 62.4239 115.246 62.8202 115.53L95.4316 134.39C96.7776 135.27 97.8444 136.516 98.5066 137.982L105.624 133.603Z" fill="black"/>
<path opacity="0.6" d="M99.5972 178.612C99.5972 180.252 99.0724 181.392 98.2442 181.892L105.288 177.792C106.206 177.3 106.789 176.103 106.789 174.389V138.129C106.754 136.551 106.355 135.002 105.624 133.603L98.5066 137.981C99.19 139.339 99.5625 140.832 99.5972 142.352V178.612Z" fill="black"/>
<path d="M90.036 152.742C90.036 157.44 88.1746 159.039 85.3866 157.424C84.6175 156.986 83.945 156.397 83.4095 155.692C82.874 154.988 82.4866 154.182 82.2706 153.324C81.4506 154.332 80.1796 154.398 78.392 153.365C75.4564 151.667 73.144 147.625 73.144 143.697C73.144 139.769 75.4318 138.416 78.392 140.122C79.8941 141.007 81.1075 142.309 81.8852 143.869V142.319L84.9766 144.107V152.602C84.9306 153.049 85.0079 153.5 85.2001 153.906C85.3924 154.313 85.6923 154.658 86.0672 154.906C87.1086 155.513 87.7482 154.488 87.7482 151.446C87.7482 146.124 84.337 140.483 79.294 137.572C74.251 134.661 70.848 136.686 70.848 142.163C70.9141 145.07 71.715 147.913 73.1761 150.426C74.6371 152.94 76.7108 155.042 79.2038 156.538C80.5574 157.372 82.0945 157.862 83.681 157.965L84.4108 160.794C82.5635 160.645 80.7785 160.057 79.2038 159.08C72.6438 155.284 68.306 147.641 68.306 140.72C68.306 133.8 72.6848 131.29 79.294 135.112C85.6818 138.793 90.036 146.165 90.036 152.742ZM81.9344 148.797C81.9503 147.758 81.6966 146.731 81.198 145.819C80.6993 144.906 79.9727 144.138 79.089 143.59C77.449 142.631 76.2764 143.303 76.2764 145.534C76.2553 146.575 76.5031 147.605 76.9957 148.522C77.4884 149.44 78.2093 150.216 79.089 150.774C80.729 151.7 81.9344 151.102 81.9344 148.797Z" fill="#FE7777"/>
<g opacity="0.9">
<path d="M90.036 152.742C90.036 157.44 88.1746 159.039 85.3866 157.424C84.6175 156.986 83.945 156.397 83.4095 155.692C82.874 154.988 82.4866 154.182 82.2706 153.324C81.4506 154.332 80.1796 154.398 78.392 153.365C75.4564 151.667 73.144 147.625 73.144 143.697C73.144 139.769 75.4318 138.416 78.392 140.122C79.8941 141.007 81.1075 142.309 81.8852 143.869V142.319L84.9766 144.107V152.602C84.9306 153.049 85.0079 153.5 85.2001 153.906C85.3924 154.313 85.6923 154.658 86.0672 154.906C87.1086 155.513 87.7482 154.488 87.7482 151.446C87.7482 146.124 84.337 140.483 79.294 137.572C74.251 134.661 70.848 136.686 70.848 142.163C70.9141 145.07 71.715 147.913 73.1761 150.426C74.6371 152.94 76.7108 155.042 79.2038 156.538C80.5574 157.372 82.0945 157.862 83.681 157.965L84.4108 160.794C82.5635 160.645 80.7785 160.057 79.2038 159.08C72.6438 155.284 68.306 147.641 68.306 140.72C68.306 133.8 72.6848 131.29 79.294 135.112C85.6818 138.793 90.036 146.165 90.036 152.742ZM81.9344 148.797C81.9503 147.758 81.6966 146.731 81.198 145.819C80.6993 144.906 79.9727 144.138 79.089 143.59C77.449 142.631 76.2764 143.303 76.2764 145.534C76.2553 146.575 76.5031 147.605 76.9957 148.522C77.4884 149.44 78.2093 150.216 79.089 150.774C80.729 151.7 81.9344 151.102 81.9344 148.797Z" fill="white"/>
</g>
<path d="M102.623 194.766L70.0116 175.906C69.6368 175.645 69.2021 175.482 68.7477 175.433C68.2933 175.385 67.8339 175.451 67.4122 175.628C67.3231 175.669 67.2379 175.718 67.158 175.775L60.065 179.933H60.1142C59.2204 180.441 58.6546 181.622 58.6546 183.303V219.563C58.6546 222.638 60.516 226.197 62.8202 227.525L95.4316 246.385C95.8445 246.687 96.3373 246.859 96.848 246.881C97.3587 246.903 97.8644 246.773 98.3016 246.508L98.2442 246.558L105.288 242.417C106.206 241.933 106.789 240.777 106.789 239.014V202.72C106.789 199.654 104.96 196.095 102.623 194.766Z" fill="#FE7777"/>
<path d="M105.624 198.202C104.967 196.798 103.926 195.607 102.623 194.766L70.0116 175.906C69.6368 175.645 69.2021 175.482 68.7477 175.433C68.2933 175.385 67.8339 175.451 67.4122 175.628C67.3231 175.669 67.2379 175.718 67.158 175.775L60.065 179.933C60.4979 179.709 60.9842 179.609 61.4703 179.643C61.9564 179.678 62.4235 179.846 62.8202 180.129L95.4316 198.989C96.7797 199.871 97.8469 201.12 98.5066 202.589L105.624 198.202Z" fill="#FE7777"/>
<path d="M99.5972 243.204C99.5972 244.844 99.0724 245.984 98.2442 246.525L105.288 242.384C106.206 241.9 106.789 240.744 106.789 238.981V202.72C106.754 201.145 106.355 199.598 105.624 198.202L98.5066 202.581C99.1898 203.936 99.5624 205.426 99.5972 206.943V243.204Z" fill="#FE7777"/>
<path opacity="0.3" d="M105.624 198.202C104.967 196.798 103.926 195.607 102.623 194.766L70.0116 175.906C69.6368 175.645 69.2021 175.482 68.7477 175.433C68.2933 175.385 67.8339 175.451 67.4122 175.628C67.3231 175.669 67.2379 175.718 67.158 175.775L60.065 179.933C60.4979 179.709 60.9842 179.609 61.4703 179.643C61.9564 179.678 62.4235 179.846 62.8202 180.129L95.4316 198.989C96.7797 199.871 97.8469 201.12 98.5066 202.589L105.624 198.202Z" fill="black"/>
<path opacity="0.6" d="M99.5972 243.204C99.5972 244.844 99.0724 245.984 98.2442 246.525L105.288 242.384C106.206 241.9 106.789 240.744 106.789 238.981V202.72C106.754 201.145 106.355 199.598 105.624 198.202L98.5066 202.581C99.1898 203.936 99.5624 205.426 99.5972 206.943V243.204Z" fill="black"/>
<path d="M75.481 210.978L67.6172 198.202V215.512L75.481 210.978Z" fill="#FE7777"/>
<path d="M82.7872 214.66L90.6346 228.247V210.961L82.7872 214.66Z" fill="#FE7777"/>
<path d="M68.8062 197.62L76.8832 210.74C76.9174 210.769 76.9477 210.802 76.9734 210.839C76.9805 210.871 76.9805 210.904 76.9734 210.937L79.376 214.84L81.4096 213.881C81.4413 213.846 81.4771 213.816 81.5162 213.791C81.5964 213.744 81.6861 213.716 81.7786 213.709L89.9786 209.863L68.8062 197.62Z" fill="#FE7777"/>
<path d="M81.5982 215.217L79.4006 216.25C79.3159 216.29 79.2234 216.309 79.13 216.308C79.0168 216.309 78.9052 216.281 78.8061 216.226C78.707 216.172 78.6236 216.093 78.5642 215.996L76.1616 212.093L68.2732 216.652L89.503 228.903L81.5982 215.217Z" fill="#FE7777"/>
<g opacity="0.9">
<path d="M75.481 210.978L67.6172 198.202V215.512L75.481 210.978Z" fill="white"/>
<path d="M82.7872 214.66L90.6346 228.247V210.962L82.7872 214.66Z" fill="white"/>
<path d="M68.8062 197.62L76.8832 210.74C76.9174 210.769 76.9477 210.802 76.9734 210.839C76.9805 210.871 76.9805 210.904 76.9734 210.937L79.376 214.84L81.4096 213.881C81.4413 213.846 81.4771 213.816 81.5162 213.791C81.5964 213.744 81.6861 213.716 81.7786 213.709L89.9786 209.863L68.8062 197.62Z" fill="white"/>
<path d="M81.5982 215.217L79.4006 216.251C79.3159 216.29 79.2234 216.31 79.13 216.308C79.0168 216.309 78.9052 216.281 78.8061 216.227C78.707 216.172 78.6236 216.093 78.5642 215.996L76.1616 212.093L68.2732 216.652L89.503 228.903L81.5982 215.217Z" fill="white"/>
</g>
<path d="M102.623 65.6L70.0116 46.74C69.6368 46.4785 69.2021 46.3158 68.7477 46.2671C68.2933 46.2183 67.8339 46.2851 67.4122 46.4612C67.3231 46.5024 67.2379 46.5518 67.158 46.6088L60.065 50.7662H60.1142C59.2204 51.2664 58.6546 52.4554 58.6546 54.1364V90.3968C58.6546 93.4636 60.516 97.0306 62.8202 98.359L95.4316 117.219C95.8445 117.52 96.3373 117.693 96.848 117.715C97.3587 117.737 97.8644 117.607 98.3016 117.342L98.2442 117.383L105.288 113.283C106.206 112.799 106.789 111.643 106.789 109.88V73.5294C106.789 70.4626 104.96 66.8956 102.623 65.6Z" fill="#FE7777"/>
<path d="M105.624 69.0113C104.967 67.6044 103.927 66.4109 102.623 65.5672L70.0116 46.74C69.6368 46.4785 69.2021 46.3158 68.7477 46.2671C68.2933 46.2183 67.8339 46.2851 67.4122 46.4612C67.3231 46.5024 67.2379 46.5518 67.158 46.6088L60.065 50.7662C60.4979 50.5424 60.9842 50.4423 61.4703 50.477C61.9564 50.5118 62.4235 50.6799 62.8202 50.9631L95.4316 69.823C96.7797 70.7043 97.8469 71.9536 98.5066 73.4228L105.624 69.0113Z" fill="#FE7777"/>
<path d="M99.5972 113.98C99.5972 115.62 99.0724 116.76 98.2442 117.26L105.288 113.16C106.206 112.676 106.789 111.52 106.789 109.757V73.5294C106.754 71.9537 106.355 70.4074 105.624 69.0112L98.5066 73.39C99.1898 74.745 99.5624 76.2353 99.5972 77.7524V113.98Z" fill="#FE7777"/>
<path opacity="0.3" d="M105.624 69.0113C104.967 67.6044 103.927 66.4109 102.623 65.5672L70.0116 46.74C69.6368 46.4785 69.2021 46.3158 68.7477 46.2671C68.2933 46.2183 67.8339 46.2851 67.4122 46.4612C67.3231 46.5024 67.2379 46.5518 67.158 46.6088L60.065 50.7662C60.4979 50.5424 60.9842 50.4423 61.4703 50.477C61.9564 50.5118 62.4235 50.6799 62.8202 50.9631L95.4316 69.823C96.7797 70.7043 97.8469 71.9536 98.5066 73.4228L105.624 69.0113Z" fill="black"/>
<path opacity="0.6" d="M99.5972 113.98C99.5972 115.62 99.0724 116.76 98.2442 117.26L105.288 113.16C106.206 112.676 106.789 111.52 106.789 109.757V73.5294C106.754 71.9537 106.355 70.4074 105.624 69.0112L98.5066 73.39C99.1898 74.745 99.5624 76.2353 99.5972 77.7524V113.98Z" fill="black"/>
<path d="M88.929 98.4C87.6744 96.3336 86.4116 94.3 85.157 92.2172C84.958 91.8227 84.6798 91.4735 84.3398 91.1913C83.9998 90.9091 83.6052 90.7001 83.1808 90.5772C82.574 90.4542 81.9672 90.3148 81.344 90.1344C81.1221 90.0419 80.9354 89.881 80.811 89.6752C78.7581 86.1616 77.1259 82.4185 75.9484 78.5232C75.9234 78.4399 75.9162 78.3523 75.9276 78.2661C75.9389 78.1799 75.9683 78.097 76.014 78.023C76.3994 77.6376 76.834 77.285 77.2276 76.9406C77.6212 76.5962 77.8262 75.8008 77.5392 74.7676C76.9324 72.5782 76.3502 70.3888 75.7434 68.2076C75.626 67.5879 75.3474 67.01 74.9357 66.532C74.524 66.0541 73.9938 65.6931 73.3982 65.4852C72.0759 65.1176 70.672 65.1691 69.3802 65.6328C68.88 65.8214 68.6176 66.2724 68.6094 67.0514C68.8226 68.552 68.962 70.0362 69.249 71.5614C71.2717 82.5603 76.137 92.6737 83.845 101.901C84.0462 102.207 84.3166 102.462 84.6342 102.644C84.9518 102.826 85.3079 102.932 85.6736 102.951C86.9497 102.921 88.1757 102.448 89.1422 101.614C89.872 100.958 89.7982 99.794 88.929 98.4Z" fill="#FE7777"/>
<path d="M88.8306 87.2234C88.6591 84.8648 88.009 82.5658 86.92 80.4666C86.1069 78.8267 85.0722 77.3064 83.845 75.9484C83.5252 75.5876 83.2546 75.4728 83.0906 75.7434C82.9266 76.014 83.0906 76.3994 83.4022 76.752L83.722 77.121C85.9885 79.7373 87.4168 82.974 87.822 86.4116C87.818 86.6624 87.8428 86.9127 87.8958 87.1578C87.9988 87.4398 88.1642 87.6949 88.3796 87.904C88.5518 88.027 88.7486 87.904 88.888 87.904C88.8388 87.5678 88.847 87.3956 88.8306 87.2234Z" fill="#FE7777"/>
<path d="M81.4014 80.4913C82.4311 81.6239 83.0568 83.0656 83.1808 84.5913C83.2348 84.8232 83.3203 85.0467 83.435 85.2555C83.9352 85.6655 84.1812 85.5261 84.1812 85.0095C84.0059 83.0533 83.1968 81.2077 81.877 79.7533C81.5654 79.4335 81.3112 79.3351 81.1636 79.6057C81.1105 79.7602 81.1048 79.927 81.1471 80.0848C81.1895 80.2426 81.2781 80.3841 81.4014 80.4913Z" fill="#FE7777"/>
<g opacity="0.9">
<path d="M88.929 98.4C87.6744 96.3336 86.4116 94.3 85.157 92.2172C84.958 91.8227 84.6798 91.4735 84.3398 91.1913C83.9998 90.9091 83.6052 90.7001 83.1808 90.5772C82.574 90.4542 81.9672 90.3148 81.344 90.1344C81.1221 90.0419 80.9354 89.881 80.811 89.6752C78.7581 86.1616 77.1259 82.4185 75.9484 78.5232C75.9234 78.4399 75.9162 78.3523 75.9276 78.2661C75.9389 78.1799 75.9683 78.097 76.014 78.023C76.3994 77.6376 76.834 77.285 77.2276 76.9406C77.6212 76.5962 77.8262 75.8008 77.5392 74.7676C76.9324 72.5782 76.3502 70.3888 75.7434 68.2076C75.626 67.5879 75.3474 67.01 74.9357 66.532C74.524 66.0541 73.9938 65.6931 73.3982 65.4852C72.0759 65.1176 70.672 65.1691 69.3802 65.6328C68.88 65.8214 68.6176 66.2724 68.6094 67.0514C68.8226 68.552 68.962 70.0362 69.249 71.5614C71.2717 82.5603 76.137 92.6737 83.845 101.901C84.0462 102.207 84.3166 102.462 84.6342 102.644C84.9518 102.826 85.3079 102.932 85.6736 102.951C86.9497 102.921 88.1757 102.448 89.1422 101.614C89.872 100.958 89.7982 99.794 88.929 98.4Z" fill="white"/>
<path d="M88.8306 87.2234C88.6591 84.8648 88.009 82.5658 86.92 80.4666C86.1069 78.8267 85.0723 77.3064 83.845 75.9484C83.5252 75.5876 83.2546 75.4728 83.0906 75.7434C82.9266 76.014 83.0906 76.3994 83.4022 76.752L83.722 77.121C85.9885 79.7373 87.4169 82.974 87.822 86.4116C87.818 86.6624 87.8428 86.9127 87.8958 87.1578C87.9988 87.4398 88.1642 87.6949 88.3796 87.904C88.5518 88.027 88.7486 87.904 88.888 87.904C88.8388 87.5678 88.847 87.3956 88.8306 87.2234Z" fill="white"/>
<path d="M81.4014 80.4913C82.4311 81.6239 83.0568 83.0656 83.1808 84.5913C83.2348 84.8232 83.3203 85.0467 83.435 85.2555C83.9352 85.6655 84.1812 85.5261 84.1812 85.0095C84.0059 83.0533 83.1968 81.2077 81.877 79.7533C81.5654 79.4335 81.3112 79.3351 81.1636 79.6057C81.1105 79.7602 81.1048 79.927 81.1471 80.0848C81.1895 80.2426 81.2781 80.3841 81.4014 80.4913Z" fill="white"/>
</g>
<path d="M269.944 43.8536L277.627 48.2242V45.5018C277.627 45.3132 277.627 45.1164 277.627 44.9278C277.627 44.7392 277.627 44.5588 277.627 44.3784V44.28C277.906 40.6802 280.637 39.2944 283.966 41.2214C285.473 42.1485 286.765 43.387 287.754 44.854C288.501 39.934 292.494 38.1956 297.324 40.9754C302.687 44.075 307.033 51.6354 307.033 57.8018V63.6238C307.025 64.0895 307.14 64.5491 307.366 64.9564C307.592 65.3637 307.921 65.7044 308.32 65.9444L312.846 68.593C313.823 69.1722 314.633 69.9951 315.197 70.9811C315.76 71.9671 316.058 73.0825 316.061 74.2182C316.061 74.6894 315.937 75.1522 315.701 75.5602C315.466 75.9682 315.127 76.3069 314.718 76.5422C314.31 76.7774 313.847 76.901 313.376 76.9004C312.905 76.8998 312.442 76.7751 312.035 76.5388L270.059 52.275C268.945 51.6283 268.02 50.7015 267.376 49.5866C266.731 48.4718 266.39 47.2077 266.385 45.92C266.385 45.5032 266.494 45.0936 266.702 44.7323C266.91 44.3709 267.209 44.0706 267.569 43.8613C267.93 43.652 268.339 43.5411 268.756 43.5397C269.172 43.5384 269.582 43.6466 269.944 43.8536Z" fill="#E6E6E6"/>
<path d="M328.517 42.7138L334.101 45.92V43.9192C334.101 43.7798 334.101 43.6404 334.101 43.501C334.101 43.3616 334.101 43.2304 334.101 43.0992V43.05C334.306 40.4342 336.29 39.4256 338.709 40.8278C339.805 41.499 340.744 42.3964 341.464 43.46C342.014 39.9012 344.917 38.6138 348.426 40.6392C352.329 42.8942 355.486 48.3718 355.486 52.8736V57.113C355.489 57.4453 355.579 57.7712 355.745 58.0587C355.912 58.3462 356.151 58.5854 356.438 58.753L359.718 60.68C360.431 61.0997 361.023 61.6991 361.433 62.4184C361.843 63.1378 362.057 63.952 362.055 64.78C362.054 65.1191 361.965 65.4523 361.797 65.7466C361.628 66.0409 361.386 66.2862 361.094 66.4584C360.802 66.6305 360.47 66.7236 360.13 66.7284C359.791 66.7331 359.457 66.6495 359.16 66.4856L328.599 48.8392C327.789 48.3707 327.116 47.6976 326.649 46.8874C326.181 46.0771 325.934 45.1582 325.934 44.2226C325.933 43.9198 326.012 43.6221 326.162 43.3594C326.313 43.0966 326.53 42.878 326.791 42.7252C327.053 42.5725 327.35 42.4911 327.652 42.4891C327.955 42.4871 328.253 42.5645 328.517 42.7138Z" fill="#E6E6E6"/>
</svg>
