<svg width="300" height="300" viewBox="0 0 300 300" fill="none" xmlns="http://www.w3.org/2000/svg">
<path d="M300 229.439H0V229.589H300V229.439Z" fill="#EBEBEB"/>
<path d="M269.94 239.094H250.068V239.244H269.94V239.094Z" fill="#EBEBEB"/>
<path d="M180.864 239.172H175.65V239.322H180.864V239.172Z" fill="#EBEBEB"/>
<path d="M249.462 233.525H212.598V233.675H249.462V233.525Z" fill="#EBEBEB"/>
<path d="M135.085 237.066H127.471V237.216H135.085V237.066Z" fill="#EBEBEB"/>
<path d="M122.129 237.066H100.031V237.216H122.129V237.066Z" fill="#EBEBEB"/>
<path d="M46.7346 234.533H31.4766V234.683H46.7346V234.533Z" fill="#EBEBEB"/>
<path d="M95.268 234.533H50.334V234.683H95.268V234.533Z" fill="#EBEBEB"/>
<path d="M142.2 202.68H26.3458C25.4382 202.678 24.5683 202.317 23.9271 201.674C23.2859 201.032 22.9258 200.162 22.9258 199.254V36.396C22.9337 35.4936 23.2973 34.6308 23.9376 33.9949C24.578 33.3591 25.4434 33.0015 26.3458 33H142.2C143.108 33 143.98 33.361 144.622 34.0035C145.265 34.646 145.626 35.5174 145.626 36.426V199.254C145.626 200.163 145.265 201.034 144.622 201.677C143.98 202.319 143.108 202.68 142.2 202.68ZM26.3458 33.12C25.478 33.1216 24.6462 33.4674 24.0332 34.0816C23.4201 34.6958 23.0758 35.5282 23.0758 36.396V199.254C23.0758 200.122 23.4201 200.954 24.0332 201.568C24.6462 202.183 25.478 202.528 26.3458 202.53H142.2C143.068 202.528 143.9 202.183 144.515 201.569C145.129 200.955 145.474 200.122 145.476 199.254V36.396C145.474 35.5276 145.129 34.6953 144.515 34.0813C143.9 33.4672 143.068 33.1216 142.2 33.12H26.3458Z" fill="#EBEBEB"/>
<path d="M271.985 202.68H156.125C155.217 202.678 154.347 202.317 153.704 201.675C153.062 201.033 152.701 200.162 152.699 199.254V36.396C152.709 35.4931 153.074 34.6302 153.715 33.9946C154.356 33.3589 155.222 33.0015 156.125 33H271.985C272.887 33.0031 273.75 33.3613 274.389 33.997C275.029 34.6327 275.391 35.4947 275.399 36.396V199.254C275.399 200.161 275.04 201.03 274.4 201.672C273.76 202.314 272.892 202.677 271.985 202.68ZM156.125 33.12C155.257 33.1216 154.425 33.4672 153.81 34.0813C153.196 34.6953 152.851 35.5276 152.849 36.396V199.254C152.851 200.122 153.196 200.955 153.81 201.569C154.425 202.183 155.257 202.528 156.125 202.53H271.985C272.854 202.528 273.686 202.183 274.3 201.569C274.914 200.955 275.26 200.122 275.261 199.254V36.396C275.26 35.5276 274.914 34.6953 274.3 34.0813C273.686 33.4672 272.854 33.1216 271.985 33.12H156.125Z" fill="#EBEBEB"/>
<path d="M114.469 149.705L260.293 149.705V43.1871L114.469 43.1871V149.705Z" fill="#E6E6E6"/>
<path d="M108.025 149.705L258.799 149.705V43.1871L108.025 43.1871V149.705Z" fill="#F0F0F0"/>
<path d="M249.768 140.683V52.2129L117.042 52.2129V140.683H249.768Z" fill="#FAFAFA"/>
<path d="M217.506 140.677L187.29 52.2129H158.436L188.652 140.677H217.506Z" fill="white"/>
<path d="M182.454 140.677L152.238 52.2129H140.994L171.21 140.677H182.454Z" fill="white"/>
<path d="M118.193 140.683V52.2129H117.047V140.683H118.193Z" fill="#E6E6E6"/>
<path d="M38.7424 120.732H90.2344L90.2344 47.7304H38.7424L38.7424 120.732Z" fill="#E0E0E0"/>
<path d="M35.0998 120.732H88.1758L88.1758 47.7304H35.0998L35.0998 120.732Z" fill="#F5F5F5"/>
<path d="M82.9375 114.973V53.4785H40.3375L40.3375 114.973H82.9375Z" fill="white"/>
<path d="M58.7587 171.84C62.5807 162.408 71.6707 158.898 74.8147 152.94C78.9247 145.14 78.9007 133.434 75.4147 129.216C72.3667 125.544 62.2867 150.36 61.1527 153.132C58.0415 160.613 56.0949 168.527 55.3807 176.598C55.4647 170.772 55.5427 165.42 55.6087 161.292C55.8247 147.828 56.0887 143.496 56.2087 142.164C56.6287 141.51 57.1267 140.754 57.4087 140.364C59.8507 136.926 65.2627 132.828 67.9687 127.83C71.9167 120.528 71.2807 111.792 68.5087 108.54C65.6107 105.138 60.4927 113.178 57.7747 121.14C55.0567 129.102 56.2147 136.74 55.4527 143.34C55.2967 144.636 55.1287 149.562 54.9787 156.402C54.1507 149.046 52.5067 144.12 49.4647 139.524C45.7207 133.878 42.4867 127.002 39.4027 127.89C36.3187 128.778 37.9747 137.88 40.4167 144.264C42.6007 149.952 53.3107 155.628 54.8887 160.2C54.7027 169.464 54.5347 181.2 54.4207 192.138C53.5747 186.492 54.1567 186.018 50.6887 177.372C48.6307 172.236 40.2007 165.9 39.1807 169.428C38.1607 172.956 39.7027 179.628 42.8887 184.308C45.4627 188.076 51.1687 188.07 52.4887 190.41C52.7947 190.956 53.8147 193.05 54.3967 194.25C54.2587 207.594 54.1987 219.378 54.2647 223.392L54.8167 223.434C54.8167 222.396 54.8587 215.634 54.9667 206.634C56.3527 201.834 65.6827 199.068 68.5627 194.094C71.5626 188.892 73.7467 182.82 72.4507 178.758C71.3707 175.368 62.8507 179.958 59.4247 185.592C57.1267 189.336 55.7227 193.326 55.0687 198.69C55.1467 192.57 55.2367 185.994 55.3207 179.79C56.0227 178.23 57.6007 174.666 58.7587 171.84Z" fill="#E6E6E6"/>
<path d="M64.2352 229.441H44.6272C44.109 229.44 43.6069 229.261 43.2057 228.933C42.8045 228.605 42.5288 228.148 42.4252 227.641L41.0332 220.801H67.8352L66.4432 227.659C66.3337 228.163 66.055 228.615 65.6533 228.939C65.2517 229.263 64.7513 229.44 64.2352 229.441Z" fill="#F0F0F0"/>
<path d="M68.4006 223.434H40.4706C40.147 223.434 39.8351 223.314 39.594 223.098C39.3529 222.883 39.1993 222.586 39.1626 222.264L38.5626 217.194C38.5424 217.01 38.5611 216.824 38.6176 216.648C38.674 216.472 38.767 216.309 38.8903 216.171C39.0137 216.033 39.1647 215.922 39.3336 215.846C39.5025 215.771 39.6854 215.731 39.8706 215.73H68.9346C69.12 215.73 69.3034 215.769 69.4727 215.845C69.6421 215.92 69.7935 216.031 69.917 216.169C70.0406 216.307 70.1335 216.47 70.1896 216.647C70.2457 216.824 70.2637 217.01 70.2426 217.194L69.6426 222.264C69.6075 222.575 69.4634 222.863 69.236 223.077C69.0086 223.291 68.7126 223.418 68.4006 223.434Z" fill="#F0F0F0"/>
<path d="M243.377 225.066H249.371V160.572H243.377V225.066Z" fill="#F0F0F0"/>
<path d="M121.236 229.361L247.074 229.361V225.065L121.236 225.065V229.361Z" fill="#F0F0F0"/>
<path d="M243.384 160.572H118.938V225.066H243.384V160.572Z" fill="#F5F5F5"/>
<path d="M244.794 160.572H250.986V156.504H244.794V160.572Z" fill="#E0E0E0"/>
<path d="M244.794 156.504H117.324V160.572H244.794V156.504Z" fill="#EBEBEB"/>
<path d="M234.45 188.4H127.866C126.593 188.4 125.372 187.894 124.472 186.994C123.572 186.094 123.066 184.873 123.066 183.6V169.8C123.066 168.527 123.572 167.306 124.472 166.406C125.372 165.506 126.593 165 127.866 165H234.45C235.723 165 236.944 165.506 237.845 166.406C238.745 167.306 239.25 168.527 239.25 169.8V183.6C239.25 184.873 238.745 186.094 237.845 186.994C236.944 187.894 235.723 188.4 234.45 188.4ZM127.866 166.2C126.912 166.2 125.996 166.579 125.321 167.254C124.646 167.93 124.266 168.845 124.266 169.8V183.6C124.266 184.555 124.646 185.47 125.321 186.146C125.996 186.821 126.912 187.2 127.866 187.2H234.45C235.405 187.2 236.321 186.821 236.996 186.146C237.671 185.47 238.05 184.555 238.05 183.6V169.8C238.05 168.845 237.671 167.93 236.996 167.254C236.321 166.579 235.405 166.2 234.45 166.2H127.866Z" fill="white"/>
<path d="M234.45 217.314H127.866C126.593 217.314 125.372 216.808 124.472 215.908C123.572 215.008 123.066 213.787 123.066 212.514V198.714C123.066 197.441 123.572 196.22 124.472 195.32C125.372 194.42 126.593 193.914 127.866 193.914H234.45C235.723 193.914 236.944 194.42 237.845 195.32C238.745 196.22 239.25 197.441 239.25 198.714V212.514C239.25 213.787 238.745 215.008 237.845 215.908C236.944 216.808 235.723 217.314 234.45 217.314ZM127.866 195.066C126.912 195.066 125.996 195.445 125.321 196.12C124.646 196.796 124.266 197.711 124.266 198.666V212.466C124.266 213.421 124.646 214.337 125.321 215.012C125.996 215.687 126.912 216.066 127.866 216.066H234.45C235.405 216.066 236.321 215.687 236.996 215.012C237.671 214.337 238.05 213.421 238.05 212.466V198.666C238.05 197.711 237.671 196.796 236.996 196.12C236.321 195.445 235.405 195.066 234.45 195.066H127.866Z" fill="white"/>
<path d="M210.227 178.801H152.087C151.675 178.801 151.279 178.637 150.986 178.346C150.694 178.055 150.529 177.659 150.527 177.247V176.107C150.529 175.694 150.694 175.299 150.986 175.008C151.279 174.716 151.675 174.553 152.087 174.553H210.227C210.64 174.553 211.036 174.716 211.328 175.008C211.621 175.299 211.786 175.694 211.787 176.107V177.247C211.786 177.659 211.621 178.055 211.328 178.346C211.036 178.637 210.64 178.801 210.227 178.801ZM152.087 175.801C151.993 175.802 151.904 175.84 151.837 175.906C151.77 175.972 151.73 176.061 151.727 176.155V177.295C151.73 177.389 151.77 177.478 151.837 177.544C151.904 177.61 151.993 177.647 152.087 177.649H210.227C210.322 177.649 210.412 177.612 210.48 177.545C210.547 177.479 210.586 177.389 210.587 177.295V176.155C210.586 176.06 210.547 175.97 210.48 175.904C210.412 175.838 210.322 175.801 210.227 175.801H152.087Z" fill="white"/>
<path d="M210.227 207.715H152.087C151.675 207.715 151.279 207.551 150.986 207.26C150.694 206.969 150.529 206.574 150.527 206.161V205.021C150.529 204.608 150.694 204.213 150.986 203.922C151.279 203.63 151.675 203.467 152.087 203.467H210.227C210.64 203.467 211.036 203.63 211.328 203.922C211.621 204.213 211.786 204.608 211.787 205.021V206.161C211.786 206.574 211.621 206.969 211.328 207.26C211.036 207.551 210.64 207.715 210.227 207.715ZM152.087 204.667C151.993 204.668 151.904 204.706 151.837 204.772C151.77 204.838 151.73 204.927 151.727 205.021V206.161C151.73 206.255 151.77 206.344 151.837 206.41C151.904 206.476 151.993 206.513 152.087 206.515H210.227C210.322 206.515 210.412 206.478 210.48 206.411C210.547 206.345 210.586 206.255 210.587 206.161V205.021C210.586 204.926 210.547 204.836 210.48 204.77C210.412 204.704 210.322 204.667 210.227 204.667H152.087Z" fill="white"/>
<path d="M147 256.535C211.249 256.535 263.334 253.494 263.334 249.743C263.334 245.992 211.249 242.951 147 242.951C82.7505 242.951 30.666 245.992 30.666 249.743C30.666 253.494 82.7505 256.535 147 256.535Z" fill="#F5F5F5"/>
<path d="M224.873 100.651L224.645 104.184L225.243 104.222L225.472 100.69L224.873 100.651Z" fill="#FE7777"/>
<path d="M225.784 86.3042L225.035 97.9141L225.634 97.9527L226.383 86.3428L225.784 86.3042Z" fill="#FE7777"/>
<path d="M218.664 69.4437H148.134C146.323 69.4755 144.588 70.1809 143.269 71.4223C141.95 72.6636 141.141 74.3519 141 76.1577L131.886 216.858C131.819 217.72 131.933 218.587 132.219 219.403C132.505 220.22 132.958 220.967 133.549 221.599C134.14 222.231 134.855 222.733 135.65 223.074C136.445 223.415 137.303 223.586 138.168 223.578H208.686C210.5 223.548 212.238 222.842 213.56 221.6C214.883 220.357 215.695 218.667 215.838 216.858L224.946 76.1577C225.012 75.2955 224.899 74.4289 224.613 73.613C224.326 72.797 223.873 72.0496 223.282 71.4181C222.692 70.7867 221.976 70.2851 221.181 69.9452C220.386 69.6053 219.528 69.4345 218.664 69.4437Z" fill="#FE7777"/>
<path opacity="0.7" d="M216.426 69.4437H148.134C146.323 69.4755 144.588 70.1809 143.269 71.4223C141.95 72.6636 141.141 74.3519 141 76.1577L131.886 216.858C131.819 217.72 131.933 218.587 132.219 219.403C132.505 220.22 132.958 220.967 133.549 221.599C134.14 222.231 134.855 222.733 135.65 223.074C136.445 223.415 137.303 223.586 138.168 223.578H206.448C208.262 223.548 210 222.842 211.322 221.6C212.645 220.357 213.457 218.667 213.6 216.858L222.708 76.1577C222.774 75.2955 222.661 74.4289 222.375 73.613C222.088 72.797 221.635 72.0496 221.044 71.4181C220.454 70.7867 219.738 70.2851 218.943 69.9452C218.148 69.6053 217.29 69.4345 216.426 69.4437Z" fill="white"/>
<path d="M210.666 213.18H135.546C135.266 213.18 134.987 213.123 134.729 213.012C134.472 212.901 134.239 212.738 134.047 212.533C133.854 212.328 133.706 212.086 133.611 211.822C133.516 211.557 133.476 211.276 133.494 210.996L141.738 83.6759C141.772 83.1559 142.002 82.6681 142.382 82.3115C142.762 81.955 143.263 81.7563 143.784 81.7559H218.91C219.192 81.7561 219.47 81.814 219.728 81.9259C219.986 82.0379 220.218 82.2015 220.41 82.4067C220.603 82.6119 220.751 82.8544 220.846 83.1191C220.941 83.3838 220.981 83.6652 220.962 83.9459L212.718 211.26C212.685 211.781 212.454 212.27 212.073 212.626C211.691 212.983 211.189 213.181 210.666 213.18Z" fill="white"/>
<path d="M193.974 77.5922H166.668C166.527 77.5934 166.388 77.5655 166.259 77.5101C166.13 77.4547 166.013 77.373 165.918 77.2704C165.822 77.1677 165.748 77.0462 165.702 76.9136C165.655 76.781 165.637 76.6403 165.648 76.5002C165.675 76.2092 165.808 75.9383 166.021 75.7383C166.235 75.5384 166.513 75.4231 166.806 75.4142H194.112C194.252 75.4121 194.391 75.4393 194.52 75.494C194.649 75.5487 194.765 75.6298 194.861 75.732C194.957 75.8342 195.031 75.9553 195.077 76.0876C195.124 76.2198 195.142 76.3604 195.132 76.5002C195.105 76.7922 194.973 77.0646 194.76 77.2658C194.546 77.467 194.267 77.5831 193.974 77.5922Z" fill="white"/>
<path d="M172.662 218.526C172.618 219.245 172.303 219.921 171.781 220.417C171.259 220.914 170.568 221.194 169.848 221.202C169.502 221.205 169.159 221.137 168.84 221.002C168.522 220.866 168.234 220.667 167.996 220.416C167.758 220.165 167.574 219.868 167.456 219.542C167.338 219.217 167.288 218.871 167.31 218.526C167.355 217.808 167.67 217.133 168.192 216.638C168.714 216.143 169.404 215.863 170.124 215.856C170.469 215.852 170.812 215.919 171.131 216.054C171.449 216.188 171.736 216.387 171.975 216.638C172.213 216.888 172.397 217.185 172.515 217.51C172.633 217.835 172.683 218.181 172.662 218.526Z" fill="white"/>
<path opacity="0.2" d="M202.482 117H138.336L134.256 179.94H202.482C204.262 179.937 205.969 179.229 207.228 177.97C208.487 176.712 209.197 175.006 209.202 173.226V123.738C209.203 121.954 208.497 120.242 207.236 118.978C205.976 117.715 204.266 117.003 202.482 117Z" fill="#FE7777"/>
<path d="M196.506 111.426H117.894C114.182 111.426 111.174 114.434 111.174 118.146V167.652C111.174 171.363 114.182 174.372 117.894 174.372H196.506C200.217 174.372 203.226 171.363 203.226 167.652V118.146C203.226 114.434 200.217 111.426 196.506 111.426Z" fill="#FE7777"/>
<path d="M109.026 110.7C108.869 110.7 108.718 110.637 108.606 110.526L107.526 109.452C107.413 109.339 107.35 109.186 107.35 109.026C107.35 108.867 107.413 108.713 107.526 108.6C107.639 108.487 107.792 108.424 107.952 108.424C108.112 108.424 108.265 108.487 108.378 108.6L109.452 109.68C109.564 109.793 109.627 109.945 109.627 110.103C109.627 110.262 109.564 110.414 109.452 110.526C109.396 110.582 109.33 110.626 109.256 110.656C109.183 110.686 109.105 110.701 109.026 110.7Z" fill="#FE7777"/>
<path d="M107.399 114.468H105.881C105.722 114.468 105.57 114.404 105.457 114.292C105.344 114.179 105.281 114.027 105.281 113.868C105.281 113.708 105.344 113.556 105.457 113.443C105.57 113.331 105.722 113.268 105.881 113.268H107.399C107.558 113.268 107.711 113.331 107.824 113.443C107.936 113.556 107.999 113.708 107.999 113.868C107.999 114.027 107.936 114.179 107.824 114.292C107.711 114.404 107.558 114.468 107.399 114.468Z" fill="#FE7777"/>
<path d="M112.846 109.08C112.694 109.081 112.548 109.023 112.436 108.92C112.325 108.816 112.257 108.674 112.246 108.522L112.138 107.004C112.133 106.926 112.143 106.846 112.167 106.771C112.192 106.697 112.232 106.627 112.284 106.568C112.336 106.508 112.399 106.459 112.47 106.424C112.54 106.389 112.617 106.368 112.696 106.362C112.855 106.353 113.01 106.406 113.129 106.51C113.249 106.615 113.322 106.762 113.332 106.92L113.446 108.438C113.452 108.517 113.442 108.597 113.417 108.672C113.392 108.746 113.353 108.816 113.301 108.875C113.249 108.935 113.186 108.984 113.115 109.019C113.044 109.054 112.967 109.075 112.888 109.08H112.846Z" fill="#FE7777"/>
<path d="M163.914 167.898L188.052 192.03V167.898H163.914Z" fill="#FE7777"/>
<path d="M170.532 157.327L169.332 152.233C169.029 150.894 169.029 149.504 169.332 148.165L171 140.911C171.682 137.818 171.313 134.585 169.95 131.726C168.587 128.866 166.308 126.543 163.476 125.125C163.529 124.992 163.575 124.855 163.614 124.717C163.712 124.277 163.723 123.822 163.646 123.378C163.568 122.933 163.404 122.509 163.163 122.128C162.921 121.747 162.607 121.418 162.238 121.158C161.869 120.899 161.453 120.715 161.013 120.616C160.573 120.518 160.118 120.507 159.673 120.584C159.229 120.662 158.804 120.826 158.424 121.067C158.043 121.309 157.713 121.623 157.454 121.992C157.195 122.361 157.01 122.777 156.912 123.217C156.882 123.357 156.864 123.5 156.858 123.643C153.691 123.717 150.64 124.846 148.187 126.85C145.734 128.854 144.02 131.619 143.316 134.707L141.69 141.967C141.391 143.304 140.797 144.557 139.95 145.633L136.716 149.743C136.399 150.146 136.19 150.623 136.108 151.129C136.025 151.634 136.072 152.153 136.244 152.636C136.416 153.118 136.707 153.55 137.091 153.89C137.475 154.229 137.938 154.467 138.438 154.579L166.938 160.963C167.436 161.071 167.953 161.051 168.442 160.906C168.93 160.76 169.374 160.494 169.733 160.132C170.091 159.769 170.352 159.322 170.492 158.832C170.632 158.342 170.645 157.824 170.532 157.327Z" fill="white"/>
<path d="M149.01 158.899C148.793 158.851 148.568 158.857 148.354 158.917C148.14 158.977 147.945 159.089 147.785 159.243C147.624 159.397 147.505 159.587 147.436 159.798C147.367 160.01 147.351 160.234 147.39 160.453C147.554 161.417 148 162.311 148.674 163.02C149.347 163.729 150.216 164.222 151.17 164.436C152.125 164.649 153.121 164.574 154.032 164.219C154.944 163.865 155.729 163.247 156.288 162.445C156.416 162.264 156.497 162.055 156.525 161.835C156.552 161.615 156.526 161.392 156.447 161.185C156.368 160.978 156.239 160.794 156.072 160.649C155.906 160.503 155.706 160.401 155.49 160.351L149.01 158.899Z" fill="white"/>
<path d="M127.121 148.801C126.973 148.802 126.826 148.766 126.695 148.696C126.564 148.625 126.453 148.523 126.371 148.399C123.538 144.153 122.506 138.956 123.504 133.95C124.502 128.944 127.448 124.539 131.693 121.705C131.892 121.573 132.136 121.525 132.37 121.573C132.604 121.62 132.809 121.758 132.941 121.957C133.074 122.156 133.121 122.399 133.074 122.633C133.027 122.867 132.888 123.073 132.689 123.205C128.846 125.779 126.182 129.773 125.282 134.311C124.382 138.848 125.32 143.557 127.889 147.403C128.022 147.601 128.071 147.844 128.025 148.078C127.979 148.312 127.841 148.518 127.643 148.651C127.489 148.753 127.307 148.805 127.121 148.801Z" fill="white"/>
<path d="M130.932 146.245C130.784 146.244 130.639 146.207 130.51 146.137C130.38 146.067 130.269 145.966 130.188 145.843C128.031 142.609 127.246 138.651 128.005 134.838C128.765 131.026 131.006 127.67 134.238 125.509C134.336 125.444 134.447 125.398 134.563 125.375C134.679 125.352 134.799 125.352 134.915 125.375C135.031 125.398 135.142 125.444 135.24 125.509C135.339 125.575 135.423 125.66 135.489 125.758C135.555 125.857 135.6 125.967 135.623 126.084C135.647 126.2 135.647 126.319 135.623 126.435C135.6 126.552 135.555 126.662 135.489 126.761C135.423 126.859 135.338 126.944 135.24 127.009C132.403 128.902 130.435 131.844 129.768 135.189C129.101 138.533 129.789 142.005 131.682 144.841C131.815 145.04 131.863 145.282 131.817 145.516C131.771 145.75 131.634 145.956 131.436 146.089C131.287 146.189 131.111 146.243 130.932 146.245Z" fill="white"/>
<path d="M134.748 143.695C134.601 143.696 134.456 143.66 134.326 143.591C134.196 143.522 134.086 143.421 134.004 143.299C133.269 142.198 132.758 140.963 132.501 139.665C132.243 138.366 132.245 137.03 132.504 135.732C132.764 134.434 133.277 133.2 134.014 132.101C134.751 131.001 135.698 130.058 136.8 129.325C136.998 129.202 137.236 129.161 137.464 129.21C137.692 129.259 137.892 129.394 138.022 129.588C138.152 129.782 138.202 130.018 138.161 130.248C138.12 130.478 137.991 130.682 137.802 130.819C136.898 131.422 136.122 132.198 135.518 133.101C134.914 134.005 134.494 135.018 134.281 136.084C134.069 137.15 134.069 138.248 134.281 139.313C134.492 140.379 134.912 141.393 135.516 142.297C135.647 142.496 135.695 142.738 135.649 142.971C135.603 143.205 135.467 143.411 135.27 143.545C135.115 143.647 134.933 143.699 134.748 143.695Z" fill="white"/>
<path d="M179.009 161.454C178.808 161.454 178.613 161.386 178.455 161.261C178.296 161.137 178.185 160.963 178.137 160.767C178.089 160.572 178.109 160.366 178.192 160.183C178.275 159.999 178.417 159.849 178.595 159.756C182.706 157.632 185.805 153.963 187.212 149.555C188.618 145.146 188.216 140.36 186.095 136.248C186.031 136.142 185.989 136.025 185.972 135.902C185.955 135.78 185.963 135.655 185.997 135.536C186.03 135.417 186.088 135.306 186.166 135.21C186.244 135.114 186.341 135.035 186.451 134.979C186.561 134.922 186.682 134.889 186.805 134.881C186.928 134.873 187.052 134.89 187.169 134.932C187.285 134.974 187.391 135.04 187.481 135.125C187.571 135.21 187.643 135.312 187.691 135.426C188.85 137.673 189.555 140.126 189.765 142.646C189.975 145.165 189.687 147.702 188.917 150.11C188.147 152.518 186.91 154.751 185.277 156.681C183.644 158.611 181.647 160.2 179.399 161.358C179.278 161.418 179.145 161.45 179.009 161.454Z" fill="white"/>
<path d="M176.904 157.381C176.702 157.38 176.507 157.312 176.349 157.188C176.191 157.063 176.079 156.889 176.031 156.694C175.984 156.498 176.003 156.293 176.086 156.109C176.169 155.926 176.311 155.776 176.49 155.683C177.991 154.909 179.325 153.846 180.416 152.556C181.506 151.266 182.332 149.774 182.845 148.164C183.358 146.555 183.549 144.86 183.407 143.177C183.265 141.494 182.792 139.855 182.016 138.355C181.906 138.142 181.885 137.895 181.958 137.667C182.03 137.439 182.19 137.25 182.403 137.14C182.615 137.03 182.863 137.009 183.09 137.082C183.318 137.154 183.508 137.314 183.618 137.527C184.502 139.237 185.041 141.105 185.203 143.024C185.365 144.942 185.147 146.874 184.562 148.709C183.977 150.543 183.036 152.244 181.793 153.715C180.55 155.185 179.029 156.396 177.318 157.279C177.19 157.347 177.048 157.382 176.904 157.381Z" fill="white"/>
<path d="M174.797 153.306C174.597 153.303 174.403 153.233 174.247 153.108C174.09 152.983 173.979 152.809 173.932 152.614C173.885 152.419 173.903 152.214 173.985 152.031C174.067 151.848 174.207 151.697 174.383 151.602C175.35 151.105 176.208 150.422 176.91 149.593C177.612 148.764 178.143 147.804 178.473 146.769C178.804 145.734 178.927 144.644 178.836 143.562C178.744 142.479 178.441 141.425 177.941 140.46C177.832 140.248 177.811 140 177.883 139.773C177.956 139.545 178.116 139.355 178.328 139.245C178.541 139.135 178.788 139.114 179.016 139.187C179.244 139.26 179.434 139.42 179.543 139.632C180.765 142.008 180.993 144.772 180.179 147.317C179.364 149.861 177.573 151.979 175.199 153.204C175.075 153.268 174.938 153.303 174.797 153.306Z" fill="white"/>
<path d="M122.015 75.5099H117.431C117.312 75.5129 117.198 75.5579 117.109 75.637C117.02 75.7161 116.962 75.8241 116.945 75.9419L115.985 85.0859C115.979 85.141 115.984 85.1969 116 85.2499C116.017 85.3029 116.044 85.3518 116.081 85.3932C116.118 85.4347 116.163 85.4678 116.214 85.4903C116.265 85.5129 116.32 85.5243 116.375 85.5239H120.959C121.079 85.5206 121.194 85.4747 121.283 85.3944C121.372 85.3142 121.43 85.2048 121.445 85.0859L122.405 75.9419C122.412 75.8871 122.407 75.8314 122.391 75.7787C122.374 75.726 122.346 75.6775 122.309 75.6364C122.272 75.5954 122.227 75.5629 122.176 75.5411C122.125 75.5192 122.071 75.5086 122.015 75.5099Z" fill="#FE7777"/>
<path opacity="0.4" d="M121.601 75.51H117.431C117.312 75.513 117.198 75.558 117.109 75.6371C117.02 75.7162 116.962 75.8242 116.945 75.942L115.985 85.086C115.979 85.1411 115.984 85.197 116 85.25C116.017 85.303 116.044 85.3519 116.081 85.3933C116.118 85.4348 116.163 85.4679 116.214 85.4904C116.265 85.5129 116.32 85.5244 116.375 85.524H120.575C120.695 85.5205 120.809 85.4744 120.897 85.394C120.985 85.3137 121.041 85.2043 121.055 85.086L122.015 75.942C122.024 75.8848 122.019 75.8265 122.002 75.7714C121.984 75.7163 121.954 75.666 121.914 75.6243C121.875 75.5826 121.825 75.5506 121.771 75.5307C121.717 75.5109 121.659 75.5038 121.601 75.51Z" fill="white"/>
<path d="M99.0429 244.591C99.6429 244.591 100.243 244.501 100.453 244.225C100.504 244.151 100.531 244.063 100.531 243.973C100.531 243.883 100.504 243.795 100.453 243.721C100.365 243.586 100.23 243.49 100.075 243.451C99.2589 243.229 97.6029 244.201 97.5309 244.243C97.5122 244.255 97.4975 244.272 97.4889 244.292C97.4803 244.313 97.4782 244.335 97.4829 244.357C97.4873 244.381 97.4988 244.403 97.516 244.42C97.5331 244.437 97.555 244.448 97.5789 244.453C98.0621 244.54 98.5519 244.586 99.0429 244.591ZM99.7749 243.649C99.8486 243.639 99.9232 243.639 99.9969 243.649C100.092 243.672 100.176 243.73 100.231 243.811C100.315 243.955 100.291 244.027 100.231 244.063C100.021 244.381 98.7909 244.387 97.8849 244.261C98.4668 243.931 99.1098 243.722 99.7749 243.649Z" fill="#FE7777"/>
<path d="M97.5654 244.453H97.6134C98.2134 244.189 99.3054 243.139 99.1914 242.587C99.1914 242.461 99.0654 242.299 98.7474 242.269C98.6348 242.256 98.521 242.267 98.4126 242.3C98.3043 242.333 98.2039 242.388 98.1174 242.461C97.5174 242.971 97.4514 244.261 97.4454 244.333C97.4446 244.354 97.4492 244.375 97.4586 244.394C97.468 244.412 97.4821 244.429 97.4994 244.441C97.5198 244.451 97.5427 244.455 97.5654 244.453ZM98.6694 242.485H98.7354C98.9454 242.485 98.9634 242.587 98.9634 242.611C99.0354 242.941 98.2794 243.769 97.6974 244.129C97.7341 243.578 97.9441 243.053 98.2974 242.629C98.4013 242.54 98.5326 242.489 98.6694 242.485Z" fill="#FE7777"/>
<path d="M97.0748 233.088H92.2148V244.338H97.0748V233.088Z" fill="#FF8B7B"/>
<path d="M56.9707 238.975L61.8247 239.503L64.9867 228.583L60.1327 228.055L56.9707 238.975Z" fill="#FF8B7B"/>
<path d="M64.0802 240.601C64.6802 240.757 65.2802 240.823 65.5502 240.601C65.6162 240.539 65.661 240.459 65.6782 240.37C65.6955 240.282 65.6843 240.19 65.6462 240.109C65.6215 240.034 65.5823 239.965 65.5308 239.905C65.4794 239.845 65.4166 239.796 65.3462 239.761C64.5962 239.347 62.7362 239.869 62.6582 239.887C62.6354 239.893 62.615 239.906 62.5999 239.924C62.5849 239.943 62.5759 239.965 62.5742 239.989C62.5742 240.013 62.5809 240.036 62.5937 240.056C62.6064 240.076 62.6247 240.093 62.6462 240.103C63.1092 240.309 63.5889 240.476 64.0802 240.601ZM65.0282 239.881C65.101 239.898 65.1715 239.925 65.2382 239.959C65.3271 240.001 65.396 240.076 65.4302 240.169C65.4782 240.331 65.4302 240.391 65.4302 240.427C65.1422 240.673 63.9362 240.379 63.0782 240.031C63.7126 239.856 64.375 239.807 65.0282 239.887V239.881Z" fill="#FE7777"/>
<path d="M62.6697 240.115H62.7177C63.3177 240.001 64.6977 239.269 64.7217 238.717C64.7217 238.585 64.6737 238.405 64.3677 238.297C64.2599 238.258 64.1455 238.241 64.0311 238.247C63.9167 238.254 63.8047 238.283 63.7017 238.333C62.9937 238.675 62.5977 239.911 62.5797 239.959C62.5697 239.976 62.5645 239.996 62.5645 240.016C62.5645 240.036 62.5697 240.055 62.5797 240.073C62.5899 240.087 62.6035 240.098 62.6193 240.105C62.635 240.113 62.6524 240.116 62.6697 240.115ZM64.2297 238.501H64.3017C64.4997 238.573 64.4937 238.657 64.4937 238.681C64.4937 239.017 63.5337 239.623 62.8737 239.821C63.0399 239.302 63.3679 238.85 63.8097 238.531C63.9415 238.47 64.0907 238.46 64.2297 238.501Z" fill="#FE7777"/>
<path d="M62.0824 239.053L56.7724 237.529C56.6811 237.502 56.5832 237.507 56.4955 237.544C56.4078 237.581 56.336 237.648 56.2924 237.733L54.3364 241.615C54.2907 241.713 54.2672 241.82 54.2676 241.929C54.268 242.037 54.2922 242.144 54.3386 242.242C54.385 242.34 54.4524 242.426 54.536 242.495C54.6196 242.564 54.7174 242.614 54.8224 242.641C56.6824 243.139 57.6124 243.295 59.9464 243.961C61.3804 244.375 64.3024 245.371 66.2884 245.941C68.2744 246.511 69.0064 244.645 68.2384 244.237C64.7944 242.407 63.6904 240.931 62.7784 239.563C62.6148 239.315 62.3679 239.134 62.0824 239.053Z" fill="#263238"/>
<path d="M97.0208 243.773H91.7168C91.6214 243.772 91.5288 243.806 91.456 243.867C91.3832 243.929 91.3352 244.015 91.3208 244.109L90.5468 248.399C90.5294 248.507 90.5355 248.616 90.5646 248.721C90.5936 248.825 90.645 248.922 90.7152 249.005C90.7853 249.087 90.8726 249.154 90.9709 249.2C91.0692 249.245 91.1763 249.269 91.2848 249.269C93.1988 249.233 95.9588 249.119 98.3648 249.119C101.179 249.119 102.715 249.275 106.015 249.275C108.007 249.275 108.475 247.259 107.629 247.073C103.795 246.245 101.581 246.155 98.2088 244.127C97.8506 243.907 97.4409 243.785 97.0208 243.773Z" fill="#263238"/>
<path opacity="0.2" d="M97.0748 233.088H92.2148V238.89H97.0748V233.088Z" fill="black"/>
<path opacity="0.2" d="M60.132 228.061L64.986 228.583L63.228 234.643L58.5 233.689L60.132 228.061Z" fill="black"/>
<path d="M89.0827 121.201C89.0827 121.201 86.4007 157.885 84.0007 171.793C81.3547 187.027 65.9587 233.671 65.9587 233.671L57.1387 232.057C57.1387 232.057 68.2567 188.257 69.4867 173.173C70.8247 156.805 72.4327 123.067 72.4327 123.067L89.0827 121.201Z" fill="#FE7777"/>
<path opacity="0.3" d="M84.5652 136.44C85.0452 134.424 86.1492 136.962 87.4332 141.36C86.4612 152.244 85.1952 164.85 83.9832 171.798C83.7132 173.352 83.3052 175.236 82.7832 177.372C83.2452 161.844 83.2632 141.894 84.5652 136.44Z" fill="black"/>
<path d="M98.2438 120.205C98.2438 120.205 101.766 157.081 101.886 171.895C102.012 187.309 98.8378 237.769 98.8378 237.769H90.5998C90.5998 237.769 88.1278 188.209 87.1018 173.071C85.9798 156.571 81.2578 122.071 81.2578 122.071L98.2438 120.205Z" fill="#FE7777"/>
<path d="M67.8002 230.701C67.8362 230.701 66.4142 233.899 66.4142 233.899L56.4902 232.099L57.0902 229.129L67.8002 230.701Z" fill="#263238"/>
<path d="M100.279 234.486C100.315 234.486 99.9609 237.906 99.9609 237.906H89.9529L89.5449 234.858L100.279 234.486Z" fill="#263238"/>
<path d="M72.6721 87.3363C72.0121 88.6143 71.2861 89.9583 70.6261 91.2843L68.6101 95.2803C67.9561 96.6123 67.3141 97.9503 66.6961 99.2883C66.0781 100.626 65.4961 101.958 64.9981 103.29L64.9501 101.19C65.3008 102.269 65.7217 103.323 66.2101 104.346C66.4441 104.874 66.7441 105.378 67.0021 105.9C67.2601 106.422 67.6021 106.92 67.9081 107.412C68.5447 108.429 69.2337 109.413 69.9721 110.358C70.3441 110.832 70.7161 111.318 71.1121 111.774C71.5081 112.23 71.9401 112.704 72.3121 113.094L72.4321 113.226C72.7085 113.53 72.8679 113.922 72.8815 114.332C72.8952 114.742 72.7624 115.144 72.5068 115.466C72.2512 115.787 71.8896 116.007 71.4867 116.086C71.0839 116.164 70.666 116.097 70.3081 115.896C69.6879 115.547 69.087 115.164 68.5081 114.75C67.9081 114.354 67.3801 113.94 66.8401 113.502C65.7591 112.616 64.7444 111.651 63.8041 110.616C62.8442 109.565 61.9714 108.437 61.1941 107.244C60.3955 106.029 59.701 104.749 59.1181 103.416C58.8614 102.851 58.8166 102.212 58.9921 101.616L59.0761 101.334C59.5321 99.7683 60.0421 98.2503 60.6061 96.7623C61.1701 95.2743 61.7701 93.8163 62.4061 92.3823C63.0421 90.9483 63.7081 89.5323 64.4101 88.1343C65.1121 86.7363 65.8201 85.3683 66.6301 83.9703C67.0778 83.1702 67.823 82.5791 68.704 82.3254C69.585 82.0717 70.5306 82.1758 71.3352 82.6153C72.1398 83.0548 72.7385 83.794 73.0012 84.6723C73.2639 85.5507 73.1693 86.4972 72.7381 87.3063L72.6721 87.3363Z" fill="#FF8B7B"/>
<path d="M76.1169 85.2006C76.3569 89.7786 71.1609 98.1846 71.1609 98.1846L60.4629 92.8386C61.763 89.0467 63.775 85.5379 66.3909 82.5006C72.0489 76.2486 75.8949 81.0006 76.1169 85.2006Z" fill="#263238"/>
<path d="M68.8691 115.038L71.0231 118.638L75.5051 115.77C74.7223 114.367 73.4963 113.263 72.0191 112.632C71.6776 112.523 71.3082 112.539 70.978 112.679C70.6478 112.819 70.3786 113.072 70.2191 113.394L68.8691 115.038Z" fill="#FF8B7B"/>
<path d="M72.8155 120.175L74.8975 119.785C75.0727 119.752 75.2399 119.686 75.3892 119.588C75.5385 119.491 75.6671 119.365 75.7675 119.218C75.8679 119.071 75.9381 118.905 75.9742 118.73C76.0102 118.556 76.0113 118.376 75.9775 118.201L75.5035 115.801L71.0215 118.669L71.3215 119.395C71.4442 119.676 71.6593 119.906 71.931 120.048C72.2028 120.19 72.5148 120.235 72.8155 120.175Z" fill="#FF8B7B"/>
<path d="M85.4574 62.1961C85.4994 62.5861 85.7454 62.8921 85.9974 62.8681C86.2494 62.8441 86.4174 62.5141 86.3694 62.1241C86.3214 61.7341 86.0814 61.4281 85.8294 61.4461C85.5774 61.4641 85.4094 61.8001 85.4574 62.1961Z" fill="#263238"/>
<path d="M85.7109 62.8926C86.3178 64.0579 87.0742 65.1391 87.9609 66.1086C87.3609 66.8106 86.1609 66.6066 86.1609 66.6066L85.7109 62.8926Z" fill="#FF5652"/>
<path d="M83.779 60.1271C83.8102 60.1317 83.842 60.1293 83.8721 60.1199C83.9022 60.1106 83.9299 60.0945 83.953 60.0731C84.161 59.8782 84.4137 59.7375 84.6888 59.6632C84.964 59.589 85.2532 59.5834 85.531 59.6471C85.5593 59.6561 85.5892 59.6592 85.6189 59.6562C85.6485 59.6531 85.6771 59.644 85.703 59.6294C85.729 59.6147 85.7516 59.5949 85.7695 59.5711C85.7873 59.5473 85.8001 59.52 85.807 59.4911C85.822 59.4314 85.8136 59.3683 85.7834 59.3147C85.7533 59.2611 85.7037 59.2212 85.645 59.2031C85.2942 59.1193 84.9282 59.1226 84.579 59.2125C84.2297 59.3024 83.9077 59.4763 83.641 59.7191C83.6186 59.7403 83.6009 59.7659 83.5887 59.7943C83.5766 59.8227 83.5703 59.8532 83.5703 59.8841C83.5703 59.9149 83.5766 59.9454 83.5887 59.9738C83.6009 60.0022 83.6186 60.0278 83.641 60.0491C83.6576 60.0706 83.6784 60.0886 83.7021 60.102C83.7258 60.1154 83.7519 60.1239 83.779 60.1271Z" fill="#263238"/>
<path d="M73.3633 66.541C74.5093 70.015 76.0333 76.417 73.8613 78.985C73.8613 78.985 75.2893 82.483 81.8653 81.925C89.1073 81.325 84.8653 78.055 84.8653 78.055C80.7973 77.455 80.5213 74.521 80.8573 71.719L73.3633 66.541Z" fill="#FF8B7B"/>
<path d="M72.3062 80.2495C71.6282 79.1635 70.8722 77.9215 72.1562 77.4595C73.5662 76.9495 81.4862 76.1215 84.3062 76.8175C87.1262 77.5135 86.5502 79.8175 86.5502 79.8175L72.3062 80.2495Z" fill="#FE7777"/>
<path d="M95.496 81.715C96.528 82.663 97.644 83.713 98.754 84.673C99.864 85.633 100.986 86.617 102.114 87.565C103.242 88.513 104.394 89.407 105.552 90.277C106.71 91.147 107.886 91.939 109.062 92.677L106.662 92.449C107.659 92.183 108.603 91.7466 109.452 91.159C110.444 90.4659 111.364 89.676 112.2 88.801C113.101 87.8793 113.944 86.9035 114.726 85.879C115.128 85.357 115.53 84.829 115.926 84.283C116.322 83.737 116.682 83.161 117.012 82.657L117.078 82.561C117.306 82.213 117.651 81.9584 118.051 81.8439C118.451 81.7293 118.879 81.7624 119.257 81.937C119.634 82.1116 119.936 82.4161 120.108 82.795C120.28 83.174 120.31 83.602 120.192 84.001C119.964 84.781 119.724 85.447 119.448 86.143C119.172 86.839 118.884 87.523 118.56 88.195C117.903 89.5658 117.134 90.8802 116.262 92.125C115.346 93.445 114.279 94.6533 113.082 95.725C111.757 96.9076 110.22 97.8279 108.552 98.437C108.194 98.5632 107.814 98.6171 107.435 98.5954C107.056 98.5738 106.685 98.4771 106.344 98.311L106.146 98.209C104.656 97.4769 103.21 96.6595 101.814 95.761C100.452 94.879 99.132 93.961 97.86 92.977C96.588 91.993 95.358 90.997 94.158 89.977C92.958 88.957 91.806 87.889 90.636 86.695C90.0134 86.0457 89.6665 85.1804 89.668 84.2808C89.6695 83.3812 90.0193 82.5171 90.6441 81.8698C91.2689 81.2225 92.12 80.8424 93.019 80.809C93.918 80.7757 94.795 81.0918 95.466 81.691L95.496 81.715Z" fill="#FF8B7B"/>
<path d="M91.8307 78.601C91.8307 78.601 97.8787 84.469 98.5807 120.763C88.9087 123.109 79.6027 123.973 72.4147 123.061C72.0727 118.507 71.5627 102.703 66.9427 86.041C66.7442 85.3392 66.6938 84.6038 66.7947 83.8815C66.8955 83.1592 67.1454 82.4658 67.5285 81.8452C67.9116 81.2246 68.4195 80.6904 69.02 80.2765C69.6204 79.8626 70.3004 79.5781 71.0167 79.441C71.9347 79.261 72.9007 79.099 73.8607 78.973C77.5077 78.4513 81.1819 78.1408 84.8647 78.043C87.1971 78.062 89.5251 78.2485 91.8307 78.601Z" fill="#263238"/>
<path d="M87.139 84.9247C87.739 89.4667 95.539 98.1967 95.539 98.1967L104.797 88.5967C102.047 85.7094 99.0737 83.0432 95.905 80.6227C89.119 75.5527 86.599 80.7127 87.139 84.9247Z" fill="#263238"/>
<path d="M119.592 85.5972L122.688 82.7592L118.98 78.9492C117.753 79.9936 116.909 81.4163 116.58 82.9932C116.544 83.3537 116.639 83.7152 116.849 84.0107C117.058 84.3063 117.368 84.5161 117.72 84.6012L119.592 85.5972Z" fill="#FF8B7B"/>
<path d="M123.829 80.6937L123.031 78.7317C122.963 78.5634 122.863 78.4103 122.735 78.2816C122.607 78.1528 122.455 78.051 122.287 77.9822C122.119 77.9134 121.939 77.879 121.758 77.8809C121.576 77.8829 121.397 77.9213 121.231 77.9937L118.957 78.9477L122.665 82.7577L123.313 82.3197C123.573 82.1495 123.766 81.8948 123.86 81.5985C123.954 81.3023 123.943 80.9827 123.829 80.6937Z" fill="#FF8B7B"/>
<path d="M72.4387 62.3995C73.3087 67.1995 73.5727 70.0435 76.2727 72.3295C80.3347 75.7675 85.9387 73.0915 86.4727 68.1895C86.9767 63.7735 85.4707 56.6635 80.5867 55.1155C75.7027 53.5675 71.5687 57.5995 72.4387 62.3995Z" fill="#FF8B7B"/>
<path d="M81.8996 64.1283C83.5856 64.5123 84.8996 62.5623 85.0796 62.0103C84.2576 62.0883 82.7996 61.6683 82.5116 61.2963C83.4116 61.3743 84.2816 60.2643 84.3896 59.8383C83.4348 59.654 82.5891 59.1052 82.0316 58.3083C83.4896 58.2783 85.2416 55.7103 83.6396 53.4123C82.0376 51.1143 75.3416 53.0403 74.3996 51.4023C72.9956 52.2183 74.2436 53.3043 74.2436 53.3043C74.2436 53.3043 64.7696 55.1043 69.1376 58.7583C65.9336 59.0463 65.4836 62.8323 68.1536 64.7583C70.8236 66.6843 70.9616 67.9563 69.8996 67.8003C70.3256 68.6163 72.2276 68.7243 72.3356 67.9323C72.7856 69.5943 74.0816 71.8443 77.0696 71.4783C80.0576 71.1123 82.9856 66.9303 81.8996 64.1283Z" fill="#263238"/>
<path d="M69.9671 58.2011C67.7111 58.5131 66.6851 57.2411 67.2491 56.1191C64.4531 57.5471 67.5071 60.7031 69.9671 58.2011Z" fill="#263238"/>
<path d="M79.5662 63.3967C79.9545 64.4023 80.6412 65.265 81.5342 65.8687C82.7342 66.6607 83.8202 65.8687 83.6162 64.6687C83.4302 63.5647 82.5842 61.8187 81.3362 61.5067C81.0777 61.4219 80.8004 61.4127 80.5369 61.4801C80.2733 61.5476 80.0345 61.6889 79.8486 61.8874C79.6626 62.086 79.5373 62.3335 79.4873 62.6009C79.4372 62.8683 79.4646 63.1444 79.5662 63.3967Z" fill="#FF8B7B"/>
<path d="M232.068 232.512C227.628 222.036 225.834 209.712 230.916 210.222C236.13 210.726 235.518 229.302 236.364 231.342C234.738 232.74 232.068 232.512 232.068 232.512Z" fill="#FE7777"/>
<path d="M233.507 212.635C232.415 216.631 231.257 222.805 230.375 228.037C230.879 229.537 231.449 231.037 232.067 232.513C232.067 232.513 234.731 232.741 236.369 231.343C235.697 229.735 235.937 217.831 233.507 212.635Z" fill="#263238"/>
<path d="M233.532 230.592C232.14 208.332 235.932 187.698 245.916 188.628C254.484 189.432 241.992 226.908 242.232 231.228C238.308 232.752 233.532 230.592 233.532 230.592Z" fill="#FE7777"/>
<path d="M240 230.448C241.566 214.446 250.008 195.774 253.632 202.014C258.234 209.934 246.432 228.798 246.114 231.9C243.162 232.536 240 230.448 240 230.448Z" fill="#FE7777"/>
<path d="M238.422 194.573C237.408 194.405 236.844 193.775 236.91 192.881C236.982 191.873 237.81 190.871 238.578 190.859C238.95 190.859 239.573 191.051 239.729 192.437L239.129 192.509C239.057 191.849 238.86 191.459 238.596 191.459C238.188 191.459 237.563 192.203 237.515 192.923C237.473 193.523 237.81 193.859 238.524 193.979L238.422 194.573Z" fill="#FE7777"/>
<path d="M249.197 198.6C248.761 198.565 248.345 198.405 247.997 198.138L248.321 197.64C248.879 198 249.311 198.096 249.479 197.892C249.731 197.568 249.557 196.62 249.035 196.122C248.615 195.72 248.123 195.75 247.577 196.23L247.188 195.774C247.328 195.616 247.499 195.488 247.69 195.398C247.882 195.308 248.089 195.257 248.301 195.249C248.512 195.241 248.723 195.276 248.92 195.352C249.118 195.428 249.298 195.543 249.449 195.69C250.181 196.386 250.427 197.658 249.947 198.264C249.859 198.377 249.744 198.466 249.614 198.524C249.483 198.583 249.34 198.609 249.197 198.6Z" fill="#FE7777"/>
<path d="M234.492 207.661C234.129 207.687 233.768 207.579 233.479 207.358C233.189 207.137 232.991 206.818 232.92 206.461C232.68 205.483 233.16 204.277 233.892 204.025C234.234 203.911 234.894 203.899 235.47 205.177L234.918 205.429C234.648 204.829 234.318 204.505 234.084 204.595C233.7 204.727 233.334 205.621 233.484 206.317C233.622 206.917 234.084 207.121 234.768 207.013L234.858 207.613C234.737 207.639 234.615 207.655 234.492 207.661Z" fill="#FE7777"/>
<path d="M228.103 220.087C227.81 220.093 227.523 220.012 227.277 219.852C227.032 219.692 226.841 219.463 226.729 219.193C226.309 218.275 226.555 216.997 227.221 216.613C227.539 216.433 228.187 216.301 228.991 217.453L228.499 217.795C228.115 217.249 227.749 217.003 227.521 217.135C227.167 217.339 226.975 218.287 227.275 218.935C227.521 219.469 227.989 219.613 228.667 219.373L228.865 219.943C228.621 220.035 228.363 220.083 228.103 220.087Z" fill="#FE7777"/>
<path d="M238.734 201.972C238.672 201.971 238.612 201.953 238.56 201.918C238.188 201.712 237.902 201.377 237.757 200.977C237.611 200.577 237.615 200.137 237.768 199.74C237.942 199.341 238.24 199.009 238.617 198.793C238.994 198.577 239.431 198.488 239.862 198.54C240.234 198.606 241.104 198.936 241.164 200.532C241.164 200.611 241.133 200.688 241.077 200.744C241.02 200.8 240.944 200.832 240.864 200.832C240.785 200.832 240.709 200.8 240.652 200.744C240.596 200.688 240.564 200.611 240.564 200.532C240.528 199.698 240.246 199.194 239.754 199.104C239.456 199.08 239.157 199.15 238.9 199.303C238.643 199.457 238.441 199.687 238.32 199.962C238.104 200.472 238.32 200.988 238.92 201.414C238.973 201.45 239.012 201.503 239.033 201.564C239.053 201.624 239.054 201.69 239.035 201.751C239.015 201.812 238.977 201.865 238.925 201.903C238.873 201.94 238.81 201.96 238.746 201.96L238.734 201.972Z" fill="white"/>
<path d="M245.843 218.166C245.774 218.167 245.707 218.144 245.655 218.1C245.602 218.056 245.566 217.994 245.555 217.926C245.546 217.888 245.545 217.849 245.552 217.81C245.559 217.771 245.573 217.734 245.594 217.701C245.616 217.668 245.643 217.64 245.676 217.618C245.708 217.596 245.744 217.58 245.783 217.572C246.599 217.404 247.049 217.038 247.061 216.54C247.034 216.242 246.915 215.959 246.721 215.732C246.526 215.504 246.265 215.342 245.975 215.268C245.435 215.136 244.955 215.43 244.637 216.09C244.62 216.126 244.595 216.158 244.566 216.184C244.536 216.21 244.502 216.23 244.465 216.243C244.427 216.256 244.388 216.261 244.348 216.258C244.309 216.256 244.27 216.246 244.235 216.228C244.199 216.211 244.168 216.187 244.142 216.157C244.116 216.128 244.096 216.093 244.083 216.056C244.07 216.019 244.065 215.979 244.067 215.94C244.069 215.9 244.08 215.862 244.097 215.826C244.244 215.428 244.527 215.095 244.896 214.886C245.265 214.676 245.696 214.603 246.113 214.68C246.537 214.785 246.916 215.023 247.194 215.359C247.473 215.694 247.636 216.111 247.661 216.546C247.661 216.924 247.469 217.836 245.909 218.16L245.843 218.166Z" fill="white"/>
<path d="M254.279 213.107C253.931 213.107 253.469 212.903 252.953 212.129L253.451 211.793C253.823 212.345 254.177 212.597 254.411 212.471C254.771 212.279 255.011 211.331 254.693 210.671C254.465 210.137 253.997 209.981 253.313 210.203L253.127 209.633C254.099 209.315 254.891 209.633 255.245 210.437C255.647 211.361 255.377 212.633 254.699 212.999C254.571 213.072 254.426 213.109 254.279 213.107Z" fill="#FE7777"/>
<path d="M252.492 236.321C252.496 233.119 251.348 230.023 249.258 227.597C249.463 227.567 249.651 227.465 249.787 227.309C249.924 227.152 250 226.953 250.002 226.745C250 226.511 249.906 226.286 249.74 226.121C249.573 225.956 249.348 225.863 249.114 225.863H229.026C228.807 225.866 228.597 225.951 228.438 226.101C228.278 226.251 228.181 226.455 228.164 226.673C228.148 226.891 228.213 227.108 228.348 227.28C228.483 227.452 228.678 227.567 228.894 227.603C227.58 229.129 226.627 230.932 226.106 232.877C225.585 234.822 225.51 236.859 225.885 238.838C226.26 240.816 227.077 242.684 228.274 244.303C229.471 245.922 231.018 247.251 232.8 248.189C232.606 248.289 232.451 248.452 232.36 248.65C232.27 248.849 232.249 249.073 232.301 249.285C232.353 249.497 232.475 249.685 232.647 249.819C232.819 249.954 233.031 250.026 233.25 250.025H244.884C245.141 250.024 245.387 249.921 245.569 249.739C245.751 249.557 245.854 249.311 245.856 249.053C245.855 248.876 245.806 248.701 245.714 248.549C245.622 248.397 245.491 248.273 245.334 248.189C247.494 247.05 249.303 245.343 250.564 243.251C251.825 241.16 252.492 238.764 252.492 236.321Z" fill="#263238"/>
</svg>
