<?xml version="1.0" standalone="no"?>
<!DOCTYPE svg PUBLIC "-//W3C//DTD SVG 20010904//EN"
 "http://www.w3.org/TR/2001/REC-SVG-20010904/DTD/svg10.dtd">
<svg version="1.0" xmlns="http://www.w3.org/2000/svg"
 width="512.000000pt" height="512.000000pt" viewBox="0 0 512.000000 512.000000"
 preserveAspectRatio="xMidYMid meet">

<g transform="translate(0.000000,512.000000) scale(0.100000,-0.100000)"
fill="#FE7777" stroke="#FE7777">
<path d="M2455 5106 c-84 -21 -147 -57 -211 -121 -125 -124 -165 -300 -106
-468 15 -42 18 -59 9 -62 -226 -78 -378 -172 -542 -339 -195 -196 -306 -400
-367 -671 -19 -81 -21 -140 -28 -605 -8 -543 -12 -590 -60 -737 -36 -110 -83
-189 -220 -371 -227 -302 -298 -498 -316 -872 -6 -126 -5 -138 15 -177 14 -29
34 -49 61 -63 38 -19 58 -20 655 -20 l615 0 0 -33 c0 -55 37 -184 72 -250 42
-81 164 -203 245 -245 80 -42 198 -72 283 -72 85 0 203 30 283 72 81 42 203
164 245 245 35 66 72 195 72 250 l0 33 615 0 c597 0 617 1 655 20 27 14 47 34
61 63 20 39 21 51 15 177 -11 234 -51 417 -125 576 -44 94 -87 160 -222 337
-106 140 -154 225 -189 330 -48 147 -52 194 -60 737 -7 469 -9 523 -28 605
-42 182 -99 317 -197 466 -149 228 -377 414 -631 514 l-92 37 20 56 c59 166
19 342 -107 468 -112 113 -269 158 -420 120z m175 -306 c45 -23 80 -80 80
-131 0 -74 -76 -149 -151 -149 -46 0 -108 39 -130 82 -37 72 -14 151 57 194
48 29 92 30 144 4z m170 -608 c198 -52 365 -146 501 -281 135 -135 226 -298
282 -501 19 -69 21 -114 27 -585 8 -546 12 -597 65 -780 50 -171 105 -271 278
-498 116 -153 156 -221 193 -330 27 -79 54 -218 54 -278 l0 -39 -1641 0 -1642
0 7 79 c16 200 82 357 233 556 183 241 238 337 288 510 53 183 57 234 65 780
7 487 8 514 30 595 112 417 449 725 865 790 93 14 308 4 395 -18z m56 -3634
c-16 -101 -82 -189 -175 -232 -64 -29 -178 -29 -242 0 -93 43 -159 131 -175
232 l-7 42 303 0 303 0 -7 -42z"/>
<path d="M1577 4851 c-79 -41 -165 -102 -265 -185 -418 -348 -671 -856 -699
-1401 -5 -110 -4 -124 16 -162 38 -76 124 -102 201 -63 59 30 76 72 83 210 22
409 188 786 472 1074 98 100 165 154 302 245 123 81 147 135 102 227 -15 31
-32 48 -63 63 -57 28 -84 26 -149 -8z"/>
<path d="M3405 4866 c-55 -24 -95 -85 -95 -143 0 -57 30 -92 144 -168 203
-135 345 -276 477 -473 173 -258 279 -592 279 -885 0 -77 27 -130 80 -157 77
-39 163 -13 201 63 20 38 21 52 16 162 -32 612 -340 1161 -853 1518 -134 93
-186 111 -249 83z"/>
</g>
</svg>
