<svg width="40" height="40" viewBox="0 0 40 40" fill="none" xmlns="http://www.w3.org/2000/svg">
<path d="M20 0L26.0617 5.36575L34.1421 5.85786L34.6343 13.9383L40 20L34.6343 26.0617L34.1421 34.1421L26.0617 34.6343L20 40L13.9383 34.6343L5.85786 34.1421L5.36575 26.0617L0 20L5.36575 13.9383L5.85786 5.85786L13.9383 5.36575L20 0Z" fill="#FE7777"/>
<path d="M34 20C34 27.732 27.732 34 20 34C12.268 34 6 27.732 6 20C6 12.268 12.268 6 20 6C27.732 6 34 12.268 34 20ZM7.54 20C7.54 26.8815 13.1185 32.46 20 32.46C26.8815 32.46 32.46 26.8815 32.46 20C32.46 13.1185 26.8815 7.54 20 7.54C13.1185 7.54 7.54 13.1185 7.54 20Z" fill="white"/>
<path d="M10.9646 26V14.8H15.7966C17.0446 14.8 18.01 15.0507 18.6926 15.552C19.386 16.0533 19.7326 16.7627 19.7326 17.68C19.7326 18.288 19.5886 18.8 19.3006 19.216C19.0233 19.632 18.6393 19.9467 18.1486 20.16C17.6686 20.3733 17.1406 20.48 16.5646 20.48L16.8366 20.096C17.5513 20.096 18.1646 20.208 18.6766 20.432C19.1993 20.6453 19.6046 20.9707 19.8926 21.408C20.1806 21.8347 20.3246 22.368 20.3246 23.008C20.3246 23.9573 19.9726 24.6933 19.2686 25.216C18.5753 25.7387 17.5246 26 16.1166 26H10.9646ZM12.1486 25.024H16.1006C17.082 25.024 17.834 24.8587 18.3566 24.528C18.8793 24.1867 19.1406 23.648 19.1406 22.912C19.1406 22.1867 18.8793 21.6587 18.3566 21.328C17.834 20.9867 17.082 20.816 16.1006 20.816H12.0206V19.84H15.7166C16.6126 19.84 17.306 19.6693 17.7966 19.328C18.298 18.9867 18.5486 18.48 18.5486 17.808C18.5486 17.1253 18.298 16.6187 17.7966 16.288C17.306 15.9467 16.6126 15.776 15.7166 15.776H12.1486V25.024ZM26.3551 26.08C25.4805 26.08 24.7125 25.8987 24.0511 25.536C23.3898 25.1627 22.8725 24.656 22.4991 24.016C22.1258 23.3653 21.9391 22.624 21.9391 21.792C21.9391 20.96 22.1151 20.224 22.4671 19.584C22.8298 18.944 23.3205 18.4427 23.9391 18.08C24.5685 17.7067 25.2725 17.52 26.0511 17.52C26.8405 17.52 27.5391 17.7013 28.1471 18.064C28.7658 18.416 29.2511 18.9173 29.6031 19.568C29.9551 20.208 30.1311 20.9493 30.1311 21.792C30.1311 21.8453 30.1258 21.904 30.1151 21.968C30.1151 22.0213 30.1151 22.08 30.1151 22.144H22.8031V21.296H29.5071L29.0591 21.632C29.0591 21.024 28.9258 20.4853 28.6591 20.016C28.4031 19.536 28.0511 19.1627 27.6031 18.896C27.1551 18.6293 26.6378 18.496 26.0511 18.496C25.4751 18.496 24.9578 18.6293 24.4991 18.896C24.0405 19.1627 23.6831 19.536 23.4271 20.016C23.1711 20.496 23.0431 21.0453 23.0431 21.664V21.84C23.0431 22.48 23.1818 23.0453 23.4591 23.536C23.7471 24.016 24.1418 24.3947 24.6431 24.672C25.1551 24.9387 25.7365 25.072 26.3871 25.072C26.8991 25.072 27.3738 24.9813 27.8111 24.8C28.2591 24.6187 28.6431 24.3413 28.9631 23.968L29.6031 24.704C29.2298 25.152 28.7605 25.4933 28.1951 25.728C27.6405 25.9627 27.0271 26.08 26.3551 26.08Z" fill="white"/>
<rect x="23" y="16.5" width="6.5" height="0.5" fill="white"/>
</svg>
