<svg width="40" height="40" viewBox="0 0 40 40" fill="none" xmlns="http://www.w3.org/2000/svg">
<path d="M20 0L26.0617 5.36575L34.1421 5.85786L34.6343 13.9383L40 20L34.6343 26.0617L34.1421 34.1421L26.0617 34.6343L20 40L13.9383 34.6343L5.85786 34.1421L5.36575 26.0617L0 20L5.36575 13.9383L5.85786 5.85786L13.9383 5.36575L20 0Z" fill="#FE7777"/>
<path d="M20 10L22.2451 16.9098H29.5106L23.6327 21.1803L25.8779 28.0902L20 23.8197L14.1221 28.0902L16.3673 21.1803L10.4894 16.9098H17.7549L20 10Z" fill="white"/>
<path d="M34 20C34 27.732 27.732 34 20 34C12.268 34 6 27.732 6 20C6 12.268 12.268 6 20 6C27.732 6 34 12.268 34 20ZM7.54 20C7.54 26.8815 13.1185 32.46 20 32.46C26.8815 32.46 32.46 26.8815 32.46 20C32.46 13.1185 26.8815 7.54 20 7.54C13.1185 7.54 7.54 13.1185 7.54 20Z" fill="white"/>
</svg>
