<svg width="40" height="40" viewBox="0 0 40 40" fill="none" xmlns="http://www.w3.org/2000/svg">
<path d="M20 0L26.0617 5.36575L34.1421 5.85786L34.6343 13.9383L40 20L34.6343 26.0617L34.1421 34.1421L26.0617 34.6343L20 40L13.9383 34.6343L5.85786 34.1421L5.36575 26.0617L0 20L5.36575 13.9383L5.85786 5.85786L13.9383 5.36575L20 0Z" fill="#FE7777"/>
<path d="M34 20C34 27.732 27.732 34 20 34C12.268 34 6 27.732 6 20C6 12.268 12.268 6 20 6C27.732 6 34 12.268 34 20ZM7.54 20C7.54 26.8815 13.1185 32.46 20 32.46C26.8815 32.46 32.46 26.8815 32.46 20C32.46 13.1185 26.8815 7.54 20 7.54C13.1185 7.54 7.54 13.1185 7.54 20Z" fill="white"/>
<g clip-path="url(#clip0_918_4076)">
<path fill-rule="evenodd" clip-rule="evenodd" d="M17.7144 18.6842C17.4431 18.495 17.0628 18.5522 16.8661 18.8128C16.6688 19.0729 16.7292 19.4375 17.0003 19.626L19.6908 21.5L23.7898 14.8796C23.9613 14.6033 23.8656 14.2459 23.5775 14.0815C23.2886 13.9176 22.9156 14.0086 22.7448 14.2855L19.3268 19.8067L17.7144 18.6842Z" fill="white"/>
<path fill-rule="evenodd" clip-rule="evenodd" d="M25.3769 25.1308C24.6015 25.1308 23.9713 24.5092 23.9713 23.7463C23.9713 22.9825 24.6015 22.3611 25.3769 22.3611C26.1522 22.3611 26.7831 22.9825 26.7831 23.7463C26.7831 24.5092 26.1522 25.1308 25.3769 25.1308ZM14.9667 25.1308C14.192 25.1308 13.5611 24.5092 13.5611 23.7463C13.5611 22.9825 14.192 22.3611 14.9667 22.3611C15.7421 22.3611 16.373 22.9825 16.373 23.7463C16.373 24.5092 15.7421 25.1308 14.9667 25.1308ZM30.4042 21.2506C29.8838 20.1722 29.3493 19.59 28.7717 19.4707L25.5619 18.808C25.3515 18.7647 25.1586 18.6532 25.0181 18.4933L23.7929 17.1029C23.7237 17.0242 23.6484 16.952 23.5706 16.8832L23.1075 17.6528C23.1135 17.6594 23.1208 17.6659 23.1268 17.6725L24.3519 19.0629C24.6182 19.3651 24.9835 19.5762 25.3808 19.6588L28.5906 20.3215C28.799 20.3642 29.1757 20.7294 29.6076 21.6235C29.7885 21.9979 29.7873 22.424 29.6042 22.7931L29.4917 23.02C29.4047 23.1975 29.2183 23.3116 29.0186 23.3116H27.6217C27.4154 22.2765 26.4875 21.4924 25.3769 21.4924C24.266 21.4924 23.339 22.2765 23.1327 23.3116H17.2116C17.0052 22.2765 16.0776 21.4924 14.9667 21.4924C13.8567 21.4924 12.9289 22.2765 12.7226 23.3116H11.2805C11.0609 23.3116 10.8825 23.1359 10.8825 22.9196V20.7483C10.8825 20.5661 11.0076 20.4102 11.1866 20.3675L13.3475 19.8548C13.7569 19.7572 14.1169 19.5178 14.3612 19.1804L15.3668 17.7925C15.6722 17.3709 16.1687 17.1185 16.6952 17.1185H20.4573L20.9804 16.25H16.6952C15.8838 16.25 15.1192 16.638 14.6486 17.2883L13.6431 18.6762C13.522 18.8434 13.3443 18.962 13.1413 19.0098L10.9803 19.5225C10.4033 19.6595 10 20.1636 10 20.7483V22.9196C10 23.6144 10.5743 24.1803 11.2805 24.1803H12.7226C12.9289 25.2159 13.8567 26 14.9667 26C16.0776 26 17.0052 25.2159 17.2116 24.1803H23.1327C23.339 25.2159 24.266 26 25.3769 26C26.4875 26 27.4154 25.2159 27.6217 24.1803H29.0186C29.5531 24.1803 30.0502 23.8747 30.285 23.4014L30.3976 23.1745C30.6983 22.5662 30.701 21.8648 30.4042 21.2506Z" fill="white"/>
</g>
<defs>
<clipPath id="clip0_918_4076">
<rect width="20.625" height="12" fill="white" transform="translate(10 14)"/>
</clipPath>
</defs>
</svg>
