<svg width="12" height="12" viewBox="0 0 12 12" fill="none" xmlns="http://www.w3.org/2000/svg">
<path fill-rule="evenodd" clip-rule="evenodd" d="M3.87995 3.10567C3.87995 2.56241 3.43231 2.12013 2.88114 2.12013C2.33056 2.12013 1.88234 2.56241 1.88234 3.10567C1.88234 3.64894 2.33056 4.09121 2.88114 4.09121C3.43231 4.09121 3.87995 3.64894 3.87995 3.10567ZM4.76229 3.10567C4.76229 4.12894 3.91877 4.96183 2.88114 4.96183C1.8441 4.96183 1 4.12894 1 3.10567C1 2.0824 1.8441 1.24951 2.88114 1.24951C3.91877 1.24951 4.76229 2.0824 4.76229 3.10567ZM11 3.10579C11 2.8655 10.8024 2.67048 10.5588 2.67048H6.94125C6.69772 2.67048 6.50008 2.8655 6.50008 3.10579C6.50008 3.34608 6.69772 3.5411 6.94125 3.5411H10.5588C10.8024 3.5411 11 3.34608 11 3.10579ZM8.11987 8.88966C8.11987 9.43293 8.56751 9.87521 9.11868 9.87521C9.66985 9.87521 10.1175 9.43293 10.1175 8.88966C10.1175 8.34582 9.66985 7.90412 9.11868 7.90412C8.56751 7.90412 8.11987 8.34582 8.11987 8.88966ZM7.23754 8.88966C7.23754 7.86582 8.08105 7.0335 9.11868 7.0335C10.1563 7.0335 10.9998 7.86582 10.9998 8.88966C10.9998 9.91293 10.1563 10.7458 9.11868 10.7458C8.08105 10.7458 7.23754 9.91293 7.23754 8.88966ZM1.44343 8.45418H5.06043C5.30395 8.45418 5.5016 8.6492 5.5016 8.88949C5.5016 9.12978 5.30395 9.3248 5.06043 9.3248H1.44343C1.19991 9.3248 1.00226 9.12978 1.00226 8.88949C1.00226 8.6492 1.19991 8.45418 1.44343 8.45418Z" fill="#747474"/>
</svg>
