<svg width="40" height="40" viewBox="0 0 40 40" fill="none" xmlns="http://www.w3.org/2000/svg">
<path d="M20 0L26.0617 5.36575L34.1421 5.85786L34.6343 13.9383L40 20L34.6343 26.0617L34.1421 34.1421L26.0617 34.6343L20 40L13.9383 34.6343L5.85786 34.1421L5.36575 26.0617L0 20L5.36575 13.9383L5.85786 5.85786L13.9383 5.36575L20 0Z" fill="#FE7777"/>
<path d="M16.9917 25.4166L16.9917 16.9499C16.9917 16.6166 17.0917 16.2916 17.275 16.0166L19.55 12.6333C19.9083 12.0916 20.8 11.7083 21.5583 11.9916C22.375 12.2666 22.9167 13.1833 22.7417 13.9999L22.3083 16.7249C22.275 16.9749 22.3417 17.1999 22.4833 17.3749C22.625 17.5333 22.8333 17.6333 23.0583 17.6333H26.4833C27.1417 17.6333 27.7083 17.8999 28.0417 18.3666C28.3583 18.8166 28.4167 19.3999 28.2083 19.9916L26.1583 26.2333C25.9 27.2666 24.775 28.1083 23.6583 28.1083L20.4083 28.1083C19.85 28.1083 19.0667 27.9166 18.7083 27.5583L17.6417 26.7333C17.2333 26.4166 16.9917 25.9333 16.9917 25.4166Z" fill="white"/>
<path d="M14.3417 15.325H13.4833C12.1917 15.325 11.6667 15.825 11.6667 17.0583L11.6667 25.4333C11.6667 26.6666 12.1917 27.1666 13.4833 27.1666H14.3417C15.6333 27.1666 16.1583 26.6666 16.1583 25.4333L16.1583 17.05C16.1583 15.825 15.6333 15.325 14.3417 15.325Z" fill="white"/>
<path d="M34 20C34 27.732 27.732 34 20 34C12.268 34 6 27.732 6 20C6 12.268 12.268 6 20 6C27.732 6 34 12.268 34 20ZM7.54 20C7.54 26.8815 13.1185 32.46 20 32.46C26.8815 32.46 32.46 26.8815 32.46 20C32.46 13.1185 26.8815 7.54 20 7.54C13.1185 7.54 7.54 13.1185 7.54 20Z" fill="white"/>
</svg>
