<svg width="280" height="280" viewBox="0 0 280 280" fill="none" xmlns="http://www.w3.org/2000/svg">
<path d="M242.771 142.481C242.771 142.481 242.771 139.681 238.851 135.8C234.931 131.919 232.445 129.668 232.445 129.668C232.445 129.668 230.496 136.074 234.125 139.978C236.789 142.719 239.677 145.233 242.76 147.493L242.771 142.481Z" fill="#FE7777"/>
<path d="M237.115 159.874C237.115 159.874 237.115 157.074 233.195 153.194C229.275 149.313 226.8 147.062 226.8 147.062C226.8 147.062 224.846 153.468 228.48 157.371C231.144 160.113 234.033 162.626 237.115 164.886V159.874Z" fill="#FE7777"/>
<path d="M242.525 147.224C242.525 147.224 242.822 144.458 247.111 140.991C251.401 137.525 254.128 135.576 254.128 135.576C254.128 135.576 255.388 142.15 251.379 145.656C248.44 148.101 245.303 150.297 241.999 152.219L242.525 147.224Z" fill="#FE7777"/>
<path d="M235.693 167.765C235.693 167.765 236.253 165.043 240.907 162.047C245.56 159.051 248.45 157.399 248.45 157.399C248.45 157.399 249.01 164.074 244.659 167.126C241.479 169.25 238.128 171.104 234.64 172.67L235.693 167.765Z" fill="#FE7777"/>
<path d="M236.976 190.165C236.976 190.165 236.976 187.365 240.896 183.478C244.816 179.592 247.296 177.352 247.296 177.352C247.296 177.352 249.251 183.758 245.616 187.656C242.954 190.4 240.065 192.916 236.981 195.177L236.976 190.165Z" fill="#FE7777"/>
<path d="M236.914 195.63C236.914 195.63 237.306 192.875 234.002 188.462C230.698 184.05 228.531 181.485 228.531 181.485C228.531 181.485 225.691 187.55 228.721 191.923C230.967 195.016 233.467 197.916 236.197 200.592L236.914 195.63Z" fill="#FE7777"/>
<path d="M233.066 211.831C233.066 211.831 233.066 209.031 236.986 205.15C240.906 201.27 243.393 199.018 243.393 199.018C243.393 199.018 245.342 205.425 241.713 209.328C239.048 212.07 236.16 214.586 233.078 216.849L233.066 211.831Z" fill="#FE7777"/>
<path d="M235.671 226.52C235.671 226.52 234.965 223.826 237.748 219.066C240.531 214.306 242.396 211.518 242.396 211.518C242.396 211.518 245.902 217.218 243.387 221.911C241.506 225.238 239.35 228.402 236.942 231.37L235.671 226.52Z" fill="#FE7777"/>
<path d="M243.124 141.77C242.928 144.669 242.573 147.556 242.06 150.416C240.514 158.379 236.662 163.52 235.122 170.71C233.582 177.901 238.006 187.169 236.802 196.409C235.598 205.649 232.025 210.784 233.05 216.95C234.074 223.115 239.473 239.814 239.473 239.814" stroke="#263238" stroke-linecap="round" stroke-linejoin="round"/>
<path d="M242.491 149.078L246.691 145.852" stroke="#263238" stroke-linecap="round" stroke-linejoin="round"/>
<path d="M242.687 145.365L240.923 142.234" stroke="#263238" stroke-linecap="round" stroke-linejoin="round"/>
<path d="M235.357 170.38C235.357 170.38 238.874 167.742 242.491 165.105" stroke="#263238" stroke-linecap="round" stroke-linejoin="round"/>
<path d="M237.116 164.886C237.116 164.886 234.181 159.141 230.86 155.333" stroke="#263238" stroke-linecap="round" stroke-linejoin="round"/>
<path d="M237.115 194.13C239.121 190.422 241.657 187.026 244.642 184.05" stroke="#263238" stroke-linecap="round" stroke-linejoin="round"/>
<path d="M236.432 198.038C235.365 195.525 234.089 193.104 232.618 190.803C230.569 187.774 230.272 187.382 230.272 187.382" stroke="#263238" stroke-linecap="round" stroke-linejoin="round"/>
<path d="M233.066 216.95C233.959 214.742 235.019 212.606 236.236 210.56C237.454 208.658 238.827 206.86 240.341 205.184" stroke="#263238" stroke-linecap="round" stroke-linejoin="round"/>
<path d="M236.942 231.37C236.738 229.259 237.101 227.132 237.995 225.21C239.462 222.376 241.12 218.663 241.803 217.196" stroke="#263238" stroke-linecap="round" stroke-linejoin="round"/>
<path d="M210.952 179.693C210.952 179.693 210.65 177.946 212.671 175.073C214.693 172.2 216.031 170.537 216.031 170.537C216.031 170.537 217.946 174.345 216.098 177.178C214.726 179.188 213.188 181.08 211.501 182.834L210.952 179.693Z" fill="#FE7777"/>
<path d="M216.39 189.986C216.39 189.986 216.087 188.238 218.109 185.366C220.13 182.493 221.469 180.83 221.469 180.83C221.469 180.83 223.384 184.638 221.536 187.477C220.162 189.484 218.625 191.374 216.938 193.127L216.39 189.986Z" fill="#FE7777"/>
<path d="M211.619 182.638C211.619 182.638 211.137 180.958 208.068 179.228C204.999 177.498 203.084 176.59 203.084 176.59C203.084 176.59 203.006 180.852 205.884 182.61C207.992 183.824 210.196 184.859 212.475 185.707L211.619 182.638Z" fill="#FE7777"/>
<path d="M218.137 194.779C218.137 194.779 217.476 193.133 214.25 191.755C211.025 190.378 209.009 189.661 209.009 189.661C209.009 189.661 209.378 193.906 212.447 195.35C214.671 196.336 216.973 197.134 219.33 197.736L218.137 194.779Z" fill="#FE7777"/>
<path d="M219.761 208.964C219.761 208.964 219.464 207.217 216.591 205.195C213.719 203.174 211.91 202.048 211.91 202.048C211.91 202.048 211.383 206.276 214.077 208.326C216.045 209.759 218.13 211.023 220.31 212.106L219.761 208.964Z" fill="#FE7777"/>
<path d="M220.4 212.386C220.4 212.386 219.84 210.706 221.447 207.57C223.054 204.434 224.118 202.602 224.118 202.602C224.118 202.602 226.554 206.097 225.132 209.171C224.06 211.354 222.807 213.443 221.385 215.415L220.4 212.386Z" fill="#FE7777"/>
<path d="M225.294 226.47C225.294 226.47 225.495 224.711 228.245 222.55C230.994 220.388 232.725 219.139 232.725 219.139C232.725 219.139 233.492 223.334 230.922 225.534C229.039 227.075 227.031 228.455 224.918 229.662L225.294 226.47Z" fill="#FE7777"/>
<path d="M224.56 222.124C224.56 222.124 224.258 220.377 221.391 218.355C218.523 216.334 216.72 215.208 216.72 215.208C216.72 215.208 216.194 219.436 218.887 221.491C220.857 222.922 222.941 224.186 225.12 225.271L224.56 222.124Z" fill="#FE7777"/>
<path d="M224.56 231.622C224.56 231.622 224.706 229.852 222.444 227.17C220.181 224.487 218.714 222.942 218.714 222.942C218.714 222.942 217.129 226.895 219.218 229.566C220.749 231.447 222.435 233.197 224.258 234.797L224.56 231.622Z" fill="#FE7777"/>
<path d="M210.655 179.278C211.093 181.076 211.63 182.848 212.262 184.587C214.094 189.414 217.067 192.22 218.814 196.56C220.562 200.9 218.814 207.2 220.539 212.862C222.264 218.523 225.12 221.357 225.12 225.333C225.12 229.309 223.574 240.369 223.574 240.369" stroke="#263238" stroke-linecap="round" stroke-linejoin="round"/>
<path d="M211.848 183.792L208.863 182.23" stroke="#263238" stroke-linecap="round" stroke-linejoin="round"/>
<path d="M211.322 181.485L212.083 179.334" stroke="#263238" stroke-linecap="round" stroke-linejoin="round"/>
<path d="M218.63 196.381C218.63 196.381 216.138 195.11 213.59 193.844" stroke="#263238" stroke-linecap="round" stroke-linejoin="round"/>
<path d="M216.933 193.127C217.668 190.82 218.634 188.593 219.817 186.48" stroke="#263238" stroke-linecap="round" stroke-linejoin="round"/>
<path d="M220.108 211.462C218.447 209.359 216.489 207.508 214.295 205.968" stroke="#263238" stroke-linecap="round" stroke-linejoin="round"/>
<path d="M220.959 213.836C221.358 212.146 221.896 210.492 222.567 208.891C223.524 206.769 223.687 206.489 223.687 206.489" stroke="#263238" stroke-linecap="round" stroke-linejoin="round"/>
<path d="M224.986 228.351C225.957 227.148 227.033 226.033 228.2 225.019C228.943 224.472 229.64 223.865 230.283 223.205" stroke="#263238" stroke-linecap="round" stroke-linejoin="round"/>
<path d="M225.12 225.333C224.32 224.042 223.423 222.814 222.438 221.659C221.467 220.6 220.411 219.622 219.279 218.736" stroke="#263238" stroke-linecap="round" stroke-linejoin="round"/>
<path d="M224.258 234.797C224.158 233.45 223.699 232.155 222.931 231.045C221.704 229.426 220.259 227.276 219.671 226.43" stroke="#263238" stroke-linecap="round" stroke-linejoin="round"/>
<path d="M51.8952 155.299L49.4424 148.294L51.8952 151.267L49.9688 140.756L52.948 148.294L54.0008 133.571L55.7536 147.588L57.68 144.788V148.294L59.9592 143.562L58.7328 151.794L60.8328 150.394L57.5064 154.946L51.8952 155.299Z" fill="#FE7777"/>
<path d="M59.6063 153.546H50.4951L52.1359 171.942H57.9655L59.6063 153.546Z" fill="#263238" stroke="#263238" stroke-linecap="round" stroke-linejoin="round"/>
<path d="M76.6975 171.735H45.6567V237.479H76.6975V171.735Z" fill="white" stroke="#263238" stroke-linecap="round" stroke-linejoin="round"/>
<path d="M78.3943 171.735H61.1743V237.479H78.3943V171.735Z" fill="white" stroke="#263238" stroke-linecap="round" stroke-linejoin="round"/>
<path d="M76.4567 171.735H61.1743V237.479H76.4567V171.735Z" fill="#263238" stroke="#263238" stroke-linecap="round" stroke-linejoin="round"/>
<path d="M74.7375 222.191H61.1743V235.654H74.7375V222.191Z" fill="#FE7777" stroke="#263238" stroke-linecap="round" stroke-linejoin="round"/>
<path d="M74.7375 222.919H61.1743V224.644H74.7375V222.919Z" fill="white" stroke="#263238" stroke-linecap="round" stroke-linejoin="round"/>
<path d="M74.7375 232.831H61.1743V234.556H74.7375V232.831Z" fill="white" stroke="#263238" stroke-linecap="round" stroke-linejoin="round"/>
<path d="M63.7446 222.471V239.495" stroke="#263238" stroke-linecap="round" stroke-linejoin="round"/>
<path d="M68.4766 222.471V239.495" stroke="#263238" stroke-linecap="round" stroke-linejoin="round"/>
<path d="M72.6318 222.471V239.495" stroke="#263238" stroke-linecap="round" stroke-linejoin="round"/>
<path d="M74.7375 174.177H61.1743V193.973H74.7375V174.177Z" fill="#FE7777" stroke="#263238" stroke-linecap="round" stroke-linejoin="round"/>
<path d="M74.7375 175.006H61.1743V176.966H74.7375V175.006Z" fill="white" stroke="#263238" stroke-linecap="round" stroke-linejoin="round"/>
<path d="M74.7375 187.695H61.1743V189.655H74.7375V187.695Z" fill="white" stroke="#263238" stroke-linecap="round" stroke-linejoin="round"/>
<path d="M63.7446 174.49V193.838" stroke="#263238" stroke-linecap="round" stroke-linejoin="round"/>
<path d="M68.4766 174.49V193.838" stroke="#263238" stroke-linecap="round" stroke-linejoin="round"/>
<path d="M72.6318 174.49V193.838" stroke="#263238" stroke-linecap="round" stroke-linejoin="round"/>
<path d="M74.7375 198.033H61.1743V217.829H74.7375V198.033Z" fill="#FE7777" stroke="#263238" stroke-linecap="round" stroke-linejoin="round"/>
<path d="M74.7375 198.862H61.1743V200.822H74.7375V198.862Z" fill="white" stroke="#263238" stroke-linecap="round" stroke-linejoin="round"/>
<path d="M74.7375 211.551H61.1743V213.511H74.7375V211.551Z" fill="white" stroke="#263238" stroke-linecap="round" stroke-linejoin="round"/>
<path d="M63.7446 198.352V217.694" stroke="#263238" stroke-linecap="round" stroke-linejoin="round"/>
<path d="M68.4766 198.352V217.694" stroke="#263238" stroke-linecap="round" stroke-linejoin="round"/>
<path d="M72.6318 198.352V217.694" stroke="#263238" stroke-linecap="round" stroke-linejoin="round"/>
<path d="M76.6919 193.698H61.1743V195.95H76.6919V193.698Z" fill="white" stroke="#263238" stroke-linecap="round" stroke-linejoin="round"/>
<path d="M76.6919 217.706H61.1743V219.957H76.6919V217.706Z" fill="white" stroke="#263238" stroke-linecap="round" stroke-linejoin="round"/>
<path d="M76.6919 171.735V237.474" stroke="#263238" stroke-linecap="round" stroke-linejoin="round"/>
<path d="M58.9849 171.735V237.474H61.1745V174.177H76.4233V171.707L58.9849 171.735Z" fill="white" stroke="#263238" stroke-linecap="round" stroke-linejoin="round"/>
<path d="M61.1743 174.177V171.735" stroke="#263238" stroke-linecap="round" stroke-linejoin="round"/>
<path d="M76.5745 141.534C74.9449 138.393 74.2617 136.142 74.2617 135.621C74.2617 134.59 76.5017 133.974 76.5017 133.974C79.9961 132.126 96.4321 134.798 103.83 136.03C107.971 136.752 112.16 137.163 116.363 137.262C116.363 137.262 117.387 136.444 118.603 135.414C119.818 134.383 125.586 127.607 127.848 127.014C130.111 126.42 132.16 127.837 132.16 127.837C132.16 127.837 135.862 130.077 135.24 130.508C134.619 130.939 125.586 138.723 123.323 140.162C121.061 141.602 116.34 140.986 112.23 141.809C108.691 142.514 94.3545 143.388 91.0673 143.657C88.5986 144.242 86.0076 144.027 83.6697 143.041" fill="white"/>
<path d="M132.199 127.814C132.199 127.814 130.144 126.375 127.887 126.991C125.63 127.607 119.874 134.389 118.642 135.391C117.41 136.394 116.402 137.239 116.402 137.239C112.199 137.141 108.01 136.729 103.869 136.007C96.4712 134.775 80.0352 132.087 76.5408 133.952C76.5408 133.952 74.3008 134.568 74.3008 135.598C74.3786 136.174 74.5272 136.739 74.7432 137.278L75.0512 137.39C75.0512 137.39 79.156 136.959 88.0152 137.172C96.8744 137.385 117.365 138.6 118.681 139.076C119.241 139.289 123.211 138.393 127.613 136.836C130.973 134.098 134.921 130.676 135.318 130.435C135.901 130.071 132.199 127.814 132.199 127.814Z" fill="#FE7777"/>
<path opacity="0.5" d="M132.199 127.814C132.199 127.814 130.144 126.375 127.887 126.991C125.63 127.607 119.874 134.389 118.642 135.391C117.41 136.394 116.402 137.239 116.402 137.239C112.199 137.141 108.01 136.729 103.869 136.007C96.4712 134.775 80.0352 132.087 76.5408 133.952C76.5408 133.952 74.3008 134.568 74.3008 135.598C74.3786 136.174 74.5272 136.739 74.7432 137.278L75.0512 137.39C75.0512 137.39 79.156 136.959 88.0152 137.172C96.8744 137.385 117.365 138.6 118.681 139.076C119.241 139.289 123.211 138.393 127.613 136.836C130.973 134.098 134.921 130.676 135.318 130.435C135.901 130.071 132.199 127.814 132.199 127.814Z" fill="white"/>
<path d="M76.5745 141.534C74.9449 138.393 74.2617 136.142 74.2617 135.621C74.2617 134.59 76.5017 133.974 76.5017 133.974C79.9961 132.126 96.4321 134.798 103.83 136.03C107.971 136.752 112.16 137.163 116.363 137.262C116.363 137.262 117.387 136.444 118.603 135.414C119.818 134.383 125.586 127.607 127.848 127.014C130.111 126.42 132.16 127.837 132.16 127.837C132.16 127.837 135.862 130.077 135.24 130.508C134.619 130.939 125.586 138.723 123.323 140.162C121.061 141.602 116.34 140.986 112.23 141.809C108.691 142.514 94.3545 143.388 91.0673 143.657C88.5986 144.242 86.0076 144.027 83.6697 143.041" stroke="#263238" stroke-linecap="round" stroke-linejoin="round"/>
<path d="M157.724 159.802C158.096 159.096 158.653 158.506 159.336 158.094C160.019 157.682 160.802 157.465 161.599 157.466H198.951C198.951 157.466 201.65 157.466 200.844 162.596C200.038 167.726 188.961 199.046 186.284 208.516C183.607 217.986 183.042 237.944 183.042 237.944H138.242C138.242 237.944 141.792 190.215 157.724 159.802Z" fill="white"/>
<path opacity="0.16" d="M174.547 157.466H161.599C160.802 157.465 160.019 157.682 159.336 158.094C158.653 158.506 158.096 159.096 157.724 159.802C141.792 190.215 138.203 237.927 138.203 237.927H158.295L163.251 219.106L183.915 223.367C184.061 221.788 184.229 220.181 184.425 218.596L183.971 213.556C183.971 213.556 179.738 209.104 178.405 207.99C177.072 206.875 177.957 204.865 177.733 196.179C177.509 187.494 169.714 181.25 166.813 175.902C163.912 170.554 168.375 167.21 172.385 161.862C173.813 159.93 174.395 158.508 174.547 157.466Z" fill="black"/>
<path d="M157.724 159.802C158.096 159.096 158.653 158.506 159.336 158.094C160.019 157.682 160.802 157.465 161.599 157.466H198.951C198.951 157.466 201.65 157.466 200.844 162.596C200.038 167.726 188.961 199.046 186.284 208.516C183.607 217.986 183.042 237.944 183.042 237.944H138.242C138.242 237.944 141.792 190.215 157.724 159.802Z" stroke="#263238" stroke-linecap="round" stroke-linejoin="round"/>
<path d="M192.472 166.376C188.698 175.185 180.712 210.056 179.413 237.927H183.019C183.019 237.927 183.579 217.946 186.262 208.499C188.944 199.052 200.032 167.726 200.822 162.579C201.611 157.433 198.929 157.45 198.929 157.45C198.929 157.45 195.502 159.314 192.472 166.376Z" fill="#263238" stroke="#263238" stroke-linecap="round" stroke-linejoin="round"/>
<path d="M126.857 148.77C126.857 148.77 120.899 145.275 118.642 139.115C116.385 132.955 136.31 123.088 144.962 122.472C153.614 121.856 156.055 124.113 161.202 132.95C166.348 141.786 169.831 153.905 167.16 159.863C164.489 165.822 159.97 167.261 163.24 172.183C166.511 177.106 175.773 191.083 175.157 197.658C174.541 204.232 168.174 209.978 158.917 210.605C149.66 211.232 137.34 205.671 127.07 196.605C116.799 187.538 119.465 174.205 123.15 169.893C126.835 165.581 132.395 163.934 132.804 159.622C133.213 155.31 126.857 148.77 126.857 148.77Z" fill="#263238" stroke="#263238" stroke-linecap="round" stroke-linejoin="round"/>
<path d="M152.253 139.02C155.417 144.911 159.376 152.802 160.614 157.567C162.775 165.911 151.654 171.164 154.739 175.179" stroke="white" stroke-linecap="round" stroke-linejoin="round"/>
<path d="M147.941 131.303C147.941 131.303 149.173 133.403 150.875 136.494" stroke="white" stroke-linecap="round" stroke-linejoin="round"/>
<path d="M164.539 146.126C164.904 147.231 165.141 148.373 165.245 149.531" stroke="white" stroke-linecap="round" stroke-linejoin="round"/>
<path d="M150.08 128.24C150.08 128.24 159.813 135.43 163.699 144.038" stroke="white" stroke-linecap="round" stroke-linejoin="round"/>
<path d="M136.573 133.633C129.623 135.582 119.627 138.746 120.439 140.571" stroke="white" stroke-linecap="round" stroke-linejoin="round"/>
<path d="M142.996 131.919C142.996 131.919 141.512 132.289 139.3 132.882" stroke="white" stroke-linecap="round" stroke-linejoin="round"/>
<path d="M134.4 128.29C138.381 127.036 142.55 126.486 146.72 126.666" stroke="white" stroke-linecap="round" stroke-linejoin="round"/>
<path d="M131.566 129.45C132.196 129.122 132.847 128.837 133.515 128.598" stroke="white" stroke-linecap="round" stroke-linejoin="round"/>
<path d="M74.2617 135.621C74.2591 135.66 74.2591 135.699 74.2617 135.738C74.2591 135.699 74.2591 135.66 74.2617 135.621ZM76.5745 141.534C75.6313 139.807 74.8801 137.982 74.3345 136.091C74.8775 137.983 75.6288 139.808 76.5745 141.534ZM74.2729 135.772C74.2729 135.806 74.2729 135.845 74.2729 135.895C74.2841 135.845 74.2785 135.806 74.2729 135.772ZM74.3009 135.929C74.3078 135.984 74.319 136.038 74.3345 136.091C74.319 136.038 74.3078 135.984 74.3009 135.929ZM76.5745 141.529C78.6689 145.496 81.2745 149.171 84.3249 152.46C91.7225 160.474 113.092 181.434 115.125 182.874C117.158 184.313 116.564 188.418 115.125 192.528C113.686 196.638 108.343 202.608 108.55 209.171C108.758 215.734 110.79 225.814 110.606 227.87C110.421 229.925 105.28 236.914 105.28 236.914H158.29C158.29 236.914 151.682 228.514 151.682 225.641C151.682 222.768 160.754 185.959 161.162 183.288C161.571 180.617 159.93 178.769 156.643 178.562C153.356 178.354 140.823 175.683 140.207 173.628C139.591 171.573 143.494 163.766 143.494 163.766L131.174 164.382C131.174 164.382 130.558 169.725 129.735 170.755C128.912 171.786 127.68 169.725 124.802 168.291C121.923 166.858 116.402 165.62 114.324 163.974C112.246 162.327 92.5457 143.814 92.5457 143.814" fill="white"/>
<path d="M117.472 165.558C118.496 167.35 119.521 168.969 119.521 168.969C119.521 168.969 122.976 170.912 123.839 170.912C124.701 170.912 129.887 173.712 129.887 173.712C129.887 173.712 134.21 172.631 132.687 168.958C132.206 168.017 131.6 167.147 130.884 166.37C130.626 168 130.212 170.134 129.724 170.744C128.901 171.769 127.669 169.714 124.791 168.28C122.926 167.35 119.908 166.499 117.472 165.558Z" fill="#FE7777"/>
<path d="M106.921 157.242C100.576 151.368 92.5458 143.836 92.5458 143.836L87.8754 143.164L87.3154 143.478C87.3154 143.478 100.498 155.142 103.303 156.442C104.438 156.963 105.672 157.236 106.921 157.242Z" fill="#FE7777"/>
<path d="M113.568 163.324L113.064 162.876C113.322 163.302 113.468 163.57 113.468 163.57L113.568 163.324Z" fill="#FE7777"/>
<g opacity="0.5">
<path d="M117.472 165.558C118.496 167.35 119.521 168.969 119.521 168.969C119.521 168.969 122.976 170.912 123.839 170.912C124.701 170.912 129.887 173.712 129.887 173.712C129.887 173.712 134.21 172.631 132.687 168.958C132.206 168.017 131.6 167.147 130.884 166.37C130.626 168 130.212 170.134 129.724 170.744C128.901 171.769 127.669 169.714 124.791 168.28C122.926 167.35 119.908 166.499 117.472 165.558Z" fill="white"/>
<path d="M106.921 157.242C100.576 151.368 92.5458 143.836 92.5458 143.836L87.8754 143.164L87.3154 143.478C87.3154 143.478 100.498 155.142 103.303 156.442C104.438 156.963 105.672 157.236 106.921 157.242Z" fill="white"/>
<path d="M113.568 163.324L113.064 162.876C113.322 163.302 113.468 163.57 113.468 163.57L113.568 163.324Z" fill="white"/>
</g>
<path d="M76.5745 141.529C78.6689 145.496 81.2745 149.171 84.3249 152.46C91.7225 160.474 113.092 181.434 115.125 182.874C117.158 184.313 116.564 188.418 115.125 192.528C113.686 196.638 108.343 202.608 108.55 209.171C108.758 215.734 110.79 225.814 110.606 227.87C110.421 229.925 105.28 236.914 105.28 236.914H158.29C158.29 236.914 151.682 228.514 151.682 225.641C151.682 222.768 160.754 185.959 161.162 183.288C161.571 180.617 159.93 178.769 156.643 178.562C153.356 178.354 140.823 175.683 140.207 173.628C139.591 171.573 143.494 163.766 143.494 163.766L131.174 164.382C131.174 164.382 130.558 169.725 129.735 170.755C128.912 171.786 127.68 169.725 124.802 168.291C121.923 166.858 116.402 165.62 114.324 163.974C112.246 162.327 92.5457 143.814 92.5457 143.814M74.2617 135.621C74.2591 135.66 74.2591 135.699 74.2617 135.738C74.2591 135.699 74.2591 135.66 74.2617 135.621V135.621ZM76.5745 141.534C75.6313 139.807 74.8801 137.982 74.3345 136.091C74.8775 137.983 75.6288 139.808 76.5745 141.534V141.534ZM74.2729 135.772C74.2729 135.806 74.2729 135.845 74.2729 135.895C74.2841 135.845 74.2785 135.806 74.2729 135.772V135.772ZM74.3009 135.929C74.3078 135.984 74.319 136.038 74.3345 136.091C74.319 136.038 74.3078 135.984 74.3009 135.929Z" stroke="#263238" stroke-linecap="round" stroke-linejoin="round"/>
<path d="M92.5459 143.836C92.5459 143.836 85.9827 143.959 82.3203 140.941" stroke="#263238" stroke-linecap="round" stroke-linejoin="round"/>
<path d="M140.213 173.628C139.597 171.578 143.5 163.766 143.5 163.766L131.18 164.382C131.18 164.382 130.564 169.725 129.741 170.755C128.918 171.786 127.686 169.725 124.807 168.291C124.589 168.179 124.348 168.073 124.102 167.966L123.357 179.676C123.357 179.676 124.438 191.016 137.396 188.86C142.643 187.986 148.243 183.305 153.076 178.041C148.103 177.128 140.683 175.202 140.213 173.628Z" fill="white"/>
<path d="M139.866 165.318C139.866 165.318 139.121 169.495 138.522 174.115C137.922 178.735 137.48 182.174 137.48 182.174L140.213 173.628L143.293 164.573C143.293 164.573 140.314 164.573 139.866 165.318Z" fill="#FE7777"/>
<path opacity="0.5" d="M139.866 165.318C139.866 165.318 139.121 169.495 138.522 174.115C137.922 178.735 137.48 182.174 137.48 182.174L140.213 173.628L143.293 164.573C143.293 164.573 140.314 164.573 139.866 165.318Z" fill="white"/>
<path d="M140.213 173.628C139.597 171.578 143.5 163.766 143.5 163.766L131.18 164.382C131.18 164.382 130.564 169.725 129.741 170.755C128.918 171.786 127.686 169.725 124.807 168.291C124.589 168.179 124.348 168.073 124.102 167.966L123.357 179.676C123.357 179.676 124.438 191.016 137.396 188.86C142.643 187.986 148.243 183.305 153.076 178.041C148.103 177.128 140.683 175.202 140.213 173.628Z" stroke="#263238" stroke-linecap="round" stroke-linejoin="round"/>
<path d="M129.735 170.755C128.912 171.78 127.68 169.725 124.802 168.291C122.987 167.378 120.098 166.55 117.706 165.654C117.029 164.046 116.133 161.952 115.556 160.686C114.531 158.446 112.885 159.863 112.885 159.863C112.026 158.886 111.332 157.776 110.83 156.576C109.805 154.336 108.158 154.521 105.902 154.112C103.645 153.703 98.9127 149.386 98.9127 149.386C98.9127 149.386 96.7007 147.706 95.7879 146.871C94.7239 148.966 92.1759 152.65 86.6655 154.952C95.4519 164.13 113.277 181.569 115.147 182.879C117.202 184.313 116.586 188.423 115.147 192.534C113.708 196.644 108.366 202.614 108.573 209.177C108.78 215.74 110.813 225.82 110.628 227.875C110.443 229.706 106.344 235.446 105.454 236.678L107.542 236.914H118.418C118.356 231.403 118.362 208.914 122.13 199.954C126.448 189.655 129.735 170.755 129.735 170.755Z" fill="#FE7777"/>
<path opacity="0.16" d="M124.801 168.291C122.987 167.378 120.097 166.55 117.706 165.654C117.029 164.046 116.133 161.952 115.556 160.686C114.531 158.446 112.885 159.863 112.885 159.863C112.026 158.886 111.332 157.776 110.829 156.576C109.805 154.336 108.158 154.521 105.901 154.112C103.645 153.703 98.9126 149.386 98.9126 149.386C98.9126 149.386 96.7006 147.706 95.7878 146.871C95.3324 147.76 94.7903 148.603 94.1694 149.386C97.843 152.494 101.897 155.786 103.314 156.442C106.114 157.735 106.769 156.654 108.914 157.954C111.059 159.253 113.45 163.554 113.45 163.554C113.45 163.554 114.749 160.093 115.83 162.473C116.911 164.853 119.504 168.952 119.504 168.952C119.504 168.952 122.959 170.895 123.821 170.895C124.499 170.895 127.82 172.62 129.231 173.365C129.545 171.724 129.718 170.738 129.718 170.738C128.912 171.78 127.68 169.725 124.801 168.291Z" fill="black"/>
<path d="M129.735 170.755C128.912 171.78 127.68 169.725 124.802 168.291C122.987 167.378 120.098 166.55 117.706 165.654C117.029 164.046 116.133 161.952 115.556 160.686C114.531 158.446 112.885 159.863 112.885 159.863C112.026 158.886 111.332 157.776 110.83 156.576C109.805 154.336 108.158 154.521 105.902 154.112C103.645 153.703 98.9127 149.386 98.9127 149.386C98.9127 149.386 96.7007 147.706 95.7879 146.871C94.7239 148.966 92.1759 152.65 86.6655 154.952C95.4519 164.13 113.277 181.569 115.147 182.879C117.202 184.313 116.586 188.423 115.147 192.534C113.708 196.644 108.366 202.614 108.573 209.177C108.78 215.74 110.813 225.82 110.628 227.875C110.443 229.706 106.344 235.446 105.454 236.678L107.542 236.914H118.418C118.356 231.403 118.362 208.914 122.13 199.954C126.448 189.655 129.735 170.755 129.735 170.755Z" stroke="#263238" stroke-linecap="round" stroke-linejoin="round"/>
<path d="M129.881 170.038C129.881 170.038 127.327 169.254 125.754 170.632C124.18 172.01 121.834 179.077 120.45 186.743C119.598 191.206 120.186 195.825 122.13 199.931C122.13 199.931 125.362 191.458 126.342 187.331C127.322 183.204 129.881 170.038 129.881 170.038Z" fill="#FE7777"/>
<path opacity="0.16" d="M124.981 171.287C124.981 171.287 126.829 170.839 127.591 171.097C128.232 171.372 128.831 171.736 129.371 172.178L129.881 170.038C129.117 169.648 128.249 169.505 127.4 169.63C126.129 169.887 124.981 171.287 124.981 171.287Z" fill="black"/>
<path d="M129.881 170.038C129.881 170.038 127.327 169.254 125.754 170.632C124.18 172.01 121.834 179.077 120.45 186.743C119.598 191.206 120.186 195.825 122.13 199.931C122.13 199.931 125.362 191.458 126.342 187.331C127.322 183.204 129.881 170.038 129.881 170.038Z" stroke="#263238" stroke-linecap="round" stroke-linejoin="round"/>
<path d="M112.683 170.71L115.97 184.066L108.573 167.216" stroke="#263238" stroke-linecap="round" stroke-linejoin="round"/>
<path d="M134.339 236.914H158.295C158.295 236.914 151.687 228.514 151.687 225.641C151.687 222.768 160.759 185.959 161.168 183.288C161.577 180.617 159.936 178.769 156.649 178.562C153.362 178.354 140.829 175.683 140.213 173.628C140.213 173.628 135.487 190.271 133.846 201.572C132.435 211.266 133.896 231.381 134.339 236.914Z" fill="#FE7777"/>
<path opacity="0.16" d="M156.649 178.562C153.955 178.394 145.057 176.568 141.59 174.787L142.85 177.699C145.133 178.91 147.588 179.764 150.13 180.23C154.302 180.975 158.183 180.83 160.72 184.559L160.843 184.744C161 184.027 161.106 183.523 161.14 183.288C161.582 180.617 159.936 178.769 156.649 178.562Z" fill="black"/>
<path d="M134.339 236.914H158.295C158.295 236.914 151.687 228.514 151.687 225.641C151.687 222.768 160.759 185.959 161.168 183.288C161.577 180.617 159.936 178.769 156.649 178.562C153.362 178.354 140.829 175.683 140.213 173.628C140.213 173.628 135.487 190.271 133.846 201.572C132.435 211.266 133.896 231.381 134.339 236.914Z" stroke="#263238" stroke-linecap="round" stroke-linejoin="round"/>
<path d="M140.213 173.628C140.213 173.628 133.874 193.788 133.846 201.572C133.846 201.572 142.851 190.669 144.027 183.008C145.203 175.347 140.213 173.628 140.213 173.628Z" fill="#FE7777"/>
<path opacity="0.16" d="M139.121 176.204C140.074 176.172 141.02 176.373 141.877 176.788C142.735 177.204 143.478 177.822 144.043 178.59C144.043 178.59 142.8 174.933 140.213 173.628L139.121 176.204Z" fill="black"/>
<path d="M140.213 173.628C140.213 173.628 133.874 193.788 133.846 201.572C133.846 201.572 142.851 190.669 144.027 183.008C145.203 175.347 140.213 173.628 140.213 173.628Z" stroke="#263238" stroke-linecap="round" stroke-linejoin="round"/>
<path d="M207.889 233.122C207.889 233.122 212.531 233.313 215.572 233.75C217.6 234.025 219.642 234.187 221.687 234.237C221.687 234.237 220.007 230.843 218.215 229.886C216.423 228.928 213.175 227.214 210.454 227.595C207.732 227.976 203.84 230.72 204.165 231.594C204.49 232.467 205.94 232.859 207.889 233.122Z" fill="white"/>
<path d="M207.889 233.122C207.889 233.122 212.531 233.313 215.572 233.75C217.6 234.025 219.642 234.187 221.687 234.237C221.687 234.237 220.007 230.843 218.215 229.886C216.423 228.928 213.175 227.214 210.454 227.595C207.732 227.976 203.84 230.72 204.165 231.594C204.49 232.467 205.94 232.859 207.889 233.122Z" fill="#FE7777"/>
<path opacity="0.5" d="M207.889 233.122C207.889 233.122 212.531 233.313 215.572 233.75C217.6 234.025 219.642 234.187 221.687 234.237C221.687 234.237 220.007 230.843 218.215 229.886C216.423 228.928 213.175 227.214 210.454 227.595C207.732 227.976 203.84 230.72 204.165 231.594C204.49 232.467 205.94 232.859 207.889 233.122Z" fill="white"/>
<path d="M207.889 233.122C207.889 233.122 212.531 233.313 215.572 233.75C217.6 234.025 219.642 234.187 221.687 234.237C221.687 234.237 220.007 230.843 218.215 229.886C216.423 228.928 213.175 227.214 210.454 227.595C207.732 227.976 203.84 230.72 204.165 231.594C204.49 232.467 205.94 232.859 207.889 233.122Z" stroke="#263238" stroke-linecap="round" stroke-linejoin="round"/>
<path d="M215.6 231.734C215.6 231.734 219.279 229.824 220.198 229.852C221.116 229.88 227.22 234.007 226.918 234.668C226.712 234.974 226.416 235.209 226.07 235.337C225.724 235.466 225.347 235.482 224.991 235.385C224.314 235.066 220.203 233.318 220.203 233.318L217.515 233.951L215.6 231.734Z" fill="white"/>
<path d="M215.6 231.734C215.6 231.734 219.279 229.824 220.198 229.852C221.116 229.88 227.22 234.007 226.918 234.668C226.615 235.329 225.17 235.866 224.991 235.385C224.812 234.903 220.203 233.318 220.203 233.318L217.515 233.951L215.6 231.734Z" fill="#FE7777"/>
<path opacity="0.5" d="M215.6 231.734C215.6 231.734 219.279 229.824 220.198 229.852C221.116 229.88 227.22 234.007 226.918 234.668C226.615 235.329 225.17 235.866 224.991 235.385C224.812 234.903 220.203 233.318 220.203 233.318L217.515 233.951L215.6 231.734Z" fill="white"/>
<path d="M215.6 231.734C215.6 231.734 219.279 229.824 220.198 229.852C221.116 229.88 227.22 234.007 226.918 234.668C226.712 234.974 226.416 235.209 226.07 235.337C225.724 235.466 225.347 235.482 224.991 235.385C224.314 235.066 220.203 233.318 220.203 233.318L217.515 233.951L215.6 231.734Z" stroke="#263238" stroke-linecap="round" stroke-linejoin="round"/>
<path d="M212.974 228.592C212.974 228.592 217.879 228.435 218.854 228.928C219.828 229.421 224.23 236.97 223.569 237.518C222.908 238.067 221.082 237.905 221.138 237.294C221.194 236.684 217.084 232.641 217.084 232.641L213.886 231.941L212.974 228.592Z" fill="white"/>
<path d="M212.974 228.592C212.974 228.592 217.879 228.435 218.854 228.928C219.828 229.421 224.23 236.97 223.569 237.518C222.908 238.067 221.082 237.905 221.138 237.294C221.194 236.684 217.084 232.641 217.084 232.641L213.886 231.941L212.974 228.592Z" fill="#FE7777"/>
<path opacity="0.5" d="M212.974 228.592C212.974 228.592 217.879 228.435 218.854 228.928C219.828 229.421 224.23 236.97 223.569 237.518C222.908 238.067 221.082 237.905 221.138 237.294C221.194 236.684 217.084 232.641 217.084 232.641L213.886 231.941L212.974 228.592Z" fill="white"/>
<path d="M212.974 228.592C212.974 228.592 217.879 228.435 218.854 228.928C219.828 229.421 224.23 236.97 223.569 237.518C222.908 238.067 221.082 237.905 221.138 237.294C221.194 236.684 217.084 232.641 217.084 232.641L213.886 231.941L212.974 228.592Z" stroke="#263238" stroke-linecap="round" stroke-linejoin="round"/>
<path d="M210.067 227.578C210.067 227.578 215.035 227.416 216.02 227.92C217.006 228.424 221.463 236.057 220.791 236.617C220.119 237.177 218.283 237.003 218.339 236.387C218.395 235.771 214.234 231.678 214.234 231.678L210.997 230.966L210.067 227.578Z" fill="white"/>
<path d="M210.067 227.578C210.067 227.578 215.035 227.416 216.02 227.92C217.006 228.424 221.463 236.057 220.791 236.617C220.119 237.177 218.283 237.003 218.339 236.387C218.395 235.771 214.234 231.678 214.234 231.678L210.997 230.966L210.067 227.578Z" fill="#FE7777"/>
<path opacity="0.5" d="M210.067 227.578C210.067 227.578 215.035 227.416 216.02 227.92C217.006 228.424 221.463 236.057 220.791 236.617C220.119 237.177 218.283 237.003 218.339 236.387C218.395 235.771 214.234 231.678 214.234 231.678L210.997 230.966L210.067 227.578Z" fill="white"/>
<path d="M210.067 227.578C210.067 227.578 215.035 227.416 216.02 227.92C217.006 228.424 221.463 236.057 220.791 236.617C220.119 237.177 218.283 237.003 218.339 236.387C218.395 235.771 214.234 231.678 214.234 231.678L210.997 230.966L210.067 227.578Z" stroke="#263238" stroke-linecap="round" stroke-linejoin="round"/>
<path d="M153.591 199.119C157.186 204.658 164.405 218.691 166.51 220.27C169.798 222.734 191.772 228.715 193.889 230.35C196.006 231.986 195.86 233.626 197.865 234.226C199.87 234.825 207.385 236.544 210.252 236.813C213.119 237.082 211.837 235.306 211.837 235.306L206.948 231.946L211.21 230.894C211.21 230.894 215.482 236.034 216.283 236.314C217.084 236.594 218.495 236.314 218.406 235.682C218.249 234.668 213.69 226.374 212.072 226.022C210.454 225.669 200.631 227.03 200.631 227.03C200.631 227.03 180.029 213.136 179.659 212.643C179.659 212.643 178.427 209.149 177.419 207.71C176.411 206.27 175.773 206.685 175.773 206.685C175.773 206.685 176.187 204.831 175.571 204.215L172.284 200.928L172.166 201.085C171.606 199.965 171.046 198.688 170.43 197.232C168.711 193.183 162.624 181.821 161.599 180.18C160.832 178.954 154.403 178.074 151.144 177.705" fill="#FE7777"/>
<path opacity="0.16" d="M167.905 199.472C170.593 201.858 169.697 201.858 169.098 203.952C168.499 206.046 169.546 203.207 172.083 203.358C174.619 203.51 173.875 206.786 173.572 207.385C173.27 207.984 176.708 208.729 176.109 210.067C175.51 211.406 172.083 213.349 170.145 215.292C168.207 217.235 175.213 212.156 177.599 212.01C178.327 211.96 178.926 212.055 179.43 212.044C178.901 210.546 178.222 209.105 177.403 207.743C176.372 206.304 175.756 206.718 175.756 206.718C175.756 206.718 176.171 204.865 175.555 204.249L172.267 200.962L172.15 201.118C171.59 199.998 171.03 198.722 170.414 197.266C168.695 193.217 162.607 181.854 161.583 180.214C160.815 178.987 154.387 178.108 151.127 177.738L151.424 180.331L151.497 180.387C151.497 180.387 155.523 181.132 156.867 181.283C158.211 181.434 159.852 182.622 159.701 183.523C159.55 184.425 155.675 188.446 156.867 188.748C158.06 189.05 159.404 185.763 160.748 186.211C162.092 186.659 165.2 197.086 167.905 199.472Z" fill="black"/>
<path d="M153.591 199.119C157.186 204.658 164.405 218.691 166.51 220.27C169.798 222.734 191.772 228.715 193.889 230.35C196.006 231.986 195.86 233.626 197.865 234.226C199.87 234.825 207.385 236.544 210.252 236.813C213.119 237.082 211.837 235.306 211.837 235.306L206.948 231.946L211.21 230.894C211.21 230.894 215.482 236.034 216.283 236.314C217.084 236.594 218.495 236.314 218.406 235.682C218.249 234.668 213.69 226.374 212.072 226.022C210.454 225.669 200.631 227.03 200.631 227.03C200.631 227.03 180.029 213.136 179.659 212.643C179.659 212.643 178.427 209.149 177.419 207.71C176.411 206.27 175.773 206.685 175.773 206.685C175.773 206.685 176.187 204.831 175.571 204.215L172.284 200.928L172.166 201.085C171.606 199.965 171.046 198.688 170.43 197.232C168.711 193.183 162.624 181.821 161.599 180.18C160.832 178.954 154.403 178.074 151.144 177.705" stroke="#263238" stroke-linecap="round" stroke-linejoin="round"/>
<path d="M153.647 191.52C153.496 192.024 153.367 192.528 153.267 193.043" stroke="#263238" stroke-linecap="round" stroke-linejoin="round"/>
<path d="M159.091 182.252C157.331 184.258 155.847 186.489 154.678 188.888" stroke="#263238" stroke-linecap="round" stroke-linejoin="round"/>
<path d="M167.317 214.049C168.829 211.809 171.237 208.97 173.891 208.158" stroke="#263238" stroke-linecap="round" stroke-linejoin="round"/>
<path d="M165.643 216.804C165.643 216.804 165.911 216.278 166.393 215.482" stroke="#263238" stroke-linecap="round" stroke-linejoin="round"/>
<path d="M165.643 213.265C165.643 213.265 168.392 206.388 171.142 204.618C173.891 202.849 172.318 206.388 172.318 206.388" stroke="#263238" stroke-linecap="round" stroke-linejoin="round"/>
<path d="M193.889 230.356C196.011 231.997 195.86 233.632 197.865 234.231C199.87 234.83 207.385 236.55 210.252 236.818C213.119 237.087 211.837 235.312 211.837 235.312L206.948 231.952L211.21 230.899C211.21 230.899 215.483 236.04 216.283 236.32C217.084 236.6 218.607 236.701 218.406 235.687C218.014 233.727 213.691 226.38 212.072 226.027C210.454 225.674 200.631 227.035 200.631 227.035C200.631 227.035 181.866 214.155 179.811 212.761C171.842 213.528 168.051 217.7 166.455 220.203L166.511 220.248C169.798 222.734 191.772 228.715 193.889 230.356Z" fill="white"/>
<path d="M218.4 235.71C217.381 233.218 213.685 226.402 212.067 226.05C210.448 225.697 200.626 227.058 200.626 227.058C200.626 227.058 181.86 214.178 179.805 212.783C177.713 212.965 175.661 213.462 173.718 214.256C176.68 215.936 196.426 227.136 198.918 227.634C201.561 228.194 210.381 226.744 211.932 227.786C212.918 228.446 215.852 233.1 217.835 236.404C218.4 236.32 218.607 236.214 218.4 235.71Z" fill="#FE7777"/>
<path opacity="0.5" d="M218.4 235.71C216.81 232.142 213.685 226.402 212.067 226.05C210.448 225.697 200.626 227.058 200.626 227.058C200.626 227.058 181.86 214.178 179.805 212.783C177.713 212.965 175.661 213.462 173.718 214.256C176.68 215.936 196.426 227.136 198.918 227.634C201.561 228.194 210.381 226.744 211.932 227.786C212.918 228.446 215.852 233.1 217.835 236.404C218.4 236.32 218.624 236.208 218.4 235.71Z" fill="white"/>
<path d="M193.889 230.356C196.011 231.997 195.86 233.632 197.865 234.231C199.87 234.83 207.385 236.55 210.252 236.818C213.119 237.087 211.837 235.312 211.837 235.312L206.948 231.952L211.21 230.899C211.21 230.899 215.483 236.04 216.283 236.32C217.084 236.6 218.607 236.701 218.406 235.687C218.014 233.727 213.691 226.38 212.072 226.027C210.454 225.674 200.631 227.035 200.631 227.035C200.631 227.035 181.866 214.155 179.811 212.761C171.842 213.528 168.051 217.7 166.455 220.203L166.511 220.248C169.798 222.734 191.772 228.715 193.889 230.356Z" stroke="#263238" stroke-linecap="round" stroke-linejoin="round"/>
<path d="M144.396 132.569L127.529 139.608C127.324 142.572 126.59 145.476 125.362 148.182C123.368 152.398 124.533 160.378 126.448 164.685C128.363 168.991 136.802 167.306 139.888 166.768C141.981 166.37 144.03 165.772 146.009 164.982C146.91 165.329 147.884 165.441 148.84 165.308C149.796 165.175 150.703 164.8 151.474 164.22C151.474 164.22 142.447 138.88 144.396 132.569Z" fill="white"/>
<path d="M144.396 132.569L127.529 139.608C127.324 142.572 126.59 145.476 125.362 148.182C123.368 152.398 124.533 160.378 126.448 164.685C126.769 165.377 127.284 165.961 127.932 166.365V166.04C127.932 166.04 124.802 158.284 125.395 153.81C125.989 149.335 128.531 147.09 128.828 144.262C129.125 141.434 128.974 140.09 134.646 138.001C140.319 135.912 142.699 133.974 143.293 136.058C143.886 138.141 146.278 151.872 147.918 155.154C149.559 158.435 149.408 161.874 146.877 163.358C144.318 164.893 141.577 166.101 138.718 166.953L139.91 166.746C142.003 166.348 144.053 165.749 146.031 164.959C146.932 165.306 147.906 165.419 148.862 165.285C149.819 165.152 150.725 164.778 151.497 164.198C151.497 164.198 142.447 138.88 144.396 132.569Z" fill="#FE7777"/>
<path opacity="0.5" d="M144.396 132.569L127.529 139.608C127.324 142.572 126.59 145.476 125.362 148.182C123.368 152.398 124.533 160.378 126.448 164.685C126.769 165.377 127.284 165.961 127.932 166.365V166.04C127.932 166.04 124.802 158.284 125.395 153.81C125.989 149.335 128.531 147.09 128.828 144.262C129.125 141.434 128.974 140.09 134.646 138.001C140.319 135.912 142.699 133.974 143.293 136.058C143.886 138.141 146.278 151.872 147.918 155.154C149.559 158.435 149.408 161.874 146.877 163.358C144.318 164.893 141.577 166.101 138.718 166.953L139.91 166.746C142.003 166.348 144.053 165.749 146.031 164.959C146.932 165.306 147.906 165.419 148.862 165.285C149.819 165.152 150.725 164.778 151.497 164.198C151.497 164.198 142.447 138.88 144.396 132.569Z" fill="white"/>
<path d="M144.396 132.569L127.529 139.608C127.324 142.572 126.59 145.476 125.362 148.182C123.368 152.398 124.533 160.378 126.448 164.685C128.363 168.991 136.802 167.306 139.888 166.768C141.981 166.37 144.03 165.772 146.009 164.982C146.91 165.329 147.884 165.441 148.84 165.308C149.796 165.175 150.703 164.8 151.474 164.22C151.474 164.22 142.447 138.88 144.396 132.569Z" stroke="#263238" stroke-linecap="round" stroke-linejoin="round"/>
<path d="M135.873 143.606C135.919 144.598 135.796 145.59 135.509 146.541C135.061 147.661 130.833 152.062 130.962 152.538C131.091 153.014 131.471 154.543 132.222 154.689" stroke="#263238" stroke-linecap="round" stroke-linejoin="round"/>
<path d="M140.56 147.543C141.148 146.367 143.08 147.515 143.052 150.164" stroke="#263238" stroke-linecap="round" stroke-linejoin="round"/>
<path d="M130.984 144.082C130.984 144.082 132.63 143.36 134.103 146.026" stroke="#263238" stroke-linecap="round" stroke-linejoin="round"/>
<path d="M138.219 151.424C140.122 151.52 141.931 152.279 143.332 153.569" stroke="#263238" stroke-width="0.5" stroke-linecap="round" stroke-linejoin="round"/>
<path d="M128.996 147.924C129.98 148.055 130.941 148.321 131.852 148.714" stroke="#263238" stroke-width="0.5" stroke-linecap="round" stroke-linejoin="round"/>
<path d="M135.688 141.12C135.253 140.89 134.771 140.764 134.279 140.753C133.788 140.741 133.3 140.844 132.855 141.053C131.348 141.775 130.424 142.57 130.525 141.646C130.626 140.722 132.395 139.703 132.927 139.569C133.459 139.434 135.839 139.065 135.688 141.12Z" fill="#263238"/>
<path d="M139.911 139.031C141.481 140.301 142.728 141.925 143.551 143.769C144.671 146.569 145.555 143.511 144.671 141.68C143.786 139.849 141.227 137.9 139.911 139.031Z" fill="#263238"/>
<path d="M151.721 169.008C151.721 170.313 150.982 171.371 150.074 171.371C149.167 171.371 148.434 170.313 148.434 169.008C148.434 167.703 149.167 164.382 150.074 164.382C150.982 164.382 151.721 167.703 151.721 169.008Z" fill="#FE7777" stroke="#263238" stroke-linecap="round" stroke-linejoin="round"/>
<path d="M140.706 147.034C140.642 147.205 140.591 147.381 140.555 147.56C140.392 148.389 140.23 150.119 140.555 150.192C140.88 150.265 141.675 148.646 141.815 147.818C141.846 147.655 141.865 147.49 141.871 147.325C141.488 147.205 141.1 147.108 140.706 147.034Z" fill="#263238"/>
<path d="M131.152 143.92C131.102 144.066 131.063 144.216 131.034 144.368C130.866 145.197 130.872 147.017 131.225 147.084C131.578 147.151 132.154 145.449 132.317 144.62C132.357 144.419 132.38 144.215 132.384 144.01C131.983 143.899 131.565 143.869 131.152 143.92Z" fill="#263238"/>
<path d="M140.56 147.571L141.12 146.53C142.008 146.703 142.812 147.168 143.405 147.851" stroke="#263238" stroke-width="0.75" stroke-linecap="round" stroke-linejoin="round"/>
<path d="M131.152 143.92L131.712 143.265C131.712 143.265 131.953 143.147 133.274 143.746" stroke="#263238" stroke-width="0.75" stroke-linecap="round" stroke-linejoin="round"/>
<path d="M129.03 159.107C129.03 159.107 129.971 157.377 131.231 157.377C132.491 157.377 133.431 160.205 133.431 160.205" stroke="#263238" stroke-linecap="round" stroke-linejoin="round"/>
<path d="M88.4801 233.733C87.2624 233.672 86.0664 233.388 84.9521 232.893C84.7967 232.835 84.6546 232.747 84.5346 232.633C84.4145 232.519 84.3189 232.381 84.2536 232.229C84.1883 232.077 84.1546 231.913 84.1547 231.747C84.1547 231.582 84.1885 231.418 84.254 231.266C84.3194 231.113 84.4151 230.976 84.5353 230.862C84.6555 230.748 84.7976 230.66 84.953 230.602C85.1085 230.545 85.2739 230.52 85.4393 230.529C85.6048 230.537 85.7667 230.58 85.9153 230.653C87.0353 231.129 88.4857 231.426 88.8721 231.258C89.5833 230.462 90.6753 225.658 89.2641 223.339C88.9449 222.824 88.6481 222.729 88.4521 222.706C87.6513 222.594 86.4641 223.418 86.0441 223.826C85.9271 223.937 85.7896 224.023 85.6394 224.08C85.4892 224.137 85.3291 224.164 85.1684 224.16C85.0078 224.155 84.8496 224.119 84.7029 224.053C84.5562 223.987 84.424 223.893 84.3137 223.776C84.2034 223.659 84.1172 223.522 84.06 223.371C84.0028 223.221 83.9758 223.061 83.9805 222.9C83.9852 222.74 84.0215 222.581 84.0873 222.435C84.1531 222.288 84.2471 222.156 84.3641 222.046C84.5825 221.833 86.6041 220.013 88.7601 220.304C89.2948 220.382 89.8044 220.582 90.2492 220.889C90.694 221.196 91.0621 221.601 91.3249 222.074C93.4025 225.462 91.9801 231.907 90.3841 233.184C89.8294 233.576 89.1585 233.77 88.4801 233.733Z" fill="white"/>
<path d="M90.1213 222.97C89.9744 222.622 89.7445 222.315 89.4516 222.077C89.1587 221.839 88.8117 221.676 88.4413 221.603C87.0413 221.379 85.7253 222.785 85.5797 222.942C85.4458 223.103 85.3631 223.3 85.3422 223.509C85.3212 223.717 85.363 223.927 85.4621 224.112C85.6824 224.068 85.886 223.963 86.0501 223.81C86.4701 223.418 87.6573 222.594 88.4581 222.69C88.6541 222.69 88.9509 222.807 89.2701 223.322C90.6813 225.618 89.5893 230.446 88.8781 231.241C88.4917 231.409 87.0469 231.112 85.9213 230.636C85.7827 230.578 85.6347 230.545 85.4845 230.541C85.4947 230.694 85.5431 230.843 85.6252 230.973C85.7074 231.103 85.8207 231.21 85.9549 231.286C86.663 231.664 87.4441 231.885 88.2453 231.935C88.7025 231.957 89.1503 231.8 89.4941 231.498C90.5469 230.53 91.4765 225.574 90.1213 222.97Z" fill="#FE7777"/>
<path opacity="0.5" d="M90.1213 222.97C89.9744 222.622 89.7445 222.315 89.4516 222.077C89.1587 221.839 88.8117 221.676 88.4413 221.603C87.0413 221.379 85.7253 222.785 85.5797 222.942C85.4458 223.103 85.3631 223.3 85.3422 223.509C85.3212 223.717 85.363 223.927 85.4621 224.112C85.6824 224.068 85.886 223.963 86.0501 223.81C86.4701 223.418 87.6573 222.594 88.4581 222.69C88.6541 222.69 88.9509 222.807 89.2701 223.322C90.6813 225.618 89.5893 230.446 88.8781 231.241C88.4917 231.409 87.0469 231.112 85.9213 230.636C85.7827 230.578 85.6347 230.545 85.4845 230.541C85.4947 230.694 85.5431 230.843 85.6252 230.973C85.7074 231.103 85.8207 231.21 85.9549 231.286C86.663 231.664 87.4441 231.885 88.2453 231.935C88.7025 231.957 89.1503 231.8 89.4941 231.498C90.5469 230.53 91.4765 225.574 90.1213 222.97Z" fill="white"/>
<path d="M88.4801 233.733C87.2624 233.672 86.0664 233.388 84.9521 232.893C84.7967 232.835 84.6546 232.747 84.5346 232.633C84.4145 232.519 84.3189 232.381 84.2536 232.229C84.1883 232.077 84.1546 231.913 84.1547 231.747C84.1547 231.582 84.1885 231.418 84.254 231.266C84.3194 231.113 84.4151 230.976 84.5353 230.862C84.6555 230.748 84.7976 230.66 84.953 230.602C85.1085 230.545 85.2739 230.52 85.4393 230.529C85.6048 230.537 85.7667 230.58 85.9153 230.653C87.0353 231.129 88.4857 231.426 88.8721 231.258C89.5833 230.462 90.6753 225.658 89.2641 223.339C88.9449 222.824 88.6481 222.729 88.4521 222.706C87.6513 222.594 86.4641 223.418 86.0441 223.826C85.9271 223.937 85.7896 224.023 85.6394 224.08C85.4892 224.137 85.3291 224.164 85.1684 224.16C85.0078 224.155 84.8496 224.119 84.7029 224.053C84.5562 223.987 84.424 223.893 84.3137 223.776C84.2034 223.659 84.1172 223.522 84.06 223.371C84.0028 223.221 83.9758 223.061 83.9805 222.9C83.9852 222.74 84.0215 222.581 84.0873 222.435C84.1531 222.288 84.2471 222.156 84.3641 222.046C84.5825 221.833 86.6041 220.013 88.7601 220.304C89.2948 220.382 89.8044 220.582 90.2492 220.889C90.694 221.196 91.0621 221.601 91.3249 222.074C93.4025 225.462 91.9801 231.907 90.3841 233.184C89.8294 233.576 89.1585 233.77 88.4801 233.733V233.733Z" stroke="#263238" stroke-linecap="round" stroke-linejoin="round"/>
<path d="M86.341 219.285H72.873V237.16H86.341V219.285Z" fill="white"/>
<path d="M78.389 219.285H72.873V237.16H78.389V219.285Z" fill="#FE7777"/>
<path opacity="0.5" d="M78.389 219.285H72.873V237.16H78.389V219.285Z" fill="white"/>
<path d="M86.341 219.285H72.873V237.16H86.341V219.285Z" stroke="#263238" stroke-linecap="round" stroke-linejoin="round"/>
<path d="M160.35 236.914H102.816L100.94 205.285C100.888 204.978 100.903 204.664 100.985 204.364C101.066 204.063 101.211 203.785 101.411 203.546C101.611 203.308 101.86 203.115 102.141 202.982C102.422 202.849 102.729 202.779 103.04 202.776H160.104C160.417 202.776 160.726 202.844 161.01 202.975C161.294 203.107 161.545 203.299 161.748 203.538C161.95 203.776 162.097 204.057 162.18 204.358C162.263 204.66 162.278 204.976 162.226 205.285L160.35 236.914Z" fill="#263238" stroke="#263238" stroke-linecap="round" stroke-linejoin="round"/>
<path d="M105.649 203.532H159.689C159.995 203.529 160.297 203.593 160.575 203.718C160.853 203.844 161.1 204.03 161.299 204.261C161.498 204.493 161.644 204.765 161.727 205.059C161.81 205.353 161.827 205.661 161.778 205.962" stroke="white" stroke-linecap="round" stroke-linejoin="round"/>
<path d="M101.36 205.464C101.405 204.935 101.648 204.442 102.04 204.084C102.433 203.726 102.945 203.529 103.477 203.532" stroke="white" stroke-linecap="round" stroke-linejoin="round"/>
<path d="M160.591 233.834H102.575V236.914H160.591V233.834Z" fill="white" stroke="#263238" stroke-linecap="round" stroke-linejoin="round"/>
<path d="M131.376 222.432C133.646 222.432 135.486 221.329 135.486 219.968C135.486 218.607 133.646 217.504 131.376 217.504C129.105 217.504 127.265 218.607 127.265 219.968C127.265 221.329 129.105 222.432 131.376 222.432Z" fill="white" stroke="#263238" stroke-linecap="round" stroke-linejoin="round"/>
<path d="M248.097 236.55H32.0151V241.797H248.097V236.55Z" fill="#263238"/>
<path d="M192.069 42H88.1158C84.6117 42 81.771 44.8407 81.771 48.3448V107.99C81.771 111.495 84.6117 114.335 88.1158 114.335H192.069C195.573 114.335 198.413 111.495 198.413 107.99V48.3448C198.413 44.8407 195.573 42 192.069 42Z" fill="#FE7777"/>
<path d="M142.835 83.5689C152.265 82.0535 158.68 73.1808 157.165 63.7512C155.649 54.3217 146.777 47.906 137.347 49.4215C127.918 50.9369 121.502 59.8096 123.017 69.2391C124.533 78.6687 133.405 85.0843 142.835 83.5689Z" fill="#263238"/>
<path d="M139.961 69.692L134.198 77.0896C134.002 77.3975 133.733 77.6519 133.414 77.8298C133.095 78.0078 132.738 78.1036 132.373 78.1088C131.872 78.1156 131.389 77.9244 131.029 77.5768C130.845 77.4088 130.701 77.2033 130.604 76.9742C130.507 76.7452 130.461 76.4981 130.469 76.2496C130.487 75.6932 130.683 75.1572 131.029 74.7208L137.597 66.5952L131.437 58.464C131.151 58.0824 130.994 57.6194 130.989 57.1424C130.988 56.8579 131.045 56.5762 131.158 56.315C131.271 56.0538 131.437 55.8188 131.645 55.6248C131.84 55.4208 132.075 55.2585 132.335 55.1478C132.594 55.0372 132.874 54.9803 133.157 54.9808C133.518 54.9867 133.873 55.083 134.188 55.261C134.503 55.439 134.768 55.6931 134.96 56L140.526 63.3304L146.126 56.1232C146.326 55.787 146.606 55.5053 146.941 55.3031C147.276 55.1009 147.656 54.9844 148.047 54.964C148.289 54.9634 148.53 55.0128 148.752 55.1092C148.975 55.2055 149.175 55.3467 149.341 55.524C149.517 55.6902 149.658 55.8906 149.754 56.113C149.85 56.3355 149.9 56.5752 149.901 56.8176C149.895 57.2513 149.745 57.6708 149.475 58.0104L142.884 66.444L149.251 74.844C149.552 75.2195 149.719 75.6844 149.727 76.1656C149.729 76.4438 149.67 76.7191 149.555 76.9725C149.44 77.2258 149.271 77.4511 149.061 77.6328C148.65 78.0279 148.102 78.2487 147.532 78.2488C147.168 78.2443 146.812 78.1486 146.495 77.9705C146.178 77.7925 145.91 77.5377 145.717 77.2296L139.961 69.692Z" fill="white"/>
<path d="M173.04 101.808H107.122C105.785 101.808 104.503 101.277 103.558 100.332C102.613 99.3866 102.082 98.1047 102.082 96.768C102.082 95.4313 102.613 94.1494 103.558 93.2042C104.503 92.259 105.785 91.728 107.122 91.728H173.04C174.376 91.728 175.658 92.259 176.603 93.2042C177.549 94.1494 178.08 95.4313 178.08 96.768C178.08 98.1047 177.549 99.3866 176.603 100.332C175.658 101.277 174.376 101.808 173.04 101.808Z" fill="white"/>
<path d="M116.155 98.392C116.111 98.392 116.067 98.3831 116.027 98.3657C115.987 98.3484 115.95 98.3231 115.92 98.2912C115.887 98.2583 115.861 98.219 115.843 98.1756C115.826 98.1323 115.818 98.0859 115.819 98.0392C115.819 97.9604 115.84 97.8829 115.881 97.8152L116.385 97.0312H115.354C115.307 97.0337 115.259 97.0259 115.214 97.0085C115.17 96.9912 115.13 96.9645 115.097 96.9304C115.039 96.8634 115.007 96.778 115.007 96.6896C115.007 96.6013 115.039 96.5158 115.097 96.4488C115.13 96.4147 115.17 96.388 115.214 96.3707C115.259 96.3533 115.307 96.3456 115.354 96.348L116.368 96.376L115.92 95.648C115.875 95.5734 115.85 95.4886 115.847 95.4016C115.846 95.3549 115.854 95.3085 115.871 95.2652C115.889 95.2218 115.915 95.1825 115.948 95.1496C115.979 95.1176 116.017 95.0922 116.058 95.0749C116.099 95.0576 116.144 95.0487 116.189 95.0488C116.251 95.0479 116.313 95.0654 116.366 95.0993C116.418 95.1332 116.46 95.1818 116.485 95.2392L116.978 96.1184L117.449 95.2784C117.478 95.213 117.525 95.1571 117.584 95.1166C117.644 95.0761 117.713 95.0527 117.785 95.0488C117.829 95.0488 117.872 95.0577 117.912 95.0751C117.953 95.0924 117.989 95.1178 118.02 95.1496C118.053 95.1804 118.079 95.2177 118.096 95.2592C118.113 95.3007 118.122 95.3454 118.121 95.3904C118.12 95.4699 118.096 95.5476 118.053 95.6144L117.561 96.404L118.585 96.376C118.633 96.3732 118.681 96.3807 118.725 96.3981C118.77 96.4155 118.81 96.4424 118.843 96.4768C118.9 96.5438 118.932 96.6293 118.932 96.7176C118.932 96.806 118.9 96.8914 118.843 96.9584C118.81 96.9928 118.77 97.0197 118.725 97.0371C118.681 97.0545 118.633 97.062 118.585 97.0592H117.549L118.009 97.776C118.06 97.8625 118.089 97.9608 118.093 98.0616C118.094 98.107 118.087 98.1522 118.07 98.1946C118.054 98.2369 118.029 98.2755 117.997 98.308C117.968 98.3394 117.932 98.3646 117.893 98.3819C117.853 98.3992 117.811 98.4084 117.768 98.4088C117.698 98.4071 117.631 98.3857 117.573 98.347C117.516 98.3083 117.471 98.254 117.443 98.1904L116.978 97.3672L116.513 98.1904C116.48 98.2552 116.428 98.3089 116.364 98.3447C116.301 98.3805 116.228 98.3969 116.155 98.392Z" fill="black"/>
<path d="M121.296 98.392C121.252 98.392 121.208 98.3831 121.168 98.3657C121.127 98.3484 121.091 98.323 121.06 98.2912C121.027 98.2583 121.001 98.219 120.984 98.1756C120.967 98.1323 120.958 98.0859 120.96 98.0392C120.959 97.9603 120.981 97.8829 121.021 97.8152L121.525 97.0312H120.495C120.447 97.0336 120.4 97.0259 120.355 97.0085C120.311 96.9912 120.27 96.9645 120.237 96.9304C120.18 96.8634 120.148 96.7779 120.148 96.6896C120.148 96.6012 120.18 96.5158 120.237 96.4488C120.27 96.4147 120.311 96.388 120.355 96.3707C120.4 96.3533 120.447 96.3455 120.495 96.348L121.508 96.376L121.032 95.62C120.987 95.5454 120.962 95.4606 120.96 95.3736C120.958 95.3269 120.967 95.2805 120.984 95.2372C121.001 95.1938 121.027 95.1545 121.06 95.1216C121.092 95.0896 121.129 95.0642 121.171 95.0468C121.212 95.0295 121.256 95.0207 121.301 95.0208C121.364 95.0199 121.425 95.0374 121.478 95.0713C121.531 95.1051 121.573 95.1538 121.598 95.2112L122.091 96.0904L122.561 95.2504C122.591 95.185 122.638 95.1291 122.697 95.0886C122.756 95.0481 122.826 95.0246 122.897 95.0208C122.941 95.0208 122.985 95.0297 123.025 95.0471C123.066 95.0644 123.102 95.0897 123.132 95.1216C123.165 95.1524 123.191 95.1897 123.208 95.2312C123.226 95.2727 123.234 95.3174 123.233 95.3624C123.232 95.4419 123.209 95.5196 123.166 95.5864L122.673 96.376L123.698 96.348C123.746 96.3452 123.793 96.3527 123.838 96.3701C123.882 96.3875 123.922 96.4144 123.956 96.4488C124.013 96.5158 124.045 96.6012 124.045 96.6896C124.045 96.7779 124.013 96.8634 123.956 96.9304C123.922 96.9648 123.882 96.9916 123.838 97.009C123.793 97.0264 123.746 97.034 123.698 97.0312H122.662L123.121 97.748C123.173 97.8345 123.202 97.9328 123.205 98.0336C123.207 98.079 123.199 98.1242 123.183 98.1665C123.166 98.2089 123.142 98.2475 123.11 98.28C123.08 98.3114 123.045 98.3366 123.005 98.3539C122.966 98.3712 122.923 98.3804 122.88 98.3808C122.811 98.3798 122.743 98.3586 122.686 98.3198C122.628 98.2811 122.583 98.2264 122.556 98.1624L122.091 97.3392L121.626 98.1624C121.598 98.2281 121.553 98.2846 121.494 98.3252C121.436 98.3659 121.367 98.389 121.296 98.392Z" fill="black"/>
<path d="M126.437 98.392C126.393 98.392 126.349 98.3831 126.309 98.3657C126.268 98.3484 126.232 98.323 126.201 98.2912C126.168 98.2583 126.142 98.219 126.125 98.1756C126.108 98.1323 126.099 98.0859 126.101 98.0392C126.101 97.9603 126.122 97.8829 126.162 97.8152L126.666 97.0312H125.636C125.588 97.0336 125.541 97.0259 125.496 97.0085C125.452 96.9912 125.412 96.9645 125.378 96.9304C125.321 96.8634 125.289 96.7779 125.289 96.6896C125.289 96.6012 125.321 96.5158 125.378 96.4488C125.412 96.4147 125.452 96.388 125.496 96.3707C125.541 96.3533 125.588 96.3455 125.636 96.348L126.649 96.376L126.173 95.62C126.129 95.5454 126.103 95.4606 126.101 95.3736C126.099 95.3269 126.108 95.2805 126.125 95.2372C126.142 95.1938 126.168 95.1545 126.201 95.1216C126.233 95.0896 126.27 95.0642 126.312 95.0468C126.353 95.0295 126.397 95.0207 126.442 95.0208C126.505 95.0199 126.567 95.0374 126.619 95.0713C126.672 95.1051 126.714 95.1538 126.739 95.2112L127.232 96.0904L127.702 95.2504C127.732 95.185 127.779 95.1291 127.838 95.0886C127.897 95.0481 127.967 95.0246 128.038 95.0208C128.082 95.0208 128.126 95.0297 128.166 95.0471C128.207 95.0644 128.243 95.0897 128.273 95.1216C128.306 95.1524 128.332 95.1897 128.35 95.2312C128.367 95.2727 128.375 95.3174 128.374 95.3624C128.374 95.4419 128.35 95.5196 128.307 95.5864L127.814 96.376L128.839 96.348C128.887 96.3452 128.934 96.3527 128.979 96.3701C129.023 96.3875 129.064 96.4144 129.097 96.4488C129.154 96.5158 129.186 96.6012 129.186 96.6896C129.186 96.7779 129.154 96.8634 129.097 96.9304C129.064 96.9648 129.023 96.9916 128.979 97.009C128.934 97.0264 128.887 97.034 128.839 97.0312H127.803L128.262 97.748C128.314 97.8345 128.343 97.9328 128.346 98.0336C128.348 98.079 128.34 98.1242 128.324 98.1665C128.308 98.2089 128.283 98.2475 128.251 98.28C128.222 98.3114 128.186 98.3366 128.147 98.3539C128.107 98.3712 128.065 98.3804 128.021 98.3808C127.952 98.3798 127.884 98.3586 127.827 98.3198C127.769 98.2811 127.724 98.2264 127.697 98.1624L127.232 97.3392L126.767 98.1624C126.739 98.2281 126.694 98.2846 126.635 98.3252C126.577 98.3659 126.508 98.389 126.437 98.392Z" fill="black"/>
<path d="M131.6 98.392C131.556 98.392 131.512 98.3831 131.472 98.3657C131.431 98.3484 131.395 98.323 131.365 98.2912C131.331 98.2583 131.305 98.219 131.288 98.1756C131.271 98.1323 131.262 98.0859 131.264 98.0392C131.264 97.9603 131.285 97.8829 131.325 97.8152L131.829 97.0312H130.799C130.751 97.0336 130.704 97.0259 130.659 97.0085C130.615 96.9912 130.575 96.9645 130.541 96.9304C130.484 96.8634 130.452 96.7779 130.452 96.6896C130.452 96.6012 130.484 96.5158 130.541 96.4488C130.575 96.4147 130.615 96.388 130.659 96.3707C130.704 96.3533 130.751 96.3455 130.799 96.348L131.813 96.376L131.337 95.62C131.292 95.5454 131.267 95.4606 131.264 95.3736C131.262 95.3269 131.271 95.2805 131.288 95.2372C131.305 95.1938 131.331 95.1545 131.365 95.1216C131.396 95.0896 131.433 95.0642 131.475 95.0468C131.516 95.0295 131.561 95.0207 131.605 95.0208C131.668 95.0199 131.73 95.0374 131.782 95.0713C131.835 95.1051 131.877 95.1538 131.902 95.2112L132.395 96.0904L132.865 95.2504C132.895 95.185 132.942 95.1291 133.001 95.0886C133.06 95.0481 133.13 95.0246 133.201 95.0208C133.245 95.0208 133.289 95.0297 133.329 95.0471C133.37 95.0644 133.406 95.0897 133.437 95.1216C133.469 95.1524 133.495 95.1897 133.513 95.2312C133.53 95.2727 133.538 95.3174 133.537 95.3624C133.537 95.4419 133.513 95.5196 133.47 95.5864L132.977 96.376L134.002 96.348C134.05 96.3452 134.098 96.3527 134.142 96.3701C134.186 96.3875 134.227 96.4144 134.26 96.4488C134.317 96.5158 134.349 96.6012 134.349 96.6896C134.349 96.7779 134.317 96.8634 134.26 96.9304C134.227 96.9648 134.186 96.9916 134.142 97.009C134.098 97.0264 134.05 97.034 134.002 97.0312H132.966L133.425 97.748C133.477 97.8345 133.506 97.9328 133.509 98.0336C133.511 98.079 133.503 98.1242 133.487 98.1665C133.471 98.2089 133.446 98.2475 133.414 98.28C133.385 98.3114 133.349 98.3366 133.31 98.3539C133.27 98.3712 133.228 98.3804 133.185 98.3808C133.115 98.3791 133.048 98.3577 132.99 98.319C132.933 98.2803 132.887 98.2259 132.86 98.1624L132.395 97.3392L131.93 98.1624C131.903 98.2281 131.857 98.2846 131.798 98.3252C131.74 98.3659 131.671 98.389 131.6 98.392Z" fill="black"/>
<path d="M136.718 98.392C136.674 98.392 136.631 98.3831 136.59 98.3657C136.55 98.3484 136.514 98.323 136.483 98.2912C136.45 98.2583 136.424 98.219 136.407 98.1756C136.389 98.1323 136.381 98.0859 136.382 98.0392C136.385 97.9607 136.406 97.884 136.444 97.8152L136.948 97.0312H135.918C135.87 97.0336 135.822 97.0259 135.778 97.0085C135.734 96.9912 135.693 96.9645 135.66 96.9304C135.602 96.8634 135.571 96.7779 135.571 96.6896C135.571 96.6012 135.602 96.5158 135.66 96.4488C135.693 96.4147 135.734 96.388 135.778 96.3707C135.822 96.3533 135.87 96.3456 135.918 96.348L136.931 96.376L136.455 95.62C136.41 95.5454 136.385 95.4606 136.382 95.3736C136.381 95.3269 136.389 95.2805 136.407 95.2372C136.424 95.1938 136.45 95.1545 136.483 95.1216C136.515 95.0896 136.552 95.0642 136.593 95.0469C136.635 95.0295 136.679 95.0207 136.724 95.0208C136.787 95.0199 136.848 95.0374 136.901 95.0713C136.954 95.1052 136.996 95.1538 137.021 95.2112L137.514 96.0904L137.984 95.2504C138.014 95.185 138.061 95.1291 138.12 95.0886C138.179 95.0481 138.248 95.0246 138.32 95.0208C138.364 95.0201 138.408 95.0287 138.448 95.0461C138.489 95.0635 138.525 95.0892 138.555 95.1216C138.588 95.1524 138.614 95.1897 138.631 95.2312C138.649 95.2727 138.657 95.3174 138.656 95.3624C138.655 95.4419 138.632 95.5196 138.589 95.5864L138.096 96.376L139.121 96.348C139.168 96.3452 139.216 96.3527 139.261 96.3701C139.305 96.3875 139.345 96.4144 139.378 96.4488C139.436 96.5158 139.468 96.6012 139.468 96.6896C139.468 96.7779 139.436 96.8634 139.378 96.9304C139.345 96.9648 139.305 96.9916 139.261 97.009C139.216 97.0264 139.168 97.034 139.121 97.0312H138.085L138.544 97.748C138.596 97.8345 138.625 97.9328 138.628 98.0336C138.63 98.079 138.622 98.1242 138.606 98.1665C138.589 98.2089 138.565 98.2475 138.533 98.28C138.503 98.3114 138.468 98.3366 138.428 98.3539C138.389 98.3712 138.346 98.3804 138.303 98.3808C138.234 98.3791 138.166 98.3577 138.109 98.319C138.051 98.2803 138.006 98.2259 137.978 98.1624L137.514 97.3392L137.049 98.1624C137.021 98.2281 136.975 98.2846 136.917 98.3252C136.858 98.3659 136.79 98.389 136.718 98.392Z" fill="black"/>
<path d="M141.859 98.392C141.815 98.392 141.772 98.3831 141.731 98.3657C141.691 98.3484 141.654 98.323 141.624 98.2912C141.591 98.2583 141.565 98.219 141.547 98.1756C141.53 98.1323 141.522 98.0859 141.523 98.0392C141.526 97.9607 141.547 97.884 141.585 97.8152L142.089 97.0312H141.064C141.015 97.0341 140.967 97.0266 140.921 97.0092C140.876 96.9918 140.835 96.9649 140.801 96.9304C140.743 96.8634 140.711 96.7779 140.711 96.6896C140.711 96.6012 140.743 96.5158 140.801 96.4488C140.835 96.4142 140.876 96.3874 140.921 96.37C140.967 96.3526 141.015 96.3451 141.064 96.348L142.072 96.376L141.596 95.62C141.551 95.5454 141.526 95.4606 141.523 95.3736C141.522 95.3269 141.53 95.2805 141.547 95.2372C141.565 95.1938 141.591 95.1545 141.624 95.1216C141.655 95.0896 141.693 95.0642 141.734 95.0469C141.775 95.0295 141.82 95.0207 141.865 95.0208C141.927 95.0199 141.989 95.0374 142.042 95.0713C142.094 95.1052 142.136 95.1538 142.161 95.2112L142.654 96.0904L143.125 95.2504C143.154 95.185 143.201 95.1291 143.261 95.0886C143.32 95.0481 143.389 95.0246 143.461 95.0208C143.505 95.0201 143.548 95.0287 143.589 95.0461C143.629 95.0635 143.666 95.0892 143.696 95.1216C143.729 95.1524 143.755 95.1897 143.772 95.2312C143.789 95.2727 143.798 95.3174 143.797 95.3624C143.796 95.4419 143.773 95.5196 143.729 95.5864L143.237 96.376L144.261 96.348C144.309 96.3452 144.357 96.3527 144.401 96.3701C144.446 96.3875 144.486 96.4144 144.519 96.4488C144.577 96.5158 144.608 96.6012 144.608 96.6896C144.608 96.7779 144.577 96.8634 144.519 96.9304C144.486 96.9648 144.446 96.9916 144.401 97.009C144.357 97.0264 144.309 97.034 144.261 97.0312H143.225L143.685 97.748C143.736 97.8345 143.765 97.9328 143.769 98.0336C143.77 98.079 143.763 98.1242 143.746 98.1665C143.73 98.2089 143.705 98.2475 143.673 98.28C143.644 98.3114 143.608 98.3366 143.569 98.3539C143.529 98.3712 143.487 98.3804 143.444 98.3808C143.375 98.3791 143.307 98.3577 143.25 98.319C143.192 98.2803 143.147 98.2259 143.119 98.1624L142.654 97.3392L142.189 98.1624C142.162 98.2281 142.116 98.2846 142.058 98.3252C141.999 98.3659 141.93 98.389 141.859 98.392Z" fill="black"/>
<path d="M147 98.392C146.956 98.392 146.912 98.3831 146.872 98.3657C146.831 98.3484 146.795 98.3231 146.764 98.2912C146.731 98.2583 146.705 98.219 146.688 98.1756C146.671 98.1323 146.662 98.0859 146.664 98.0392C146.664 97.9604 146.685 97.8829 146.725 97.8152L147.229 97.0312H146.199C146.151 97.0337 146.104 97.0259 146.059 97.0085C146.015 96.9912 145.975 96.9645 145.941 96.9304C145.884 96.8634 145.852 96.778 145.852 96.6896C145.852 96.6013 145.884 96.5158 145.941 96.4488C145.975 96.4147 146.015 96.388 146.059 96.3707C146.104 96.3533 146.151 96.3456 146.199 96.348L147.212 96.376L146.72 95.648C146.675 95.5734 146.65 95.4886 146.647 95.4016C146.646 95.3549 146.654 95.3085 146.671 95.2652C146.688 95.2218 146.715 95.1825 146.748 95.1496C146.779 95.1176 146.817 95.0922 146.858 95.0749C146.899 95.0576 146.944 95.0487 146.988 95.0488C147.051 95.0479 147.113 95.0654 147.166 95.0993C147.218 95.1332 147.26 95.1818 147.285 95.2392L147.778 96.1184L148.248 95.2784C148.278 95.213 148.325 95.1571 148.384 95.1166C148.444 95.0761 148.513 95.0527 148.584 95.0488C148.629 95.0481 148.672 95.0568 148.713 95.0741C148.753 95.0915 148.79 95.1172 148.82 95.1496C148.852 95.1804 148.878 95.2177 148.896 95.2592C148.913 95.3007 148.922 95.3454 148.92 95.3904C148.92 95.4699 148.896 95.5476 148.853 95.6144L148.36 96.404L149.385 96.376C149.433 96.3732 149.481 96.3807 149.525 96.3981C149.57 96.4156 149.61 96.4424 149.643 96.4768C149.7 96.5438 149.732 96.6293 149.732 96.7176C149.732 96.806 149.7 96.8914 149.643 96.9584C149.61 96.9928 149.57 97.0197 149.525 97.0371C149.481 97.0545 149.433 97.062 149.385 97.0592H148.349L148.808 97.776C148.86 97.8625 148.889 97.9608 148.892 98.0616C148.894 98.107 148.886 98.1522 148.87 98.1946C148.854 98.2369 148.829 98.2755 148.797 98.308C148.768 98.3394 148.732 98.3646 148.693 98.3819C148.653 98.3992 148.611 98.4084 148.568 98.4088C148.498 98.4071 148.431 98.3857 148.373 98.347C148.316 98.3083 148.271 98.254 148.243 98.1904L147.778 97.3672L147.313 98.1904C147.283 98.2484 147.238 98.2976 147.183 98.3329C147.128 98.3683 147.065 98.3886 147 98.392Z" fill="black"/>
<path d="M152.14 98.392C152.096 98.392 152.053 98.3831 152.012 98.3657C151.972 98.3484 151.936 98.323 151.905 98.2912C151.872 98.2583 151.846 98.219 151.829 98.1756C151.811 98.1323 151.803 98.0859 151.804 98.0392C151.807 97.9607 151.828 97.884 151.866 97.8152L152.37 97.0312H151.345C151.297 97.0348 151.25 97.0276 151.205 97.0101C151.16 96.9927 151.12 96.9654 151.088 96.9304C151.027 96.865 150.993 96.779 150.993 96.6896C150.993 96.6002 151.027 96.5141 151.088 96.4488C151.12 96.4137 151.16 96.3865 151.205 96.369C151.25 96.3516 151.297 96.3444 151.345 96.348L152.353 96.376L151.877 95.62C151.832 95.5454 151.807 95.4606 151.804 95.3736C151.803 95.3278 151.811 95.2822 151.827 95.2394C151.844 95.1967 151.869 95.1577 151.9 95.1248C151.932 95.0919 151.97 95.0657 152.013 95.0478C152.055 95.03 152.1 95.0208 152.146 95.0208C152.209 95.0199 152.27 95.0374 152.323 95.0713C152.376 95.1051 152.418 95.1538 152.443 95.2112L152.936 96.0904L153.406 95.2504C153.436 95.185 153.483 95.1291 153.542 95.0886C153.601 95.0481 153.67 95.0246 153.742 95.0208C153.786 95.0194 153.83 95.0277 153.871 95.0451C153.911 95.0625 153.948 95.0886 153.977 95.1216C154.01 95.1524 154.036 95.1897 154.053 95.2312C154.071 95.2727 154.079 95.3174 154.078 95.3624C154.077 95.4419 154.054 95.5196 154.011 95.5864L153.518 96.376L154.543 96.348C154.591 96.3452 154.638 96.3527 154.683 96.3701C154.727 96.3875 154.767 96.4144 154.8 96.4488C154.858 96.5158 154.89 96.6012 154.89 96.6896C154.89 96.7779 154.858 96.8634 154.8 96.9304C154.767 96.9648 154.727 96.9916 154.683 97.009C154.638 97.0264 154.591 97.034 154.543 97.0312H153.507L153.966 97.748C154.018 97.8345 154.047 97.9328 154.05 98.0336C154.052 98.0777 154.044 98.1217 154.029 98.1631C154.013 98.2044 153.99 98.2423 153.96 98.2745C153.929 98.3068 153.893 98.3327 153.853 98.351C153.813 98.3692 153.769 98.3793 153.725 98.3808C153.656 98.3791 153.589 98.3577 153.531 98.319C153.473 98.2803 153.428 98.2259 153.4 98.1624L152.936 97.3392L152.471 98.1624C152.443 98.2281 152.398 98.2846 152.339 98.3252C152.281 98.3659 152.212 98.389 152.14 98.392Z" fill="black"/>
<path d="M157.282 98.392C157.238 98.392 157.194 98.3831 157.154 98.3657C157.113 98.3484 157.077 98.323 157.046 98.2912C157.013 98.2583 156.987 98.219 156.97 98.1756C156.953 98.1323 156.944 98.0859 156.946 98.0392C156.948 97.9607 156.969 97.884 157.007 97.8152L157.511 97.0312H156.481C156.434 97.0339 156.387 97.0263 156.343 97.0089C156.3 96.9915 156.261 96.9647 156.229 96.9304C156.168 96.865 156.134 96.779 156.134 96.6896C156.134 96.6002 156.168 96.5141 156.229 96.4488C156.261 96.4145 156.3 96.3877 156.343 96.3703C156.387 96.3528 156.434 96.3452 156.481 96.348L157.494 96.376L157.018 95.62C156.973 95.5454 156.948 95.4606 156.946 95.3736C156.944 95.3278 156.952 95.2822 156.968 95.2394C156.985 95.1967 157.01 95.1577 157.042 95.1248C157.073 95.0919 157.112 95.0657 157.154 95.0478C157.196 95.03 157.241 95.0208 157.287 95.0208C157.35 95.0199 157.411 95.0374 157.464 95.0713C157.517 95.1051 157.559 95.1538 157.584 95.2112L158.077 96.0904L158.547 95.2504C158.577 95.185 158.624 95.1291 158.683 95.0886C158.742 95.0481 158.811 95.0246 158.883 95.0208C158.927 95.0194 158.971 95.0277 159.012 95.0451C159.053 95.0625 159.089 95.0886 159.118 95.1216C159.151 95.1524 159.177 95.1897 159.194 95.2312C159.212 95.2727 159.22 95.3174 159.219 95.3624C159.218 95.4419 159.195 95.5196 159.152 95.5864L158.659 96.376L159.684 96.348C159.732 96.3452 159.779 96.3527 159.824 96.3701C159.868 96.3875 159.908 96.4144 159.942 96.4488C159.999 96.5158 160.031 96.6012 160.031 96.6896C160.031 96.7779 159.999 96.8634 159.942 96.9304C159.908 96.9648 159.868 96.9916 159.824 97.009C159.779 97.0264 159.732 97.034 159.684 97.0312H158.648L159.107 97.748C159.159 97.8345 159.188 97.9328 159.191 98.0336C159.193 98.0777 159.185 98.1217 159.17 98.1631C159.154 98.2044 159.131 98.2423 159.101 98.2745C159.071 98.3068 159.034 98.3327 158.994 98.351C158.954 98.3692 158.91 98.3793 158.866 98.3808C158.797 98.3791 158.73 98.3577 158.672 98.319C158.615 98.2803 158.569 98.2259 158.542 98.1624L158.077 97.3392L157.612 98.1624C157.584 98.2281 157.539 98.2846 157.48 98.3252C157.422 98.3659 157.353 98.389 157.282 98.392Z" fill="black"/>
<path d="M162.4 98.392C162.356 98.392 162.312 98.3831 162.272 98.3657C162.231 98.3484 162.195 98.323 162.164 98.2912C162.131 98.2583 162.105 98.219 162.088 98.1756C162.071 98.1323 162.062 98.0859 162.064 98.0392C162.066 97.9607 162.087 97.884 162.125 97.8152L162.629 97.0312H161.599C161.552 97.0339 161.505 97.0263 161.462 97.0089C161.418 96.9915 161.379 96.9647 161.347 96.9304C161.286 96.865 161.252 96.779 161.252 96.6896C161.252 96.6002 161.286 96.5141 161.347 96.4488C161.379 96.4145 161.418 96.3877 161.462 96.3703C161.505 96.3528 161.552 96.3452 161.599 96.348L162.613 96.376L162.137 95.62C162.092 95.5454 162.067 95.4606 162.064 95.3736C162.062 95.3269 162.071 95.2805 162.088 95.2372C162.105 95.1938 162.131 95.1545 162.164 95.1216C162.196 95.0896 162.233 95.0642 162.275 95.0468C162.316 95.0295 162.36 95.0207 162.405 95.0208C162.468 95.0199 162.53 95.0374 162.582 95.0713C162.635 95.1051 162.677 95.1538 162.702 95.2112L163.195 96.0904L163.665 95.2504C163.695 95.185 163.742 95.1291 163.801 95.0886C163.86 95.0481 163.93 95.0246 164.001 95.0208C164.045 95.0194 164.089 95.0277 164.13 95.0451C164.171 95.0625 164.207 95.0886 164.237 95.1216C164.269 95.1524 164.295 95.1897 164.313 95.2312C164.33 95.2727 164.338 95.3174 164.337 95.3624C164.337 95.4419 164.313 95.5196 164.27 95.5864L163.777 96.376L164.802 96.348C164.85 96.3452 164.897 96.3527 164.942 96.3701C164.986 96.3875 165.027 96.4144 165.06 96.4488C165.117 96.5158 165.149 96.6012 165.149 96.6896C165.149 96.7779 165.117 96.8634 165.06 96.9304C165.027 96.9648 164.986 96.9916 164.942 97.009C164.897 97.0264 164.85 97.034 164.802 97.0312H163.766L164.225 97.748C164.277 97.8345 164.306 97.9328 164.309 98.0336C164.311 98.079 164.303 98.1242 164.287 98.1665C164.271 98.2089 164.246 98.2475 164.214 98.28C164.185 98.3114 164.149 98.3366 164.11 98.3539C164.07 98.3712 164.028 98.3804 163.984 98.3808C163.915 98.3791 163.848 98.3577 163.79 98.319C163.733 98.2803 163.687 98.2259 163.66 98.1624L163.195 97.3392L162.73 98.1624C162.703 98.2281 162.657 98.2846 162.598 98.3252C162.54 98.3659 162.471 98.389 162.4 98.392Z" fill="black"/>
<path d="M180.018 110.779H186.866" stroke="white" stroke-width="3" stroke-linecap="round" stroke-linejoin="round"/>
<path d="M85.0244 60.3512V105.84C85.0244 107.157 85.5477 108.421 86.4793 109.352C87.4108 110.284 88.6742 110.807 89.9916 110.807H173.516" stroke="white" stroke-width="3" stroke-linecap="round" stroke-linejoin="round"/>
<path d="M85.0244 48.2888V55.1096" stroke="white" stroke-width="3" stroke-linecap="round" stroke-linejoin="round"/>
</svg>
