<svg width="280" height="280" viewBox="0 0 280 280" fill="none" xmlns="http://www.w3.org/2000/svg">
<path d="M280 214.144H0V214.284H280V214.144Z" fill="#E6E6E6"/>
<path d="M69.8993 222.617H51.3521V222.757H69.8993V222.617Z" fill="#E6E6E6"/>
<path d="M45.4832 222.617H34.7368V222.757H45.4832V222.617Z" fill="#E6E6E6"/>
<path d="M117.908 224.678H107.162V224.818H117.908V224.678Z" fill="#E6E6E6"/>
<path d="M173.942 227.802H149.755V227.942H173.942V227.802Z" fill="#E6E6E6"/>
<path d="M144.771 227.802H141.226V227.942H144.771V227.802Z" fill="#E6E6E6"/>
<path d="M253.876 224.678H201.415V224.818H253.876V224.678Z" fill="#E6E6E6"/>
<path d="M132.72 189.168H24.5897C23.7426 189.167 22.9307 188.829 22.3323 188.23C21.7338 187.63 21.3977 186.818 21.3977 185.97V33.9696C21.4051 33.1274 21.7445 32.3221 22.3421 31.7287C22.9398 31.1352 23.7474 30.8015 24.5897 30.8H132.72C133.568 30.8 134.381 31.1369 134.981 31.7366C135.581 32.3363 135.918 33.1496 135.918 33.9976V185.97C135.918 186.818 135.581 187.632 134.981 188.232C134.381 188.831 133.568 189.168 132.72 189.168ZM24.5897 30.912C23.7798 30.9135 23.0035 31.2363 22.4313 31.8096C21.8591 32.3828 21.5377 33.1597 21.5377 33.9696V185.97C21.5377 186.78 21.8591 187.557 22.4313 188.131C23.0035 188.704 23.7798 189.027 24.5897 189.028H132.72C133.531 189.027 134.307 188.704 134.881 188.131C135.454 187.558 135.776 186.781 135.778 185.97V33.9696C135.776 33.1592 135.454 32.3823 134.881 31.8092C134.307 31.2361 133.531 30.9135 132.72 30.912H24.5897Z" fill="#E6E6E6"/>
<path d="M253.854 189.168H145.718C144.87 189.167 144.058 188.829 143.458 188.23C142.859 187.631 142.522 186.818 142.52 185.97V33.9696C142.529 33.1269 142.869 32.3216 143.468 31.7283C144.067 31.135 144.875 30.8015 145.718 30.8H253.854C254.695 30.803 255.501 31.1373 256.098 31.7306C256.694 32.3239 257.033 33.1284 257.04 33.9696V185.97C257.04 186.817 256.705 187.628 256.107 188.228C255.51 188.827 254.7 189.165 253.854 189.168ZM145.718 30.912C144.907 30.9135 144.13 31.2361 143.557 31.8092C142.984 32.3823 142.661 33.1592 142.66 33.9696V185.97C142.661 186.781 142.984 187.558 143.557 188.131C144.13 188.704 144.907 189.027 145.718 189.028H253.854C254.664 189.027 255.441 188.704 256.014 188.131C256.587 187.558 256.91 186.781 256.911 185.97V33.9696C256.91 33.1592 256.587 32.3823 256.014 31.8092C255.441 31.2361 254.664 30.9135 253.854 30.912H145.718Z" fill="#E6E6E6"/>
<path d="M149.744 166.309H137.43V215.158H149.744V166.309Z" fill="#E0E0E0"/>
<path d="M147.403 215.158H149.744V208.505H144.95L147.403 215.158Z" fill="#FAFAFA"/>
<path d="M95.7824 166.309H83.468V215.158H95.7824V166.309Z" fill="#E0E0E0"/>
<path d="M149.744 166.309H93.7439V211.075H149.744V166.309Z" fill="#FAFAFA"/>
<path d="M147.711 168.51V180.354H95.7599V168.51H147.694M147.913 168.291H95.5583V180.566H147.93V168.291H147.913Z" fill="#E0E0E0"/>
<path d="M96.0791 215.158H93.7439V208.505H98.5319L96.0791 215.158Z" fill="#FAFAFA"/>
<path d="M120.506 174.429C120.506 174.674 120.579 174.913 120.715 175.116C120.851 175.32 121.044 175.479 121.27 175.572C121.496 175.666 121.745 175.69 121.985 175.643C122.225 175.595 122.446 175.477 122.619 175.304C122.792 175.131 122.91 174.91 122.958 174.67C123.006 174.43 122.981 174.181 122.887 173.955C122.794 173.729 122.635 173.536 122.432 173.4C122.228 173.264 121.989 173.191 121.744 173.191C121.416 173.191 121.101 173.322 120.869 173.554C120.637 173.786 120.506 174.101 120.506 174.429Z" fill="#E6E6E6"/>
<path d="M147.711 182.767V194.611H95.7599V182.767H147.694M147.913 182.554H95.5583V194.83H147.93V182.56L147.913 182.554Z" fill="#E0E0E0"/>
<path d="M120.506 188.72C120.506 188.965 120.579 189.204 120.715 189.408C120.851 189.611 121.044 189.77 121.27 189.863C121.496 189.957 121.745 189.982 121.985 189.934C122.225 189.886 122.446 189.768 122.619 189.595C122.792 189.422 122.91 189.202 122.958 188.961C123.006 188.721 122.981 188.473 122.887 188.246C122.794 188.02 122.635 187.827 122.432 187.691C122.228 187.555 121.989 187.482 121.744 187.482C121.416 187.482 121.101 187.613 120.869 187.845C120.637 188.077 120.506 188.392 120.506 188.72Z" fill="#E6E6E6"/>
<path d="M147.711 197.03V208.88H95.7599V197.03H147.694M147.913 196.812H95.5583V209.093H147.93V196.812H147.913Z" fill="#E0E0E0"/>
<path d="M120.506 202.955C120.507 203.2 120.581 203.438 120.718 203.641C120.854 203.844 121.048 204.002 121.274 204.095C121.5 204.187 121.749 204.211 121.989 204.163C122.229 204.114 122.449 203.996 122.621 203.823C122.794 203.649 122.911 203.429 122.958 203.189C123.005 202.949 122.981 202.701 122.887 202.475C122.793 202.249 122.634 202.056 122.431 201.92C122.228 201.784 121.988 201.712 121.744 201.712C121.581 201.712 121.42 201.744 121.269 201.807C121.119 201.869 120.982 201.961 120.867 202.076C120.752 202.192 120.661 202.329 120.599 202.48C120.537 202.631 120.506 202.792 120.506 202.955Z" fill="#E6E6E6"/>
<path d="M88.2617 137.939H75.9473V215.163H88.2617V137.939Z" fill="#E0E0E0"/>
<path d="M85.9208 215.158H88.2616V208.505H83.4736L85.9208 215.158Z" fill="#FAFAFA"/>
<path d="M42.2409 137.939H29.9265V215.163H42.2409V137.939Z" fill="#E0E0E0"/>
<path d="M88.2616 137.939H40.1968V211.081H88.2616V137.939Z" fill="#FAFAFA"/>
<path d="M86.1896 140V156.559H42.2688V140H86.1896ZM86.4472 139.748H42V156.8H86.436V139.754L86.4472 139.748Z" fill="#E0E0E0"/>
<path d="M86.1897 158.581V202.502H65.2681V158.581H86.1897ZM86.4473 158.323H65.0161V202.759H86.4473V158.323Z" fill="#E0E0E0"/>
<path d="M63.1904 158.581V202.502H42.2688V158.581H63.1904ZM63.4424 158.323H42V202.759H63.4312V158.323H63.4424Z" fill="#E0E0E0"/>
<path d="M42.5376 215.158H40.1968V208.505H44.9904L42.5376 215.158Z" fill="#FAFAFA"/>
<path d="M62.9888 148.288C62.9877 148.534 63.0596 148.775 63.1956 148.98C63.3315 149.185 63.5253 149.346 63.7523 149.441C63.9794 149.536 64.2295 149.561 64.4711 149.514C64.7126 149.466 64.9346 149.348 65.1091 149.175C65.2835 149.001 65.4024 148.78 65.4509 148.538C65.4993 148.297 65.475 148.047 65.3811 147.819C65.2871 147.592 65.1278 147.397 64.9232 147.26C64.7187 147.123 64.4781 147.05 64.232 147.05C63.9032 147.05 63.5879 147.181 63.3549 147.413C63.1219 147.645 62.9903 147.959 62.9888 148.288Z" fill="#E6E6E6"/>
<path d="M67.4241 179.497C67.4241 179.743 67.4971 179.984 67.634 180.188C67.7708 180.393 67.9653 180.552 68.1928 180.646C68.4203 180.74 68.6706 180.764 68.9119 180.716C69.1532 180.667 69.3747 180.548 69.5483 180.374C69.722 180.2 69.8399 179.977 69.8873 179.736C69.9346 179.494 69.9092 179.244 69.8142 179.017C69.7193 178.79 69.5591 178.596 69.3539 178.46C69.1487 178.325 68.9078 178.253 68.6617 178.254C68.4987 178.254 68.3373 178.286 68.1868 178.348C68.0363 178.411 67.8996 178.503 67.7846 178.618C67.6696 178.734 67.5785 178.871 67.5167 179.022C67.4548 179.172 67.4233 179.334 67.4241 179.497Z" fill="#E6E6E6"/>
<path d="M58.5591 179.497C58.5602 179.741 58.6337 179.98 58.7704 180.183C58.907 180.386 59.1007 180.543 59.327 180.636C59.5532 180.729 59.8019 180.753 60.0416 180.704C60.2813 180.656 60.5012 180.538 60.6738 180.364C60.8463 180.191 60.9636 179.971 61.0109 179.731C61.0582 179.491 61.0334 179.242 60.9395 179.016C60.8457 178.791 60.6871 178.598 60.4837 178.462C60.2803 178.326 60.0412 178.254 59.7967 178.254C59.6337 178.254 59.4723 178.286 59.3218 178.348C59.1713 178.411 59.0346 178.503 58.9196 178.618C58.8046 178.734 58.7136 178.871 58.6517 179.022C58.5898 179.172 58.5584 179.334 58.5591 179.497Z" fill="#E6E6E6"/>
<path d="M57.1593 116.407H51.9681C52.4465 118.925 52.7477 121.474 52.8697 124.034C52.8697 126.834 48.9161 137.939 54.5497 137.939C60.1833 137.939 56.2297 126.862 56.2297 124.034C56.3608 121.473 56.6715 118.925 57.1593 116.407Z" fill="#E0E0E0"/>
<path d="M37.408 127.764V131.124C37.4139 132.925 38.132 134.651 39.4057 135.925C40.6794 137.198 42.4051 137.917 44.2064 137.922H47.5664C49.3676 137.917 51.0934 137.198 52.367 135.925C53.6407 134.651 54.3589 132.925 54.3648 131.124V127.764H37.408Z" fill="#F5F5F5"/>
<path d="M109.575 159.186C109.575 163.106 113.96 166.309 119.319 166.309H124.158C129.517 166.309 133.902 163.106 133.902 159.186H109.575Z" fill="#E0E0E0"/>
<path d="M237.782 153.44C234.847 155.837 230.793 160.222 227.086 166.393C224.61 170.503 223.121 174.793 222.466 180.494C222.466 174.054 222.505 167.138 222.527 160.608C223.272 158.928 224.974 155.053 226.195 151.995C230.266 141.786 231.795 139.272 235.452 130.469C240.341 118.709 245.347 104.787 243.914 105.902C240.99 108.17 229.79 129.142 228.581 132.143C225.284 140.154 223.245 148.626 222.538 157.259C222.538 151.099 222.583 145.499 222.606 141.154C222.684 126.98 222.925 122.405 223.042 120.994C223.496 120.277 224.028 119.442 224.342 118.994C226.974 115.186 227.987 111.95 230.462 106.271C233.979 98.2352 237.003 83.9608 236.118 84.6776C232.434 87.6792 229.533 94.1192 225.714 102.334C221.894 110.55 222.986 115.27 222.23 122.282C222.074 123.659 221.95 128.856 221.861 136.052C220.875 128.38 219.016 123.329 215.628 118.737C211.462 113.086 207.43 109.273 204.473 107.279C201.516 105.286 209.58 119.162 213.433 125.199C216.866 130.598 220.03 135.352 221.833 140.039C221.738 149.8 221.693 162.154 221.693 173.639C220.808 168.409 219.363 162.77 217.437 158.407C215.118 153.166 211.557 145.124 208.718 142.397C208.04 141.742 211.686 157.382 214.026 161.538C216.367 165.693 218.086 169.618 219.559 171.976C219.901 172.536 221.043 174.647 221.693 175.868C221.693 189.907 221.771 202.294 221.894 206.511H222.499C222.46 205.425 222.449 198.279 222.466 188.826C223.927 183.697 227.265 177.839 230.02 172.497C233.022 166.712 240.716 151.06 237.782 153.44Z" fill="#E0E0E0"/>
<path d="M230.966 215.158H213.416L212.089 197.954H232.294L230.966 215.158Z" fill="#F0F0F0"/>
<path d="M233.599 199.959H210.779L210.129 194.152H234.254L233.599 199.959Z" fill="#F5F5F5"/>
<path d="M69.5855 42.28H38.1975V76.748H69.5855V42.28Z" fill="#E0E0E0"/>
<path d="M72.9848 42.28H40.5608V76.748H72.9848V42.28Z" fill="#F5F5F5"/>
<path d="M70.2688 74.0321V44.9961H43.2768V74.0321H70.2688Z" fill="white"/>
<path d="M63.7224 66.9873V52.0297H49.8176V66.9873H63.7224Z" fill="#F5F5F5"/>
<path d="M229.628 46.2953H200.469V78.3161H229.628V46.2953Z" fill="#E0E0E0"/>
<path d="M232.786 46.2953H202.67V78.3161H232.786V46.2953Z" fill="#F5F5F5"/>
<path d="M230.266 75.7904V48.8208H205.195V75.7904H230.266Z" fill="white"/>
<path d="M217.728 70.1288C222.049 70.1288 225.551 66.6263 225.551 62.3056C225.551 57.985 222.049 54.4824 217.728 54.4824C213.407 54.4824 209.905 57.985 209.905 62.3056C209.905 66.6263 213.407 70.1288 217.728 70.1288Z" fill="#F5F5F5"/>
<path d="M102.194 62.832H78.9097V88.4016H102.194V62.832Z" fill="#E0E0E0"/>
<path d="M104.714 62.832H80.6624V88.4016H104.714V62.832Z" fill="#F5F5F5"/>
<path d="M102.698 86.3856V64.848H82.6785V86.3856H102.698Z" fill="white"/>
<path d="M92.6912 70.1681L87.2144 79.6545H98.168L92.6912 70.1681Z" fill="#F5F5F5"/>
<path d="M140 239.434C199.966 239.434 248.578 236.595 248.578 233.094C248.578 229.593 199.966 226.755 140 226.755C80.0338 226.755 31.4216 229.593 31.4216 233.094C31.4216 236.595 80.0338 239.434 140 239.434Z" fill="#F5F5F5"/>
<path d="M195.58 91.5208L190.025 89.2808C190.025 89.2808 182.694 102.648 180.594 103.326C177.738 104.244 171.825 106.798 168.319 107.246C167.843 107.806 167.065 109.547 167.138 110.18C171.847 111.754 182.196 109.665 184.414 108.018C189.459 104.283 195.58 91.5208 195.58 91.5208Z" fill="#E58A7B"/>
<path d="M197.288 88.4799C198.324 92.3047 192.713 99.9991 192.713 99.9991L185.36 95.8775C185.36 95.8775 186.737 92.7135 188.417 89.4935C191.111 84.2911 196.106 84.1175 197.288 88.4799Z" fill="#FE7777"/>
<path opacity="0.2" d="M197.288 88.4799C198.324 92.3047 192.713 99.9991 192.713 99.9991L185.36 95.8775C185.36 95.8775 186.737 92.7135 188.417 89.4935C191.111 84.2911 196.106 84.1175 197.288 88.4799Z" fill="black"/>
<path opacity="0.2" d="M188.278 97.5239L191.173 99.1479L191.682 90.2607C189.997 91.5543 188.81 95.4519 188.278 97.5239Z" fill="black"/>
<path d="M192.45 85.6016C192.45 85.6016 186.726 98.336 190.064 122.046H212.615C212.974 118.586 211.786 101.696 216.082 85.3888C213.608 84.9053 211.105 84.5854 208.589 84.4312C205.398 84.2462 202.198 84.2462 199.007 84.4312C196.795 84.6558 194.603 85.047 192.45 85.6016Z" fill="#FE7777"/>
<path opacity="0.2" d="M192.45 85.6016C192.45 85.6016 186.726 98.336 190.064 122.046H212.615C212.974 118.586 211.786 101.696 216.082 85.3888C213.608 84.9053 211.105 84.5854 208.589 84.4312C205.398 84.2462 202.198 84.2462 199.007 84.4312C196.795 84.6558 194.603 85.047 192.45 85.6016Z" fill="black"/>
<g style="mix-blend-mode:multiply">
<path d="M187.219 233.598C187.185 234.203 195.737 234.69 206.315 234.69C216.893 234.69 225.506 234.203 225.54 233.598C225.573 232.994 217.028 232.512 206.444 232.512C195.86 232.512 187.258 232.999 187.219 233.598Z" fill="#E8ECF1"/>
</g>
<path d="M202.272 217.707L198.272 219.255L201.718 228.156L205.718 226.608L202.272 217.707Z" fill="#E58A7B"/>
<path d="M220.108 229.292H215.891L214.346 219.531H218.563L220.108 229.292Z" fill="#E58A7B"/>
<path d="M215.6 228.805H220.337C220.42 228.805 220.499 228.834 220.562 228.888C220.624 228.941 220.666 229.015 220.679 229.096L221.289 232.842C221.302 232.936 221.295 233.032 221.267 233.123C221.24 233.214 221.193 233.298 221.131 233.369C221.068 233.44 220.991 233.497 220.904 233.535C220.817 233.574 220.724 233.594 220.629 233.593C218.977 233.565 218.182 233.464 216.098 233.464C214.816 233.464 212.178 233.598 210.397 233.598C208.617 233.598 208.499 231.851 209.233 231.689C212.525 230.978 213.802 230.009 214.9 229.068C215.093 228.898 215.342 228.804 215.6 228.805Z" fill="#263238"/>
<path d="M201.6 227.36L206.08 226.05C206.16 226.027 206.245 226.032 206.322 226.065C206.398 226.098 206.461 226.155 206.5 226.229L208.18 229.589C208.219 229.674 208.239 229.767 208.239 229.86C208.238 229.954 208.217 230.047 208.177 230.132C208.137 230.216 208.079 230.291 208.007 230.351C207.935 230.411 207.851 230.455 207.76 230.479C206.13 230.927 205.038 231.202 203 231.795C201.594 232.204 200.161 232.87 198.772 233.313C197.809 233.621 195.546 233.632 194.376 233.632C192.646 233.632 192.259 231.806 193.004 231.722C194.88 231.515 195.132 231.61 196.168 231.09C197.863 230.349 199.4 229.288 200.693 227.965C200.937 227.687 201.25 227.478 201.6 227.36Z" fill="#263238"/>
<path d="M169.025 107.223L164.388 105.28L162.478 110.421C164.379 110.71 166.312 110.71 168.213 110.421L169.025 107.223Z" fill="#E58A7B"/>
<path d="M160.938 105.146L160.815 108.562L162.478 110.41L164.388 105.269L160.938 105.146Z" fill="#E58A7B"/>
<path d="M202.821 218.463L198.809 220.012L200.586 224.614L204.598 223.065L202.821 218.463Z" fill="#CF6F64"/>
<path d="M218.563 219.531H214.346L215.146 224.566H219.363L218.563 219.531Z" fill="#CF6F64"/>
<path opacity="0.2" d="M189.347 115.634C189.431 116.648 189.526 117.684 189.65 118.748L206.416 113.305C209.034 112.529 211.31 110.883 212.867 108.64C212.934 107.145 213.018 105.571 213.147 103.93C213.203 103.135 213.27 102.318 213.343 101.489C213.416 100.66 213.517 99.7416 213.623 98.8568L189.347 115.634Z" fill="black"/>
<path d="M194.824 97.2663L194.264 97.1991C194.594 94.3991 196.683 92.1927 198.884 92.2487V92.8087C196.958 92.7695 195.121 94.7575 194.824 97.2663Z" fill="white"/>
<path d="M197.809 102.435H197.714V101.875C199.64 101.948 201.449 99.9375 201.746 97.4343L202.306 97.5015C202.009 100.24 199.987 102.435 197.809 102.435Z" fill="white"/>
<path d="M208.275 73.64C207.486 76.7256 206.556 82.376 208.589 84.4312C208.589 84.4312 207.166 87.5616 201.438 87.5616C196.202 87.5616 199.007 84.4312 199.007 84.4312C202.49 83.6136 202.552 81.0712 202.093 78.6632L208.275 73.64Z" fill="#E58A7B"/>
<path d="M205.755 75.6896L202.098 78.6632C202.212 79.2165 202.277 79.7786 202.294 80.3432C203.364 81.4072 205.509 78.7136 205.727 77.336C205.838 76.7936 205.848 76.2354 205.755 75.6896Z" fill="#CF6F64"/>
<path d="M195.81 73.6007C196.064 74.0418 196.407 74.4255 196.816 74.7281C197.226 75.0307 197.693 75.2455 198.19 75.3591C199.534 75.6559 200.206 74.4183 199.836 73.1751C199.506 72.0551 198.402 70.5487 197.036 70.8063C196.743 70.8666 196.469 70.9962 196.237 71.1841C196.005 71.3721 195.821 71.613 195.701 71.8866C195.581 72.1602 195.528 72.4587 195.547 72.7569C195.566 73.0551 195.656 73.3445 195.81 73.6007Z" fill="#CF6F64"/>
<path d="M198.033 63.7279C195.938 64.6855 195.199 73.0071 197.831 74.2391C200.463 75.4711 201.998 61.9079 198.033 63.7279Z" fill="#263238"/>
<path d="M208.914 68.9976C208.41 73.1752 208.354 75.6336 206.114 77.7728C205.42 78.4827 204.543 78.987 203.58 79.2299C202.617 79.4729 201.606 79.4451 200.658 79.1496C199.711 78.8541 198.863 78.3025 198.209 77.5555C197.555 76.8086 197.12 75.8954 196.952 74.9168C196.274 71.1648 197.21 64.9656 201.398 63.3024C202.279 62.9142 203.246 62.7685 204.202 62.8803C205.157 62.9922 206.065 63.3575 206.832 63.9385C207.599 64.5195 208.196 65.295 208.562 66.1845C208.928 67.0741 209.049 68.0453 208.914 68.9976Z" fill="#E58A7B"/>
<path d="M202.031 65.8896C205.134 65.1 207.413 64.5624 206.595 67.144C205.514 70.5936 204.215 73.9312 205.957 74.0824C207.021 74.1776 211.725 72.184 211.126 70.1624C210.605 68.404 212.806 67.9224 213.198 67.032C214.648 63.8064 210.498 64.232 211.238 62.272C211.977 60.312 207.878 57.1536 205.638 58.7272C201.992 61.2696 195.737 61.2304 199.024 57.0472C201.382 54.0624 197.176 54.6728 197.176 54.6728C197.176 54.6728 199.718 56.1792 195.44 58.5088C190.915 60.9952 195.065 67.676 202.031 65.8896Z" fill="#263238"/>
<path d="M210.56 73.6007C209.948 74.4869 209.027 75.1137 207.978 75.3591C206.595 75.6559 206.063 74.4183 206.584 73.1751C207.049 72.0551 208.326 70.5487 209.647 70.8063C210.969 71.0639 211.271 72.5031 210.56 73.6007Z" fill="#E58A7B"/>
<path d="M190.064 122.046C190.064 122.046 186.278 155.926 185.981 168.784C185.679 182.157 198.811 223.882 198.811 223.882L205.531 221.082C205.531 221.082 197.691 182.958 198.811 169.826C199.998 155.506 204.904 122.069 204.904 122.069L190.064 122.046Z" fill="#FE7777"/>
<path opacity="0.2" d="M199.472 131.348C196.454 137.609 198.486 149.99 200.122 157.326C200.743 152.146 201.482 146.524 202.182 141.322C202.115 133.325 201.494 127.148 199.472 131.348Z" fill="black"/>
<path d="M205.234 218.865C205.268 218.865 206.03 221.004 206.03 221.004L198.279 224.263L197.058 221.99L205.234 218.865Z" fill="#FE7777"/>
<path d="M198.066 122.046C198.066 122.046 200.962 154.269 202.877 166.337C204.982 179.558 213.237 223.591 213.237 223.591H220.959C220.959 223.591 216.334 180.628 215.46 167.535C214.508 153.334 212.615 122.046 212.615 122.046H198.066Z" fill="#FE7777"/>
<path d="M221.077 221.581C221.11 221.581 221.334 223.737 221.334 223.737H212.845L212.24 221.262L221.077 221.581Z" fill="#FE7777"/>
<path opacity="0.2" d="M218.12 219.027C218.103 219.027 218.086 219.021 218.072 219.01C218.059 218.999 218.05 218.983 218.047 218.966C218.002 218.574 213.83 179.766 213.046 168.006C212.195 155.249 210.482 126.952 210.465 126.666C210.464 126.657 210.465 126.648 210.468 126.639C210.471 126.63 210.476 126.622 210.482 126.615C210.489 126.608 210.496 126.603 210.505 126.599C210.514 126.596 210.523 126.594 210.532 126.594C210.55 126.594 210.568 126.6 210.582 126.613C210.595 126.625 210.603 126.643 210.605 126.661C210.605 126.946 212.335 155.221 213.186 168C213.97 179.76 218.142 218.54 218.182 218.96C218.183 218.969 218.183 218.979 218.181 218.988C218.178 218.997 218.174 219.006 218.168 219.013C218.162 219.02 218.155 219.026 218.147 219.031C218.139 219.035 218.129 219.038 218.12 219.038V219.027Z" fill="black"/>
<path d="M202.507 70.1624C202.507 70.504 202.294 70.7784 202.07 70.7784C201.846 70.7784 201.684 70.504 201.706 70.1624C201.729 69.8208 201.919 69.5464 202.143 69.5464C202.367 69.5464 202.53 69.8264 202.507 70.1624Z" fill="#263238"/>
<path d="M198.665 70.1624C198.665 70.504 198.447 70.7784 198.229 70.7784C198.01 70.7784 197.842 70.504 197.859 70.1624C197.876 69.8208 198.077 69.5464 198.301 69.5464C198.525 69.5464 198.688 69.8264 198.665 70.1624Z" fill="#263238"/>
<path d="M199.875 70.3359C199.408 71.379 198.805 72.3562 198.083 73.2423C198.643 73.8023 199.69 73.5447 199.69 73.5447L199.875 70.3359Z" fill="#DF5753"/>
<path d="M199.976 74.9728C199.963 74.9728 199.95 74.9702 199.938 74.9651C199.926 74.9599 199.916 74.9524 199.907 74.943C199.898 74.9335 199.891 74.9224 199.886 74.9102C199.882 74.898 199.88 74.885 199.881 74.872C199.882 74.8448 199.894 74.8191 199.914 74.8004C199.934 74.7816 199.96 74.7712 199.987 74.7712C200.415 74.7742 200.839 74.6811 201.227 74.499C201.614 74.3168 201.956 74.0501 202.227 73.7184C202.247 73.7015 202.271 73.6921 202.297 73.6921C202.323 73.6921 202.348 73.7015 202.367 73.7184C202.385 73.7372 202.395 73.7623 202.395 73.7884C202.395 73.8145 202.385 73.8396 202.367 73.8584C202.077 74.2109 201.712 74.4939 201.298 74.6868C200.884 74.8796 200.432 74.9773 199.976 74.9728Z" fill="#263238"/>
<path d="M203.19 69.132C203.163 69.1457 203.134 69.1529 203.104 69.1529C203.073 69.1529 203.044 69.1457 203.017 69.132C202.807 68.9965 202.569 68.9123 202.321 68.886C202.073 68.8597 201.822 68.8922 201.589 68.9808C201.566 68.9921 201.541 68.9988 201.516 69.0005C201.491 69.0021 201.465 68.9986 201.441 68.9903C201.417 68.9819 201.395 68.9689 201.376 68.9518C201.357 68.9348 201.342 68.9142 201.331 68.8912C201.31 68.8413 201.31 68.7853 201.33 68.7351C201.35 68.6849 201.388 68.6445 201.438 68.6224C201.73 68.5028 202.048 68.4556 202.363 68.4849C202.677 68.5141 202.981 68.6189 203.246 68.7904C203.268 68.8049 203.286 68.8237 203.3 68.8454C203.315 68.8672 203.324 68.8915 203.329 68.917C203.334 68.9425 203.333 68.9688 203.328 68.9941C203.322 69.0195 203.312 69.0435 203.297 69.0648C203.268 69.0969 203.232 69.1202 203.19 69.132Z" fill="#263238"/>
<path d="M197.182 68.012C197.152 68.0048 197.125 67.9893 197.103 67.9672C197.085 67.949 197.07 67.9272 197.06 67.9031C197.05 67.8791 197.044 67.8533 197.044 67.8272C197.044 67.8011 197.05 67.7753 197.06 67.7513C197.07 67.7272 197.085 67.7055 197.103 67.6872C197.318 67.4465 197.585 67.2586 197.884 67.1381C198.184 67.0177 198.506 66.9679 198.828 66.9928C198.854 66.9968 198.878 67.006 198.901 67.0199C198.923 67.0338 198.942 67.0521 198.956 67.0736C198.971 67.0951 198.981 67.1194 198.986 67.145C198.991 67.1706 198.991 67.197 198.985 67.2224C198.973 67.2743 198.942 67.3199 198.899 67.3509C198.856 67.3818 198.803 67.3959 198.75 67.3904C198.495 67.3744 198.24 67.4165 198.005 67.5135C197.769 67.6105 197.558 67.7599 197.389 67.9504C197.363 67.9788 197.33 67.9995 197.294 68.0104C197.257 68.0212 197.219 68.0218 197.182 68.012Z" fill="#263238"/>
<path d="M218.249 90.8992L212.425 89.348C212.425 89.348 206.713 103.41 204.691 104.322C201.947 105.577 194.998 109.922 192.041 111.978C191.878 112.678 192.007 114.531 192.377 115.041C197.417 114.122 207.066 110.41 209.082 108.522C213.679 104.216 218.249 90.8992 218.249 90.8992Z" fill="#E58A7B"/>
<path d="M214.183 229.544C213.899 229.566 213.616 229.489 213.382 229.326C213.31 229.26 213.256 229.178 213.226 229.085C213.195 228.993 213.19 228.894 213.209 228.799C213.212 228.74 213.232 228.682 213.265 228.633C213.299 228.584 213.345 228.544 213.399 228.519C213.87 228.278 215.186 229.113 215.337 229.208C215.353 229.218 215.366 229.234 215.373 229.252C215.38 229.27 215.381 229.29 215.376 229.309C215.371 229.328 215.362 229.346 215.348 229.361C215.334 229.376 215.317 229.387 215.298 229.393C214.933 229.482 214.559 229.533 214.183 229.544ZM213.623 228.67C213.581 228.661 213.537 228.661 213.494 228.67C213.473 228.681 213.455 228.698 213.443 228.719C213.431 228.74 213.426 228.764 213.427 228.788C213.412 228.853 213.415 228.921 213.434 228.985C213.454 229.049 213.49 229.106 213.539 229.152C213.758 229.348 214.306 229.37 215.029 229.23C214.599 228.947 214.114 228.756 213.606 228.67H213.623Z" fill="#FE7777"/>
<path d="M215.27 229.393C215.255 229.398 215.239 229.398 215.225 229.393C214.805 229.158 214.015 228.234 214.133 227.763C214.15 227.689 214.193 227.622 214.253 227.574C214.312 227.527 214.387 227.5 214.463 227.5C214.538 227.49 214.615 227.496 214.687 227.518C214.76 227.541 214.827 227.578 214.883 227.629C215.348 228.026 215.376 229.247 215.376 229.309C215.379 229.327 215.375 229.346 215.366 229.362C215.357 229.378 215.343 229.391 215.326 229.398C215.307 229.402 215.287 229.4 215.27 229.393ZM214.519 227.685H214.48C214.351 227.685 214.335 227.758 214.329 227.786C214.262 228.06 214.76 228.76 215.174 229.09C215.173 228.617 215.026 228.156 214.754 227.769C214.69 227.712 214.605 227.682 214.519 227.685Z" fill="#FE7777"/>
<path d="M199.315 228.844C198.973 228.964 198.599 228.964 198.257 228.844C198.179 228.802 198.113 228.741 198.065 228.666C198.017 228.592 197.989 228.507 197.982 228.418C197.975 228.363 197.982 228.307 198.003 228.255C198.024 228.203 198.057 228.157 198.1 228.122C198.548 227.718 200.379 228.122 200.586 228.2C200.606 228.205 200.623 228.217 200.636 228.233C200.648 228.249 200.654 228.269 200.654 228.29C200.654 228.311 200.649 228.331 200.638 228.349C200.627 228.367 200.611 228.382 200.592 228.39C200.18 228.577 199.753 228.728 199.315 228.844ZM198.402 228.178C198.338 228.19 198.279 228.219 198.229 228.262C198.211 228.275 198.197 228.293 198.189 228.314C198.181 228.335 198.18 228.357 198.184 228.379C198.188 228.438 198.206 228.495 198.237 228.545C198.269 228.595 198.312 228.636 198.363 228.665C198.66 228.822 199.349 228.698 200.239 228.323C199.639 228.172 199.018 228.123 198.402 228.178Z" fill="#FE7777"/>
<path d="M200.575 228.39H200.53C199.97 228.29 198.85 227.646 198.817 227.164C198.817 227.052 198.867 226.895 199.136 226.806C199.227 226.773 199.323 226.76 199.42 226.765C199.516 226.771 199.61 226.796 199.696 226.839C200.301 227.136 200.62 228.211 200.637 228.262C200.641 228.279 200.64 228.296 200.635 228.313C200.631 228.33 200.621 228.345 200.609 228.357C200.601 228.37 200.589 228.382 200.575 228.39ZM199.248 226.974H199.192C199.019 227.035 199.019 227.108 199.019 227.13C199.019 227.422 199.83 227.954 200.396 228.133C200.266 227.683 199.99 227.289 199.612 227.013C199.5 226.956 199.37 226.942 199.248 226.974Z" fill="#FE7777"/>
<path d="M192.517 111.647L186.676 114.335L185.998 116.015L188.154 117.466C188.154 117.466 192.186 117.029 193.334 114.436L192.517 111.647Z" fill="#E58A7B"/>
<path d="M192.763 115.136C192.633 114.014 192.262 112.933 191.677 111.966L192.601 111.272C193.296 112.385 193.739 113.637 193.9 114.94L192.763 115.136Z" fill="#263238"/>
<path d="M193.76 112.442C193.883 112.637 193.944 112.864 193.934 113.094C193.923 113.324 193.842 113.545 193.702 113.727C193.561 113.91 193.368 114.044 193.148 114.113C192.928 114.181 192.693 114.18 192.474 114.11C192.255 114.04 192.062 113.904 191.923 113.721C191.784 113.538 191.704 113.316 191.696 113.086C191.687 112.856 191.749 112.629 191.874 112.436C191.999 112.242 192.18 112.092 192.394 112.006C192.633 111.884 192.911 111.861 193.167 111.943C193.422 112.025 193.636 112.204 193.76 112.442Z" fill="#263238"/>
<path d="M182.728 116.508L183.506 117.292L188.748 115.052L186.676 114.335L182.728 116.508Z" fill="#E58A7B"/>
<path opacity="0.2" d="M205.234 218.865C205.268 218.865 206.03 221.004 206.03 221.004L198.279 224.263L197.058 221.99L205.234 218.865Z" fill="black"/>
<path opacity="0.2" d="M221.077 221.581C221.11 221.581 221.334 223.737 221.334 223.737H212.845L212.24 221.262L221.077 221.581Z" fill="black"/>
<path d="M219.766 89.2863C221.306 94.2535 215.286 101.046 215.286 101.046L206.97 97.6527C207.956 94.7817 209.093 91.9647 210.375 89.2135C212.929 83.7087 218.21 84.2743 219.766 89.2863Z" fill="#FE7777"/>
<path opacity="0.2" d="M219.766 89.2863C221.306 94.2535 215.286 101.046 215.286 101.046L206.97 97.6527C207.956 94.7817 209.093 91.9647 210.375 89.2135C212.929 83.7087 218.21 84.2743 219.766 89.2863Z" fill="black"/>
<path d="M137.133 39.5192H133.554V40.096H137.133V39.5192Z" fill="#FE7777"/>
<path d="M183.455 62.3484L183.022 71.9595L183.598 71.9854L184.031 62.3744L183.455 62.3484Z" fill="#FE7777"/>
<path d="M182.342 42.1063H116.262L110.113 179.71H176.193L182.342 42.1063Z" fill="#FE7777"/>
<path opacity="0.56" d="M180.37 43.9991H114.29L108.142 181.602H174.222L180.37 43.9991Z" fill="#FAFAFA"/>
<path opacity="0.07" d="M178.399 45.8864H112.319L106.165 183.49H172.245L178.399 45.8864Z" fill="#FE7777"/>
<path d="M170.878 105.902H114.475L114.005 116.43H170.408L170.878 105.902Z" fill="white"/>
<path d="M145.494 98.2184H114.817L114.61 102.928H145.286L145.494 98.2184Z" fill="#FE7777"/>
<path d="M169.607 134.316H113.204L112.734 144.844H169.137L169.607 134.316Z" fill="white"/>
<path opacity="0.47" d="M159.264 159.062H121.335L120.77 171.679H158.698L159.264 159.062Z" fill="#FE7777"/>
<path d="M156.727 173.639H118.798C118.782 173.643 118.765 173.643 118.748 173.639C118.743 173.623 118.743 173.605 118.748 173.589L119.308 160.966C119.308 160.958 119.31 160.949 119.313 160.941C119.317 160.934 119.322 160.927 119.328 160.921C119.334 160.915 119.342 160.911 119.35 160.908C119.358 160.905 119.367 160.904 119.375 160.905H157.304C157.311 160.901 157.319 160.9 157.326 160.9C157.334 160.9 157.342 160.901 157.349 160.905C157.353 160.912 157.355 160.919 157.355 160.927C157.355 160.935 157.353 160.943 157.349 160.95L156.8 173.6C156.793 173.613 156.783 173.624 156.77 173.631C156.757 173.638 156.742 173.641 156.727 173.639ZM118.866 173.505H156.66L157.22 161.017H119.426L118.866 173.505Z" fill="white"/>
<path d="M138.869 126.633H113.546L113.338 131.348H138.656L138.869 126.633Z" fill="#FE7777"/>
<path d="M158.542 71.8927C158.397 74.9567 157.307 77.9007 155.422 80.3207C154.027 82.1486 152.232 83.6326 150.174 84.6586C148.116 85.6847 145.85 86.2257 143.55 86.2399C141.692 86.2541 139.851 85.8877 138.139 85.1632C136.428 84.4387 134.883 83.3716 133.6 82.0275C132.317 80.6834 131.322 79.0908 130.678 77.3478C130.033 75.6048 129.753 73.7483 129.853 71.8927C130.05 68.0422 131.71 64.4123 134.495 61.7454C137.279 59.0786 140.977 57.5762 144.833 57.5455C146.692 57.5282 148.536 57.8924 150.249 58.6156C151.963 59.3388 153.51 60.4057 154.794 61.7503C156.079 63.0949 157.075 64.6887 157.719 66.4332C158.364 68.1776 158.644 70.0358 158.542 71.8927Z" fill="white"/>
<path d="M159.891 60.5472C159.855 61.3619 159.565 62.1449 159.062 62.7872C158.691 63.2727 158.213 63.6668 157.665 63.9395C157.118 64.2122 156.516 64.3563 155.904 64.3608C155.312 64.3644 154.727 64.2228 154.202 63.9485C153.677 63.6742 153.227 63.2755 152.891 62.7872C152.447 62.1273 152.227 61.3418 152.264 60.5472C152.318 59.5248 152.76 58.5617 153.5 57.8541C154.24 57.1464 155.222 56.7477 156.246 56.7392C156.74 56.7347 157.229 56.8313 157.684 57.0232C158.139 57.2151 158.55 57.4982 158.892 57.8549C159.233 58.2117 159.498 58.6346 159.67 59.0976C159.842 59.5606 159.917 60.054 159.891 60.5472Z" fill="#FE7777"/>
<path d="M120.551 111.166C120.524 111.617 120.327 112.041 120 112.353C119.673 112.665 119.239 112.841 118.787 112.846C118.569 112.848 118.352 112.806 118.151 112.722C117.95 112.637 117.768 112.512 117.617 112.355C117.466 112.197 117.348 112.011 117.272 111.806C117.196 111.602 117.163 111.383 117.174 111.166C117.199 110.713 117.395 110.288 117.723 109.975C118.051 109.663 118.485 109.488 118.938 109.486C119.156 109.484 119.372 109.526 119.573 109.611C119.774 109.696 119.956 109.821 120.107 109.978C120.258 110.135 120.375 110.322 120.452 110.526C120.528 110.73 120.562 110.948 120.551 111.166Z" fill="#263238"/>
<path d="M128.1 111.166C128.074 111.617 127.878 112.042 127.55 112.354C127.223 112.666 126.788 112.842 126.336 112.846C126.118 112.847 125.902 112.805 125.702 112.72C125.501 112.635 125.32 112.51 125.169 112.353C125.019 112.196 124.902 112.009 124.826 111.805C124.75 111.601 124.717 111.383 124.729 111.166C124.753 110.714 124.948 110.289 125.275 109.977C125.602 109.665 126.035 109.489 126.487 109.486C126.705 109.483 126.922 109.525 127.123 109.61C127.325 109.694 127.506 109.819 127.658 109.976C127.809 110.134 127.926 110.32 128.002 110.525C128.078 110.73 128.111 110.948 128.1 111.166Z" fill="#263238"/>
<path d="M135.654 111.166C135.629 111.617 135.432 112.042 135.105 112.354C134.777 112.666 134.343 112.842 133.89 112.846C133.672 112.847 133.456 112.805 133.255 112.72C133.054 112.635 132.873 112.51 132.722 112.353C132.571 112.196 132.454 112.009 132.377 111.805C132.301 111.601 132.267 111.383 132.278 111.166C132.303 110.714 132.5 110.289 132.827 109.977C133.155 109.665 133.589 109.489 134.042 109.486C134.26 109.483 134.476 109.525 134.678 109.61C134.879 109.694 135.061 109.819 135.212 109.976C135.363 110.134 135.48 110.32 135.556 110.525C135.633 110.73 135.666 110.948 135.654 111.166Z" fill="#263238"/>
<path d="M119.28 139.58C119.253 140.031 119.056 140.455 118.729 140.767C118.402 141.079 117.968 141.255 117.516 141.26C117.298 141.262 117.082 141.219 116.881 141.134C116.68 141.05 116.499 140.925 116.348 140.768C116.197 140.61 116.079 140.424 116.003 140.22C115.927 140.015 115.893 139.798 115.903 139.58C115.929 139.128 116.125 138.703 116.453 138.391C116.781 138.079 117.215 137.903 117.667 137.9C117.885 137.898 118.101 137.941 118.302 138.026C118.503 138.11 118.685 138.235 118.836 138.392C118.987 138.55 119.104 138.736 119.18 138.94C119.257 139.145 119.291 139.362 119.28 139.58Z" fill="#263238"/>
<path d="M126.829 139.58C126.803 140.031 126.607 140.455 126.281 140.767C125.955 141.079 125.522 141.255 125.07 141.26C124.852 141.263 124.636 141.22 124.434 141.136C124.233 141.052 124.051 140.927 123.9 140.769C123.749 140.612 123.632 140.425 123.555 140.221C123.479 140.016 123.446 139.798 123.458 139.58C123.483 139.128 123.68 138.703 124.007 138.391C124.335 138.079 124.769 137.904 125.222 137.9C125.439 137.898 125.655 137.941 125.856 138.026C126.056 138.11 126.238 138.235 126.388 138.393C126.539 138.55 126.656 138.737 126.731 138.941C126.807 139.145 126.84 139.362 126.829 139.58Z" fill="#263238"/>
<path d="M134.4 139.58C134.374 140.032 134.178 140.457 133.85 140.769C133.522 141.081 133.088 141.256 132.636 141.26C132.418 141.261 132.202 141.218 132.002 141.133C131.801 141.048 131.62 140.923 131.469 140.766C131.318 140.609 131.201 140.423 131.124 140.219C131.048 140.015 131.013 139.798 131.023 139.58C131.05 139.129 131.247 138.704 131.574 138.393C131.902 138.081 132.335 137.905 132.787 137.9C133.005 137.897 133.222 137.94 133.423 138.024C133.624 138.108 133.806 138.233 133.957 138.391C134.109 138.548 134.226 138.735 134.302 138.939C134.378 139.144 134.411 139.362 134.4 139.58Z" fill="#263238"/>
<path d="M141.938 139.58C141.911 140.031 141.714 140.455 141.386 140.767C141.059 141.079 140.626 141.255 140.174 141.26C139.956 141.261 139.74 141.218 139.539 141.133C139.339 141.048 139.158 140.923 139.007 140.766C138.856 140.609 138.739 140.423 138.662 140.219C138.585 140.015 138.551 139.798 138.561 139.58C138.588 139.129 138.785 138.704 139.112 138.393C139.439 138.081 139.873 137.905 140.325 137.9C140.543 137.898 140.759 137.941 140.96 138.026C141.161 138.11 141.342 138.235 141.493 138.392C141.644 138.55 141.762 138.736 141.838 138.94C141.914 139.145 141.948 139.362 141.938 139.58Z" fill="#263238"/>
<path d="M149.52 139.58C149.493 140.031 149.296 140.455 148.969 140.767C148.641 141.079 148.208 141.255 147.756 141.26C147.538 141.263 147.321 141.22 147.12 141.136C146.919 141.052 146.737 140.927 146.586 140.769C146.434 140.612 146.317 140.425 146.241 140.221C146.165 140.016 146.132 139.798 146.143 139.58C146.169 139.128 146.365 138.703 146.693 138.391C147.021 138.079 147.455 137.903 147.907 137.9C148.125 137.898 148.341 137.941 148.542 138.026C148.743 138.11 148.925 138.235 149.076 138.392C149.227 138.55 149.344 138.736 149.42 138.94C149.497 139.145 149.531 139.362 149.52 139.58Z" fill="#263238"/>
<path d="M148.374 71.1455C150.718 68.8534 150.842 65.1794 148.652 62.9394C146.461 60.6995 142.785 60.7417 140.442 63.0338C138.098 65.326 137.973 68.9999 140.164 71.2399C142.354 73.4799 146.03 73.4376 148.374 71.1455Z" fill="#FE7777"/>
<path d="M155.422 80.3208C154.027 82.1487 152.232 83.6327 150.174 84.6588C148.116 85.6848 145.85 86.2258 143.55 86.24C141.321 86.2589 139.12 85.7289 137.144 84.6966C135.167 83.6644 133.475 82.1616 132.216 80.3208C134.938 77.6104 139.244 75.8408 144.015 75.8408C148.786 75.8408 152.942 77.6104 155.422 80.3208Z" fill="#FE7777"/>
<path opacity="0.1" d="M148.374 71.1455C150.718 68.8534 150.842 65.1794 148.652 62.9394C146.461 60.6995 142.785 60.7417 140.442 63.0338C138.098 65.326 137.973 68.9999 140.164 71.2399C142.354 73.4799 146.03 73.4376 148.374 71.1455Z" fill="white"/>
<path opacity="0.1" d="M155.422 80.3208C154.027 82.1487 152.232 83.6327 150.174 84.6588C148.116 85.6848 145.85 86.2258 143.55 86.24C141.321 86.2589 139.12 85.7289 137.144 84.6966C135.167 83.6644 133.475 82.1616 132.216 80.3208C134.938 77.6104 139.244 75.8408 144.015 75.8408C148.786 75.8408 152.942 77.6104 155.422 80.3208Z" fill="white"/>
<path d="M73.0294 118.966C72.4974 120.131 71.9374 121.414 71.4502 122.657C70.963 123.9 70.4646 125.182 70.0334 126.459C69.153 128.976 68.4824 131.56 68.0286 134.187L67.9054 135.01C67.8936 135.152 67.9069 135.294 67.9446 135.43C68.0768 135.895 68.2849 136.334 68.5606 136.73C69.2798 137.755 70.114 138.694 71.047 139.53C72.0307 140.445 73.0626 141.306 74.1382 142.111C75.2134 142.94 76.3446 143.746 77.459 144.508L76.4118 146.474C73.7508 145.314 71.225 143.866 68.8798 142.156C67.6286 141.244 66.4994 140.175 65.5198 138.975C64.9391 138.261 64.4863 137.452 64.1814 136.584C64.0041 136.042 63.9134 135.475 63.9126 134.904C63.9126 134.77 63.9126 134.574 63.9126 134.478V134.204L63.9686 133.644C64.2896 130.726 64.9031 127.849 65.7998 125.054C66.2366 123.676 66.7014 122.304 67.2334 120.966C67.7654 119.627 68.3142 118.317 68.9918 116.956L73.0294 118.966Z" fill="#E58A7B"/>
<path d="M76.6695 144.161L80.6287 142.156L79.6039 146.502C79.6039 146.502 76.8879 147.263 75.6279 145.942L76.6695 144.161Z" fill="#E58A7B"/>
<path d="M84.252 142.867L83.1992 146.462L79.604 146.502L80.6288 142.156L84.252 142.867Z" fill="#E58A7B"/>
<path d="M89.8408 98C90.0526 98.7761 90.3473 99.5271 90.72 100.24C90.6111 100.363 90.4709 100.455 90.3141 100.505C90.1574 100.556 89.99 100.563 89.8296 100.526L89.8408 98Z" fill="#DF5753"/>
<path d="M89.7232 98.0336C89.9552 98.0336 90.1432 97.7453 90.1432 97.3896C90.1432 97.0339 89.9552 96.7456 89.7232 96.7456C89.4913 96.7456 89.3032 97.0339 89.3032 97.3896C89.3032 97.7453 89.4913 98.0336 89.7232 98.0336Z" fill="#263238"/>
<path d="M89.5999 96.768L90.4511 96.5272C90.4511 96.5272 90.0367 97.188 89.5999 96.768Z" fill="#263238"/>
<path d="M78.9038 102.11C79.4134 104.714 79.923 109.491 78.0974 111.233C78.0974 111.233 78.8142 113.876 83.6582 113.876C88.9838 113.876 86.2006 111.233 86.2006 111.233C83.2942 110.538 83.367 108.382 83.8766 106.355L78.9038 102.11Z" fill="#E58A7B"/>
<path d="M77.4872 96.1744C77.756 100.526 77.7784 102.374 79.9736 104.608C83.2832 107.968 88.5696 106.691 89.6056 102.368C90.5408 98.448 89.9472 91.9968 85.6856 90.2664C84.7502 89.8811 83.7319 89.7407 82.7271 89.8587C81.7223 89.9766 80.7642 90.3489 79.9434 90.9404C79.1226 91.5319 78.4662 92.323 78.0365 93.2389C77.6067 94.1547 77.4176 95.1651 77.4872 96.1744Z" fill="#E58A7B"/>
<path d="M77.9184 91.28C75.7344 92.0752 72.8224 91.4816 73.9648 98.2184C75.1744 105.353 73.3152 107.699 73.3152 107.699C73.3152 107.699 81.5976 109.463 90.0536 107.593C90.0536 107.593 87.472 103.079 88.1944 99.7528C89.1184 95.5528 88.3904 94.0016 88.3904 94.0016C88.3904 94.0016 80.9872 90.16 77.9184 91.28Z" fill="#263238"/>
<path d="M87.1582 98.4424C87.1605 99.2697 87.3974 100.079 87.8414 100.778C88.435 101.685 89.135 101.338 89.3086 100.374C89.4654 99.5288 89.3478 98.0336 88.5918 97.4512C87.8358 96.8688 87.1694 97.44 87.1582 98.4424Z" fill="#E58A7B"/>
<path d="M76.02 92.0137C75.3928 90.2497 78.3832 87.5337 84.7112 88.6537C91.0392 89.7737 91.3136 95.0433 91.3136 95.0433L90.0368 93.5201L90.0928 95.1217L83.5912 96.3705L76.02 92.0137Z" fill="#263238"/>
<path d="M76.5575 111.53C76.5202 111.274 76.5842 111.014 76.7358 110.805C76.8875 110.595 77.1149 110.454 77.3695 110.41C79.3407 110.085 83.8207 109.424 86.0719 109.738C87.7519 109.973 88.1887 110.947 88.2615 111.748C88.2729 111.888 88.2542 112.029 88.2065 112.162C88.1589 112.294 88.0835 112.415 87.9853 112.516C87.8872 112.616 87.7686 112.695 87.6375 112.746C87.5065 112.797 87.366 112.82 87.2255 112.812L77.4927 112.375C77.2633 112.364 77.0449 112.273 76.8745 112.119C76.704 111.965 76.5921 111.757 76.5575 111.53Z" fill="#FE7777"/>
<path opacity="0.6" d="M76.5575 111.53C76.5202 111.274 76.5842 111.014 76.7358 110.805C76.8875 110.595 77.1149 110.454 77.3695 110.41C79.3407 110.085 83.8207 109.424 86.0719 109.738C87.7519 109.973 88.1887 110.947 88.2615 111.748C88.2729 111.888 88.2542 112.029 88.2065 112.162C88.1589 112.294 88.0835 112.415 87.9853 112.516C87.8872 112.616 87.7686 112.695 87.6375 112.746C87.5065 112.797 87.366 112.82 87.2255 112.812L77.4927 112.375C77.2633 112.364 77.0449 112.273 76.8745 112.119C76.704 111.965 76.5921 111.757 76.5575 111.53Z" fill="black"/>
<path d="M82.1855 209.362L85.7976 211.87L91.8399 203.678L88.228 201.174L82.1855 209.362Z" fill="#E58A7B"/>
<path d="M73.7632 209.199L77.5768 211.372L82.9248 202.709L79.1112 200.536L73.7632 209.199Z" fill="#E58A7B"/>
<path d="M91.8342 203.678L88.7206 207.9L85.1086 205.397L88.2222 201.174L91.8342 203.678Z" fill="#CF6F64"/>
<path d="M79.1055 200.536L82.9247 202.714L80.1695 207.178L76.3503 204.999L79.1055 200.536Z" fill="#CF6F64"/>
<path d="M85.232 138.88C85.232 138.88 99.3328 156.649 96.684 173.645C94.5504 187.37 82.1744 205.957 82.1744 205.957L76.356 203.067C80.4571 194.849 83.957 186.345 86.828 177.621C87.7133 174.912 87.9717 172.038 87.5837 169.215C87.1956 166.392 86.1713 163.694 84.588 161.325C77.4424 150.892 65.996 157.102 73.696 138.88H85.232Z" fill="#FE7777"/>
<path opacity="0.6" d="M85.232 138.88C85.232 138.88 99.3328 156.649 96.684 173.645C94.5504 187.37 82.1744 205.957 82.1744 205.957L76.356 203.067C80.4571 194.849 83.957 186.345 86.828 177.621C87.7133 174.912 87.9717 172.038 87.5837 169.215C87.1956 166.392 86.1713 163.694 84.588 161.325C77.4424 150.892 65.996 157.102 73.696 138.88H85.232Z" fill="black"/>
<path opacity="0.4" d="M92.148 150.293L90.0984 148.254C90.0984 148.417 94.0688 172.928 95.1832 179.816C95.8408 177.804 96.3444 175.745 96.6896 173.656C98 165.318 95.2616 156.8 92.148 150.293Z" fill="black"/>
<path d="M91.5262 138.88C91.5262 138.88 108.505 161.213 108.987 174.602C109.385 185.802 90.507 207.502 90.507 207.502L85.019 203.952C85.019 203.952 96.0678 188.541 98.851 175.952C97.7758 163.475 75.0398 138.88 75.0398 138.88H91.5262Z" fill="#FE7777"/>
<path opacity="0.6" d="M91.5262 138.88C91.5262 138.88 108.505 161.213 108.987 174.602C109.385 185.802 90.507 207.502 90.507 207.502L85.019 203.952C85.019 203.952 96.0678 188.541 98.851 175.952C97.7758 163.475 75.0398 138.88 75.0398 138.88H91.5262Z" fill="black"/>
<path d="M70.5206 112.23C68.7062 112.661 66.9646 119.258 66.9646 119.258L74.0598 123.995C74.0598 123.995 76.423 118.776 75.5942 116.491C74.7374 114.111 72.7998 111.686 70.5206 112.23Z" fill="#FE7777"/>
<path opacity="0.2" d="M71.9096 116.48L71.4167 122.231L74.0544 124.001C74.7826 122.361 75.3218 120.644 75.6615 118.882L71.9096 116.48Z" fill="black"/>
<path d="M93.6264 112.358C93.6264 112.358 95.7208 113.092 91.5264 138.874H73.6848C73.9872 131.594 73.9928 127.114 70.5208 112.23C73.019 111.715 75.5512 111.382 78.0976 111.233C80.7952 111.039 83.5031 111.039 86.2007 111.233C89.6839 111.552 93.6264 112.358 93.6264 112.358Z" fill="#FE7777"/>
<path d="M95.4406 116.48C95.8438 117.6 96.2694 118.804 96.7174 119.963C97.1654 121.122 97.591 122.315 98.0446 123.491L99.4166 127.008L99.7638 127.887L99.943 128.324L100.027 128.542C100.027 128.582 100.027 128.582 100.027 128.576C99.9247 128.432 99.7906 128.313 99.635 128.229C99.4135 128.098 99.1637 128.024 98.907 128.01C98.6937 128.004 98.4815 128.044 98.2854 128.128C98.0278 128.246 98.0278 128.296 98.0334 128.29C98.08 128.253 98.1214 128.21 98.1566 128.162C98.4666 127.755 98.7349 127.318 98.9574 126.857C99.2206 126.342 99.4726 125.793 99.7246 125.238C100.217 124.118 100.671 122.959 101.125 121.789C101.578 120.618 102.009 119.437 102.429 118.244L103.706 114.671L105.862 115.231C105.437 117.785 104.888 120.271 104.227 122.802C103.908 124.062 103.533 125.311 103.107 126.571C102.894 127.204 102.659 127.831 102.39 128.475C102.11 129.174 101.765 129.845 101.36 130.48C101.211 130.694 101.046 130.896 100.867 131.085C100.581 131.394 100.234 131.64 99.8478 131.807C99.5051 131.954 99.134 132.023 98.7614 132.009C98.344 131.993 97.9374 131.872 97.5798 131.656C97.1579 131.393 96.8078 131.029 96.5606 130.598C96.4766 130.452 96.4038 130.306 96.3534 130.2L96.247 129.987L96.0342 129.55L95.6086 128.682C95.0486 127.518 94.4886 126.342 94.0014 125.16C93.5142 123.978 92.999 122.78 92.5174 121.576C92.0358 120.372 91.6046 119.168 91.1958 117.869L95.4406 116.48Z" fill="#E58A7B"/>
<path d="M93.6263 112.358C95.7711 112.868 98.1847 119.207 98.1847 119.207L91.8063 124.634C91.8063 124.634 87.6791 117.723 88.5135 115.444C89.3815 113.07 90.8263 111.692 93.6263 112.358Z" fill="#FE7777"/>
<path d="M104.72 112.666L106.96 110.796L108.517 113.221L107.369 115.242C107.369 115.242 105.543 116.922 103.93 116.066C103.674 115.49 103.613 114.847 103.756 114.234C103.898 113.62 104.237 113.07 104.72 112.666Z" fill="#E58A7B"/>
<path d="M111.003 110.802L110.835 111.412L107.29 112.006L106.943 110.796L111.003 110.802Z" fill="#E58A7B"/>
<path d="M90.944 207.788L84.5488 203.655L85.6968 201.662L92.8816 206.08L90.944 207.788Z" fill="#FE7777"/>
<path d="M80.08 211.081C79.5189 211.012 78.9797 210.821 78.5008 210.521C78.481 210.514 78.4639 210.501 78.4518 210.484C78.4396 210.467 78.4331 210.447 78.4331 210.426C78.4331 210.405 78.4396 210.384 78.4518 210.367C78.4639 210.35 78.481 210.337 78.5008 210.331C78.6744 210.275 80.1808 209.81 80.6176 210.168C80.6667 210.209 80.704 210.262 80.7256 210.322C80.7473 210.382 80.7525 210.447 80.7408 210.51C80.733 210.611 80.6996 210.708 80.6437 210.792C80.5879 210.876 80.5114 210.945 80.4216 210.991C80.3167 211.049 80.1994 211.079 80.08 211.081ZM78.82 210.465C79.52 210.823 80.08 210.952 80.3488 210.818C80.4073 210.785 80.4566 210.738 80.4919 210.682C80.5271 210.625 80.5473 210.56 80.5504 210.493C80.5504 210.403 80.5504 210.364 80.5 210.342C80.2648 210.151 79.4248 210.297 78.8088 210.465H78.82Z" fill="#263238"/>
<path d="M78.5398 210.56C78.5103 210.56 78.4821 210.548 78.4614 210.527C78.4531 210.511 78.4487 210.494 78.4487 210.476C78.4487 210.459 78.4531 210.441 78.4614 210.426C78.4614 210.375 78.8254 209.16 79.3966 208.886C79.4696 208.852 79.5488 208.835 79.629 208.835C79.7092 208.835 79.7885 208.852 79.8614 208.886C79.9401 208.911 80.0081 208.961 80.0548 209.029C80.1015 209.097 80.1241 209.179 80.119 209.261C80.0798 209.765 79.055 210.459 78.5846 210.577L78.5398 210.56ZM79.6262 209.031C79.5718 209.033 79.5183 209.046 79.4694 209.07C79.1222 209.238 78.8366 209.894 78.6966 210.291C79.1894 210.084 79.867 209.535 79.8894 209.227C79.8894 209.177 79.8894 209.115 79.7606 209.059C79.7187 209.037 79.6733 209.022 79.6262 209.014V209.031Z" fill="#263238"/>
<path d="M88.0711 213.5C87.4383 213.5 86.5591 212.688 86.0775 212.19C86.0652 212.172 86.0586 212.152 86.0586 212.131C86.0586 212.11 86.0652 212.089 86.0775 212.072C86.0886 212.054 86.1043 212.039 86.123 212.029C86.1417 212.02 86.1628 212.015 86.1839 212.016C86.4079 212.016 88.3511 212.307 88.6255 212.856C88.6546 212.905 88.6699 212.961 88.6699 213.018C88.6699 213.076 88.6546 213.132 88.6255 213.181C88.5844 213.266 88.5222 213.34 88.4448 213.395C88.3674 213.45 88.2774 213.484 88.1831 213.494L88.0711 213.5ZM86.4471 212.268C87.1527 212.951 87.7743 213.332 88.1271 213.287C88.1889 213.279 88.2478 213.256 88.2985 213.22C88.3493 213.184 88.3904 213.136 88.4183 213.08C88.4308 213.061 88.4375 213.039 88.4375 213.016C88.4375 212.993 88.4308 212.97 88.4183 212.951C88.2727 212.649 87.2367 212.391 86.4471 212.268Z" fill="#263238"/>
<path d="M86.5088 212.24C86.3831 212.244 86.2574 212.234 86.1336 212.212C86.1163 212.209 86.1 212.202 86.0863 212.192C86.0725 212.181 86.0618 212.167 86.0552 212.15C86.0468 212.134 86.0425 212.116 86.0425 212.097C86.0425 212.079 86.0468 212.061 86.0552 212.044C86.0888 212.005 86.8448 211.092 87.5616 211.03C87.7645 211.015 87.9655 211.079 88.1216 211.21C88.34 211.4 88.3288 211.568 88.2728 211.674C88.1328 212.055 87.164 212.24 86.5088 212.24ZM86.3632 212.033C86.9904 212.066 87.9928 211.859 88.1216 211.585C88.1216 211.585 88.1664 211.495 88.0208 211.372C87.9629 211.322 87.8952 211.284 87.822 211.261C87.7488 211.237 87.6716 211.23 87.5952 211.238C87.1124 211.372 86.6824 211.652 86.3632 212.038V212.033Z" fill="#263238"/>
<path d="M78.6911 209.955L73.9422 208.611C73.8604 208.586 73.7723 208.593 73.6948 208.629C73.6173 208.665 73.5558 208.729 73.5222 208.807L71.9206 212.408C71.883 212.5 71.8654 212.599 71.8688 212.699C71.8723 212.798 71.8968 212.896 71.9407 212.986C71.9846 213.075 72.0469 213.154 72.1236 213.218C72.2002 213.281 72.2895 213.328 72.3854 213.354C74.0654 213.791 74.8718 213.914 76.9606 214.514C78.2486 214.872 80.0854 215.538 81.8606 216.042C83.6358 216.546 84.2294 214.816 83.5406 214.446C80.427 212.8 80.1807 211.646 79.3295 210.414C79.177 210.191 78.9511 210.029 78.6911 209.955Z" fill="#FE7777"/>
<path d="M86.2064 211.534L82.152 208.734C82.0832 208.684 81.9985 208.661 81.9139 208.669C81.8292 208.678 81.7506 208.717 81.6928 208.779L79.0048 211.669C78.9393 211.743 78.8904 211.831 78.8615 211.926C78.8325 212.021 78.8241 212.121 78.8368 212.22C78.8495 212.318 78.8831 212.413 78.9352 212.498C78.9873 212.582 79.0569 212.655 79.1392 212.71C80.5672 213.668 81.3064 214.054 83.0928 215.292C84.2128 216.054 86.38 217.745 87.892 218.798C89.404 219.85 90.5296 218.406 89.992 217.834C87.584 215.264 87.0576 213.651 86.66 212.19C86.591 211.924 86.4303 211.692 86.2064 211.534Z" fill="#FE7777"/>
<path d="M82.9191 206.327L75.6111 202.692L76.3671 200.71L84.1735 204.54L82.9191 206.327Z" fill="#FE7777"/>
<path d="M73.4159 137.827L72.7999 139.44C72.7383 139.563 72.8839 139.692 73.0911 139.692H91.6159C91.7783 139.692 91.9127 139.614 91.9239 139.513L92.0807 137.911C92.0807 137.805 91.9519 137.71 91.7783 137.71H73.7071C73.6527 137.705 73.5979 137.713 73.5472 137.733C73.4965 137.753 73.4515 137.786 73.4159 137.827Z" fill="#FE7777"/>
<path opacity="0.4" d="M73.4159 137.827L72.7999 139.44C72.7383 139.563 72.8839 139.692 73.0911 139.692H91.6159C91.7783 139.692 91.9127 139.614 91.9239 139.513L92.0807 137.911C92.0807 137.805 91.9519 137.71 91.7783 137.71H73.7071C73.6527 137.705 73.5979 137.713 73.5472 137.733C73.4965 137.753 73.4515 137.786 73.4159 137.827Z" fill="white"/>
<path d="M76.3335 139.849H75.8463C75.7511 139.849 75.6783 139.798 75.6839 139.737L75.9135 137.659C75.9135 137.603 76.0031 137.553 76.0983 137.553H76.5855C76.6807 137.553 76.7535 137.603 76.7479 137.659L76.5183 139.737C76.5127 139.798 76.4287 139.849 76.3335 139.849Z" fill="#FE7777"/>
<path d="M87.7576 139.849H87.276C87.1808 139.849 87.108 139.798 87.1136 139.737L87.3376 137.659C87.3376 137.603 87.4328 137.553 87.528 137.553H88.0096C88.1048 137.553 88.1832 137.603 88.172 137.659L87.948 139.737C87.92 139.798 87.8584 139.849 87.7576 139.849Z" fill="#FE7777"/>
<g style="mix-blend-mode:multiply">
<path d="M75.9079 234.685C84.1935 234.685 90.9103 234.198 90.9103 233.598C90.9103 232.998 84.1935 232.512 75.9079 232.512C67.6223 232.512 60.9055 232.998 60.9055 233.598C60.9055 234.198 67.6223 234.685 75.9079 234.685Z" fill="#F5F5F5"/>
</g>
<path d="M85.0472 232.064C82.3928 231.291 79.4472 230.3 77.6664 229.264C77.616 229.23 77.56 229.214 77.5096 229.186V217.168H82.88C83.2876 217.144 83.6707 216.965 83.9508 216.668C84.2309 216.371 84.3869 215.978 84.3869 215.569C84.3869 215.161 84.2309 214.768 83.9508 214.471C83.6707 214.174 83.2876 213.995 82.88 213.97H77.5376V159.191H74.312V213.97H68.9752C68.7573 213.958 68.539 213.989 68.3338 214.064C68.1286 214.138 67.9408 214.254 67.782 214.404C67.6231 214.554 67.4966 214.734 67.4101 214.935C67.3235 215.135 67.2789 215.351 67.2789 215.569C67.2789 215.788 67.3235 216.004 67.4101 216.204C67.4966 216.404 67.6231 216.585 67.782 216.735C67.9408 216.885 68.1286 217 68.3338 217.075C68.539 217.149 68.7573 217.181 68.9752 217.168H74.312V229.169C74.2616 229.169 74.2112 229.214 74.1608 229.247C72.352 230.3 69.4288 231.291 66.7744 232.047C66.5951 232.102 66.4411 232.218 66.3403 232.376C66.2396 232.534 66.1987 232.723 66.2251 232.908C66.2515 233.094 66.3434 233.264 66.4843 233.387C66.6251 233.511 66.8055 233.58 66.9928 233.582H84.8288C85.0078 233.569 85.1772 233.496 85.3087 233.374C85.4402 233.252 85.5259 233.089 85.5515 232.911C85.577 232.734 85.5409 232.553 85.4491 232.398C85.3573 232.244 85.2155 232.126 85.0472 232.064Z" fill="#E0E0E0"/>
<path d="M85.8703 153.614H65.9567C64.3546 153.614 63.0559 154.912 63.0559 156.514V162.434C63.0559 164.036 64.3546 165.334 65.9567 165.334H85.8703C87.4724 165.334 88.7711 164.036 88.7711 162.434V156.514C88.7711 154.912 87.4724 153.614 85.8703 153.614Z" fill="#FE7777"/>
<path d="M65.772 165.34V166.359C65.772 167.199 66.6848 167.882 67.8048 167.882H84.0448C85.1648 167.882 86.0776 167.199 86.0776 166.359V165.34H65.772Z" fill="#FE7777"/>
<path opacity="0.3" d="M65.772 165.34V166.359C65.772 167.199 66.6848 167.882 67.8048 167.882H84.0448C85.1648 167.882 86.0776 167.199 86.0776 166.359V165.34H65.772Z" fill="white"/>
</svg>
